HubotSans-ExtraLightNarrow.ufo
<glyph name="exclam" format="2">
  <advance width="169"/>
  <unicode hex="0021"/>
  <outline>
    <contour>
      <point x="76" y="146" type="line"/>
      <point x="94" y="146" type="line"/>
      <point x="101" y="523" type="line"/>
      <point x="101" y="729" type="line"/>
      <point x="69" y="729" type="line"/>
      <point x="69" y="523" type="line"/>
    </contour>
    <contour>
      <point x="61" y="0" type="line"/>
      <point x="108" y="0" type="line"/>
      <point x="108" y="54" type="line"/>
      <point x="61" y="54" type="line"/>
    </contour>
  </outline>
</glyph>
<glyph name="numbersign" format="2">
  <advance width="467"/>
  <unicode hex="0023"/>
  <outline>
    <contour>
      <point x="134" y="0" type="line"/>
      <point x="162" y="0" type="line"/>
      <point x="162" y="227" type="line"/>
      <point x="311" y="227" type="line"/>
      <point x="311" y="0" type="line"/>
      <point x="339" y="0" type="line"/>
      <point x="339" y="227" type="line"/>
      <point x="437" y="227" type="line"/>
      <point x="437" y="251" type="line"/>
      <point x="339" y="251" type="line"/>
      <point x="339" y="502" type="line"/>
      <point x="437" y="502" type="line"/>
      <point x="437" y="526" type="line"/>
      <point x="339" y="526" type="line"/>
      <point x="339" y="729" type="line"/>
      <point x="311" y="729" type="line"/>
      <point x="311" y="526" type="line"/>
      <point x="162" y="526" type="line"/>
      <point x="162" y="729" type="line"/>
      <point x="134" y="729" type="line"/>
      <point x="134" y="526" type="line"/>
      <point x="30" y="526" type="line"/>
      <point x="30" y="502" type="line"/>
      <point x="134" y="502" type="line"/>
      <point x="134" y="251" type="line"/>
      <point x="30" y="251" type="line"/>
      <point x="30" y="227" type="line"/>
      <point x="134" y="227" type="line"/>
    </contour>
    <contour>
      <point x="162" y="251" type="line"/>
      <point x="162" y="502" type="line"/>
      <point x="311" y="502" type="line"/>
      <point x="311" y="251" type="line"/>
    </contour>
  </outline>
</glyph>
<glyph name="ampersand" format="2">
  <advance width="466"/>
  <unicode hex="0026"/>
  <outline>
    <contour>
      <point x="177" y="-6" type="curve" smooth="yes"/>
      <point x="245" y="-6"/>
      <point x="290" y="32"/>
      <point x="317" y="98" type="curve"/>
      <point x="372" y="0" type="line"/>
      <point x="407" y="0" type="line"/>
      <point x="329" y="137" type="line"/>
      <point x="341" y="181"/>
      <point x="348" y="235"/>
      <point x="349" y="298" type="curve"/>
      <point x="420" y="298" type="line"/>
      <point x="420" y="328" type="line"/>
      <point x="319" y="328" type="line"/>
      <point x="319" y="316" type="line" smooth="yes"/>
      <point x="319" y="261"/>
      <point x="315" y="214"/>
      <point x="308" y="175" type="curve"/>
      <point x="180" y="399" type="line"/>
      <point x="248" y="451"/>
      <point x="287" y="509"/>
      <point x="287" y="601" type="curve" smooth="yes"/>
      <point x="287" y="619" type="line" smooth="yes"/>
      <point x="287" y="691"/>
      <point x="251" y="734"/>
      <point x="188" y="734" type="curve" smooth="yes"/>
      <point x="126" y="734"/>
      <point x="84" y="691"/>
      <point x="84" y="619" type="curve" smooth="yes"/>
      <point x="84" y="584" type="line" smooth="yes"/>
      <point x="84" y="527"/>
      <point x="105" y="474"/>
      <point x="144" y="403" type="curve"/>
      <point x="144" y="398" type="line"/>
      <point x="84" y="359"/>
      <point x="55" y="303"/>
      <point x="55" y="205" type="curve" smooth="yes"/>
      <point x="55" y="140" type="line" smooth="yes"/>
      <point x="55" y="45"/>
      <point x="100" y="-6"/>
    </contour>
    <contour>
      <point x="179" y="22" type="curve" smooth="yes"/>
      <point x="120" y="22"/>
      <point x="86" y="62"/>
      <point x="86" y="142" type="curve" smooth="yes"/>
      <point x="86" y="205" type="line" smooth="yes"/>
      <point x="86" y="290"/>
      <point x="108" y="340"/>
      <point x="158" y="375" type="curve"/>
      <point x="298" y="131" type="line"/>
      <point x="276" y="59"/>
      <point x="237" y="22"/>
    </contour>
    <contour>
      <point x="167" y="423" type="curve"/>
      <point x="133" y="487"/>
      <point x="114" y="534"/>
      <point x="114" y="584" type="curve" smooth="yes"/>
      <point x="114" y="619" type="line" smooth="yes"/>
      <point x="114" y="677"/>
      <point x="143" y="708"/>
      <point x="188" y="708" type="curve" smooth="yes"/>
      <point x="234" y="708"/>
      <point x="257" y="677"/>
      <point x="257" y="619" type="curve" smooth="yes"/>
      <point x="257" y="600" type="line" smooth="yes"/>
      <point x="257" y="540"/>
      <point x="240" y="484"/>
    </contour>
  </outline>
</glyph>
<glyph name="quotesingle" format="2">
  <advance width="122"/>
  <unicode hex="0027"/>
  <anchor x="-26" y="0" name="#entry"/>
  <anchor x="91" y="0" name="#exit"/>
  <outline>
    <contour>
      <point x="51" y="452" type="line"/>
      <point x="71" y="452" type="line"/>
      <point x="75" y="605" type="line"/>
      <point x="75" y="729" type="line"/>
      <point x="47" y="729" type="line"/>
      <point x="47" y="605" type="line"/>
    </contour>
  </outline>
</glyph>
<glyph name="parenleft" format="2">
  <advance width="253"/>
  <unicode hex="0028"/>
  <outline>
    <contour>
      <point x="182" y="-167" type="curve"/>
      <point x="215" y="-167" type="line"/>
      <point x="135" y="-67"/>
      <point x="81" y="114"/>
      <point x="81" y="313" type="curve" smooth="yes"/>
      <point x="81" y="499"/>
      <point x="130" y="686"/>
      <point x="215" y="793" type="curve"/>
      <point x="182" y="793" type="line"/>
      <point x="98" y="685"/>
      <point x="48" y="501"/>
      <point x="48" y="313" type="curve" smooth="yes"/>
      <point x="48" y="125"/>
      <point x="98" y="-59"/>
    </contour>
  </outline>
</glyph>
<glyph name="asterisk" format="2">
  <advance width="266"/>
  <unicode hex="002A"/>
  <outline>
    <contour>
      <point x="120" y="482" type="line"/>
      <point x="146" y="482" type="line"/>
      <point x="146" y="535" type="line"/>
      <point x="138" y="596" type="line"/>
      <point x="188" y="560" type="line"/>
      <point x="234" y="533" type="line"/>
      <point x="247" y="556" type="line"/>
      <point x="201" y="582" type="line"/>
      <point x="148" y="606" type="line"/>
      <point x="201" y="631" type="line"/>
      <point x="246" y="656" type="line"/>
      <point x="234" y="678" type="line"/>
      <point x="188" y="653" type="line"/>
      <point x="138" y="618" type="line"/>
      <point x="146" y="678" type="line"/>
      <point x="146" y="729" type="line"/>
      <point x="120" y="729" type="line"/>
      <point x="120" y="678" type="line"/>
      <point x="128" y="618" type="line"/>
      <point x="78" y="653" type="line"/>
      <point x="33" y="678" type="line"/>
      <point x="20" y="656" type="line"/>
      <point x="65" y="631" type="line"/>
      <point x="119" y="606" type="line"/>
      <point x="65" y="582" type="line"/>
      <point x="19" y="556" type="line"/>
      <point x="33" y="533" type="line"/>
      <point x="78" y="560" type="line"/>
      <point x="128" y="596" type="line"/>
      <point x="120" y="535" type="line"/>
    </contour>
  </outline>
</glyph>
<glyph name="plus" format="2">
  <advance width="500"/>
  <unicode hex="002B"/>
  <outline>
    <contour>
      <point x="235" y="168" type="line"/>
      <point x="265" y="168" type="line"/>
      <point x="265" y="554" type="line"/>
      <point x="235" y="554" type="line"/>
    </contour>
    <contour>
      <point x="57" y="347" type="line"/>
      <point x="443" y="347" type="line"/>
      <point x="443" y="375" type="line"/>
      <point x="57" y="375" type="line"/>
    </contour>
  </outline>
</glyph>
<glyph name="comma" format="2">
  <advance width="132"/>
  <unicode hex="002C"/>
  <anchor x="-10" y="0" name="#entry"/>
  <anchor x="99" y="0" name="#exit"/>
  <anchor x="66" y="515" name="top"/>
  <outline>
    <contour>
      <point x="24" y="-145" type="line"/>
      <point x="48" y="-145" type="line"/>
      <point x="89" y="0" type="line"/>
      <point x="89" y="61" type="line"/>
      <point x="43" y="61" type="line"/>
      <point x="43" y="0" type="line"/>
      <point x="68" y="0" type="line"/>
    </contour>
  </outline>
</glyph>
<glyph name="hyphen" format="2">
  <advance width="264"/>
  <unicode hex="002D"/>
  <outline>
    <contour>
      <point x="42" y="306" type="line"/>
      <point x="222" y="306" type="line"/>
      <point x="222" y="331" type="line"/>
      <point x="42" y="331" type="line"/>
    </contour>
  </outline>
</glyph>
<glyph name="period" format="2">
  <advance width="126"/>
  <unicode hex="002E"/>
  <anchor x="-10" y="0" name="#entry"/>
  <anchor x="109" y="0" name="#exit"/>
  <anchor x="63" y="61" name="_top"/>
  <anchor x="63" y="515" name="top"/>
  <outline>
    <contour>
      <point x="40" y="0" type="line"/>
      <point x="86" y="0" type="line"/>
      <point x="86" y="61" type="line"/>
      <point x="40" y="61" type="line"/>
    </contour>
  </outline>
</glyph>
<glyph name="slash" format="2">
  <advance width="272"/>
  <unicode hex="002F"/>
  <outline>
    <contour>
      <point x="10" y="-82" type="line"/>
      <point x="39" y="-82" type="line"/>
      <point x="244" y="729" type="line"/>
      <point x="215" y="729" type="line"/>
    </contour>
  </outline>
</glyph>
<glyph name="zero" format="2">
  <advance width="432"/>
  <unicode hex="0030"/>
  <note>
zero
</note>
  <outline>
    <contour>
      <point x="216" y="-6" type="curve" smooth="yes"/>
      <point x="317" y="-6"/>
      <point x="368" y="68"/>
      <point x="368" y="185" type="curve" smooth="yes"/>
      <point x="368" y="544" type="line" smooth="yes"/>
      <point x="368" y="661"/>
      <point x="317" y="735"/>
      <point x="216" y="735" type="curve" smooth="yes"/>
      <point x="115" y="735"/>
      <point x="64" y="661"/>
      <point x="64" y="544" type="curve" smooth="yes"/>
      <point x="64" y="185" type="line" smooth="yes"/>
      <point x="64" y="68"/>
      <point x="115" y="-6"/>
    </contour>
    <contour>
      <point x="216" y="22" type="curve" smooth="yes"/>
      <point x="139" y="22"/>
      <point x="94" y="76"/>
      <point x="94" y="177" type="curve" smooth="yes"/>
      <point x="94" y="552" type="line" smooth="yes"/>
      <point x="94" y="653"/>
      <point x="139" y="707"/>
      <point x="216" y="707" type="curve" smooth="yes"/>
      <point x="293" y="707"/>
      <point x="338" y="653"/>
      <point x="338" y="552" type="curve" smooth="yes"/>
      <point x="338" y="177" type="line" smooth="yes"/>
      <point x="338" y="76"/>
      <point x="293" y="22"/>
    </contour>
    <contour>
      <point x="70" y="351" type="line"/>
      <point x="363" y="351" type="line"/>
      <point x="363" y="378" type="line"/>
      <point x="70" y="378" type="line"/>
    </contour>
  </outline>
</glyph>
<glyph name="one" format="2">
  <advance width="241"/>
  <unicode hex="0031"/>
  <note>
one
</note>
  <outline>
    <contour>
      <point x="139" y="0" type="line"/>
      <point x="169" y="0" type="line"/>
      <point x="169" y="729" type="line"/>
      <point x="141" y="729" type="line"/>
      <point x="137" y="622" type="line"/>
      <point x="39" y="622" type="line"/>
      <point x="39" y="591" type="line"/>
      <point x="139" y="591" type="line"/>
    </contour>
  </outline>
</glyph>
<glyph name="two" format="2">
  <advance width="402"/>
  <unicode hex="0032"/>
  <note>
two
</note>
  <outline>
    <contour>
      <point x="50" y="0" type="line"/>
      <point x="359" y="0" type="line"/>
      <point x="359" y="28" type="line"/>
      <point x="118" y="28" type="line"/>
      <point x="78" y="27" type="line"/>
      <point x="78" y="29" type="line"/>
      <point x="87" y="45" type="line"/>
      <point x="268" y="349" type="line" smooth="yes"/>
      <point x="319" y="434"/>
      <point x="346" y="495"/>
      <point x="346" y="570" type="curve" smooth="yes"/>
      <point x="346" y="668"/>
      <point x="297" y="735"/>
      <point x="204" y="735" type="curve" smooth="yes"/>
      <point x="94" y="735"/>
      <point x="45" y="654"/>
      <point x="46" y="514" type="curve"/>
      <point x="76" y="514" type="line"/>
      <point x="73" y="631"/>
      <point x="108" y="709"/>
      <point x="204" y="709" type="curve" smooth="yes"/>
      <point x="270" y="709"/>
      <point x="316" y="666"/>
      <point x="316" y="581" type="curve" smooth="yes"/>
      <point x="316" y="552" type="line" smooth="yes"/>
      <point x="316" y="498"/>
      <point x="288" y="437"/>
      <point x="234" y="346" type="curve" smooth="yes"/>
      <point x="50" y="38" type="line"/>
    </contour>
  </outline>
</glyph>
<glyph name="three" format="2">
  <advance width="411"/>
  <unicode hex="0033"/>
  <note>
three
</note>
  <outline>
    <contour>
      <point x="200" y="-6" type="curve" smooth="yes"/>
      <point x="289" y="-6"/>
      <point x="356" y="41"/>
      <point x="356" y="195" type="curve" smooth="yes"/>
      <point x="356" y="304"/>
      <point x="314" y="356"/>
      <point x="257" y="372" type="curve"/>
      <point x="257" y="376" type="line"/>
      <point x="311" y="392"/>
      <point x="352" y="443"/>
      <point x="352" y="554" type="curve" smooth="yes"/>
      <point x="352" y="694"/>
      <point x="288" y="735"/>
      <point x="211" y="735" type="curve" smooth="yes"/>
      <point x="94" y="735"/>
      <point x="57" y="667"/>
      <point x="55" y="510" type="curve"/>
      <point x="85" y="510" type="line"/>
      <point x="86" y="657"/>
      <point x="117" y="708"/>
      <point x="211" y="708" type="curve" smooth="yes"/>
      <point x="276" y="708"/>
      <point x="319" y="669"/>
      <point x="319" y="581" type="curve" smooth="yes"/>
      <point x="319" y="517" type="line" smooth="yes"/>
      <point x="319" y="436"/>
      <point x="276" y="391"/>
      <point x="211" y="391" type="curve" smooth="yes"/>
      <point x="159" y="391" type="line"/>
      <point x="159" y="359" type="line"/>
      <point x="211" y="359" type="line" smooth="yes"/>
      <point x="277" y="359"/>
      <point x="323" y="309"/>
      <point x="323" y="222" type="curve" smooth="yes"/>
      <point x="323" y="149" type="line" smooth="yes"/>
      <point x="323" y="65"/>
      <point x="277" y="21"/>
      <point x="200" y="21" type="curve" smooth="yes"/>
      <point x="111" y="21"/>
      <point x="78" y="73"/>
      <point x="77" y="198" type="curve"/>
      <point x="47" y="198" type="line"/>
      <point x="49" y="63"/>
      <point x="89" y="-6"/>
    </contour>
  </outline>
</glyph>
<glyph name="four" format="2">
  <advance width="432"/>
  <unicode hex="0034"/>
  <note>
four
</note>
  <outline>
    <contour>
      <point x="41" y="200" type="line"/>
      <point x="393" y="200" type="line"/>
      <point x="393" y="228" type="line"/>
      <point x="71" y="228" type="line"/>
      <point x="71" y="234" type="line"/>
      <point x="291" y="729" type="line"/>
      <point x="259" y="729" type="line"/>
      <point x="41" y="237" type="line"/>
    </contour>
    <contour>
      <point x="281" y="0" type="line"/>
      <point x="311" y="0" type="line"/>
      <point x="311" y="378" type="line"/>
      <point x="286" y="378" type="line"/>
      <point x="281" y="221" type="line"/>
    </contour>
  </outline>
</glyph>
<glyph name="five" format="2">
  <advance width="408"/>
  <unicode hex="0035"/>
  <note>
five
</note>
  <outline>
    <contour>
      <point x="200" y="-6" type="curve" smooth="yes"/>
      <point x="290" y="-6"/>
      <point x="356" y="34"/>
      <point x="356" y="232" type="curve" smooth="yes"/>
      <point x="356" y="398"/>
      <point x="320" y="478"/>
      <point x="210" y="478" type="curve" smooth="yes"/>
      <point x="164" y="478"/>
      <point x="120" y="458"/>
      <point x="96" y="392" type="curve"/>
      <point x="92" y="392" type="line"/>
      <point x="116" y="701" type="line"/>
      <point x="352" y="701" type="line"/>
      <point x="352" y="729" type="line"/>
      <point x="88" y="729" type="line"/>
      <point x="60" y="320" type="line"/>
      <point x="89" y="320" type="line"/>
      <point x="103" y="399"/>
      <point x="143" y="451"/>
      <point x="208" y="451" type="curve" smooth="yes"/>
      <point x="273" y="451"/>
      <point x="323" y="415"/>
      <point x="323" y="300" type="curve" smooth="yes"/>
      <point x="323" y="168" type="line" smooth="yes"/>
      <point x="323" y="77"/>
      <point x="287" y="21"/>
      <point x="200" y="21" type="curve" smooth="yes"/>
      <point x="116" y="21"/>
      <point x="82" y="66"/>
      <point x="78" y="176" type="curve"/>
      <point x="48" y="176" type="line"/>
      <point x="54" y="54"/>
      <point x="96" y="-6"/>
    </contour>
  </outline>
</glyph>
<glyph name="six" format="2">
  <advance width="422"/>
  <unicode hex="0036"/>
  <note>
six
</note>
  <outline>
    <contour>
      <point x="216" y="-6" type="curve" smooth="yes"/>
      <point x="299" y="-6"/>
      <point x="368" y="34"/>
      <point x="368" y="227" type="curve" smooth="yes"/>
      <point x="368" y="388"/>
      <point x="331" y="467"/>
      <point x="217" y="467" type="curve" smooth="yes"/>
      <point x="160" y="467"/>
      <point x="113" y="433"/>
      <point x="93" y="356" type="curve"/>
      <point x="88" y="356" type="line"/>
      <point x="90" y="375"/>
      <point x="91" y="412"/>
      <point x="91" y="438" type="curve" smooth="yes"/>
      <point x="91" y="650"/>
      <point x="128" y="708"/>
      <point x="220" y="708" type="curve" smooth="yes"/>
      <point x="306" y="708"/>
      <point x="334" y="645"/>
      <point x="337" y="547" type="curve"/>
      <point x="366" y="547" type="line"/>
      <point x="363" y="653"/>
      <point x="324" y="735"/>
      <point x="222" y="735" type="curve" smooth="yes"/>
      <point x="115" y="735"/>
      <point x="62" y="675"/>
      <point x="62" y="426" type="curve" smooth="yes"/>
      <point x="62" y="215" type="line" smooth="yes"/>
      <point x="62" y="22"/>
      <point x="140" y="-6"/>
    </contour>
    <contour>
      <point x="215" y="21" type="curve" smooth="yes"/>
      <point x="131" y="21"/>
      <point x="95" y="77"/>
      <point x="95" y="178" type="curve" smooth="yes"/>
      <point x="95" y="301" type="line"/>
      <point x="107" y="371"/>
      <point x="144" y="441"/>
      <point x="216" y="441" type="curve" smooth="yes"/>
      <point x="285" y="441"/>
      <point x="335" y="405"/>
      <point x="335" y="280" type="curve" smooth="yes"/>
      <point x="335" y="178" type="line" smooth="yes"/>
      <point x="335" y="77"/>
      <point x="299" y="21"/>
    </contour>
  </outline>
</glyph>
<glyph name="seven" format="2">
  <advance width="397"/>
  <unicode hex="0037"/>
  <note>
seven
</note>
  <outline>
    <contour>
      <point x="103" y="0" type="line"/>
      <point x="135" y="0" type="line"/>
      <point x="356" y="697" type="line"/>
      <point x="356" y="729" type="line"/>
      <point x="47" y="729" type="line"/>
      <point x="47" y="536" type="line"/>
      <point x="74" y="536" type="line"/>
      <point x="74" y="701" type="line"/>
      <point x="325" y="701" type="line"/>
      <point x="325" y="695" type="line"/>
    </contour>
  </outline>
</glyph>
<glyph name="eight" format="2">
  <advance width="410"/>
  <unicode hex="0038"/>
  <note>
eight
</note>
  <outline>
    <contour>
      <point x="205" y="-6" type="curve" smooth="yes"/>
      <point x="288" y="-6"/>
      <point x="355" y="41"/>
      <point x="355" y="195" type="curve" smooth="yes"/>
      <point x="355" y="304"/>
      <point x="313" y="356"/>
      <point x="256" y="371" type="curve"/>
      <point x="256" y="377" type="line"/>
      <point x="310" y="392"/>
      <point x="351" y="443"/>
      <point x="351" y="554" type="curve" smooth="yes"/>
      <point x="351" y="694"/>
      <point x="287" y="735"/>
      <point x="205" y="735" type="curve" smooth="yes"/>
      <point x="123" y="735"/>
      <point x="59" y="694"/>
      <point x="59" y="554" type="curve" smooth="yes"/>
      <point x="59" y="443"/>
      <point x="100" y="392"/>
      <point x="154" y="377" type="curve"/>
      <point x="154" y="371" type="line"/>
      <point x="97" y="356"/>
      <point x="55" y="304"/>
      <point x="55" y="195" type="curve" smooth="yes"/>
      <point x="55" y="41"/>
      <point x="122" y="-6"/>
    </contour>
    <contour>
      <point x="205" y="21" type="curve" smooth="yes"/>
      <point x="134" y="21"/>
      <point x="88" y="65"/>
      <point x="88" y="149" type="curve" smooth="yes"/>
      <point x="88" y="222" type="line" smooth="yes"/>
      <point x="88" y="308"/>
      <point x="134" y="357"/>
      <point x="205" y="357" type="curve" smooth="yes"/>
      <point x="276" y="357"/>
      <point x="322" y="308"/>
      <point x="322" y="222" type="curve" smooth="yes"/>
      <point x="322" y="149" type="line" smooth="yes"/>
      <point x="322" y="65"/>
      <point x="276" y="21"/>
    </contour>
    <contour>
      <point x="205" y="393" type="curve" smooth="yes"/>
      <point x="135" y="393"/>
      <point x="92" y="437"/>
      <point x="92" y="517" type="curve" smooth="yes"/>
      <point x="92" y="581" type="line" smooth="yes"/>
      <point x="92" y="669"/>
      <point x="135" y="708"/>
      <point x="205" y="708" type="curve" smooth="yes"/>
      <point x="275" y="708"/>
      <point x="318" y="669"/>
      <point x="318" y="581" type="curve" smooth="yes"/>
      <point x="318" y="517" type="line" smooth="yes"/>
      <point x="318" y="437"/>
      <point x="275" y="393"/>
    </contour>
  </outline>
</glyph>
<glyph name="equal" format="2">
  <advance width="500"/>
  <unicode hex="003D"/>
  <anchor x="250" y="361" name="center"/>
  <outline>
    <contour>
      <point x="27" y="437" type="line"/>
      <point x="473" y="437" type="line"/>
      <point x="473" y="465" type="line"/>
      <point x="27" y="465" type="line"/>
    </contour>
    <contour>
      <point x="27" y="257" type="line"/>
      <point x="473" y="257" type="line"/>
      <point x="473" y="285" type="line"/>
      <point x="27" y="285" type="line"/>
    </contour>
  </outline>
</glyph>
<glyph name="greater" format="2">
  <advance width="500"/>
  <unicode hex="003E"/>
  <outline>
    <contour>
      <point x="-14" y="149" type="line"/>
      <point x="417" y="343" type="line"/>
      <point x="417" y="387" type="line"/>
      <point x="-14" y="581" type="line"/>
      <point x="-14" y="549" type="line"/>
      <point x="386" y="367" type="line"/>
      <point x="386" y="363" type="line"/>
      <point x="-14" y="181" type="line"/>
    </contour>
  </outline>
</glyph>
<glyph name="question" format="2">
  <advance width="336"/>
  <unicode hex="003F"/>
  <outline>
    <contour>
      <point x="154" y="160" type="line"/>
      <point x="185" y="160" type="line"/>
      <point x="185" y="189" type="line" smooth="yes"/>
      <point x="185" y="342"/>
      <point x="290" y="424"/>
      <point x="290" y="576" type="curve" smooth="yes"/>
      <point x="290" y="673"/>
      <point x="251" y="739"/>
      <point x="163" y="739" type="curve" smooth="yes"/>
      <point x="83" y="739"/>
      <point x="28" y="680"/>
      <point x="32" y="535" type="curve"/>
      <point x="62" y="535" type="line"/>
      <point x="60" y="642"/>
      <point x="86" y="711"/>
      <point x="163" y="711" type="curve" smooth="yes"/>
      <point x="220" y="711"/>
      <point x="258" y="673"/>
      <point x="258" y="574" type="curve" smooth="yes"/>
      <point x="258" y="426"/>
      <point x="154" y="349"/>
      <point x="154" y="188" type="curve" smooth="yes"/>
    </contour>
    <contour>
      <point x="146" y="0" type="line"/>
      <point x="193" y="0" type="line"/>
      <point x="193" y="55" type="line"/>
      <point x="146" y="55" type="line"/>
    </contour>
  </outline>
</glyph>
<glyph name="at" format="2">
  <advance width="626"/>
  <unicode hex="0040"/>
  <outline>
    <contour>
      <point x="319" y="-101" type="curve" smooth="yes"/>
      <point x="375" y="-101"/>
      <point x="443" y="-80"/>
      <point x="485" y="-32" type="curve"/>
      <point x="469" y="-14" type="line"/>
      <point x="432" y="-53"/>
      <point x="378" y="-76"/>
      <point x="318" y="-76" type="curve" smooth="yes"/>
      <point x="157" y="-76"/>
      <point x="66" y="98"/>
      <point x="66" y="314" type="curve" smooth="yes"/>
      <point x="66" y="552"/>
      <point x="166" y="713"/>
      <point x="322" y="713" type="curve" smooth="yes"/>
      <point x="465" y="713"/>
      <point x="561" y="569"/>
      <point x="561" y="365" type="curve" smooth="yes"/>
      <point x="561" y="229"/>
      <point x="522" y="129"/>
      <point x="465" y="129" type="curve" smooth="yes"/>
      <point x="429" y="129"/>
      <point x="413" y="167"/>
      <point x="416" y="245" type="curve" smooth="yes"/>
      <point x="427" y="504" type="line"/>
      <point x="405" y="504" type="line"/>
      <point x="399" y="408" type="line"/>
      <point x="396" y="408" type="line"/>
      <point x="385" y="478"/>
      <point x="353" y="516"/>
      <point x="313" y="516" type="curve" smooth="yes"/>
      <point x="247" y="516"/>
      <point x="203" y="423"/>
      <point x="203" y="293" type="curve" smooth="yes"/>
      <point x="203" y="163"/>
      <point x="250" y="106"/>
      <point x="302" y="106" type="curve" smooth="yes"/>
      <point x="338" y="106"/>
      <point x="377" y="140"/>
      <point x="394" y="225" type="curve"/>
      <point x="396" y="225" type="line"/>
      <point x="396" y="150"/>
      <point x="420" y="105"/>
      <point x="466" y="105" type="curve" smooth="yes"/>
      <point x="540" y="105"/>
      <point x="588" y="217"/>
      <point x="588" y="367" type="curve" smooth="yes"/>
      <point x="588" y="589"/>
      <point x="478" y="738"/>
      <point x="323" y="738" type="curve" smooth="yes"/>
      <point x="152" y="738"/>
      <point x="38" y="566"/>
      <point x="38" y="312" type="curve" smooth="yes"/>
      <point x="38" y="64"/>
      <point x="152" y="-101"/>
    </contour>
    <contour>
      <point x="305" y="132" type="curve" smooth="yes"/>
      <point x="259" y="132"/>
      <point x="229" y="186"/>
      <point x="229" y="296" type="curve" smooth="yes"/>
      <point x="229" y="411"/>
      <point x="261" y="493"/>
      <point x="317" y="493" type="curve" smooth="yes"/>
      <point x="363" y="493"/>
      <point x="393" y="433"/>
      <point x="395" y="323" type="curve"/>
      <point x="392" y="211"/>
      <point x="358" y="132"/>
    </contour>
  </outline>
</glyph>
<glyph name="A" format="2">
  <advance width="448"/>
  <unicode hex="0041"/>
  <note>
A
</note>
  <anchor x="376" y="0" name="#exit"/>
  <anchor x="224" y="0" name="bottom"/>
  <anchor x="408" y="0" name="ogonek"/>
  <anchor x="224" y="729" name="top"/>
  <outline>
    <contour>
      <point x="40" y="0" type="line"/>
      <point x="72" y="0" type="line"/>
      <point x="193" y="556" type="line"/>
      <point x="222" y="694" type="line"/>
      <point x="226" y="694" type="line"/>
      <point x="255" y="556" type="line"/>
      <point x="376" y="0" type="line"/>
      <point x="408" y="0" type="line"/>
      <point x="244" y="729" type="line"/>
      <point x="204" y="729" type="line"/>
    </contour>
    <contour>
      <point x="105" y="183" type="line"/>
      <point x="343" y="183" type="line"/>
      <point x="337" y="211" type="line"/>
      <point x="111" y="211" type="line"/>
    </contour>
  </outline>
</glyph>
<glyph name="B" format="2">
  <advance width="392"/>
  <unicode hex="0042"/>
  <note>
B
</note>
  <anchor x="182" y="0" name="bottom"/>
  <anchor x="182" y="729" name="top"/>
  <outline>
    <contour>
      <point x="72" y="0" type="line"/>
      <point x="178" y="0" type="line" smooth="yes"/>
      <point x="275" y="0"/>
      <point x="339" y="62"/>
      <point x="339" y="194" type="curve" smooth="yes"/>
      <point x="339" y="290"/>
      <point x="306" y="357"/>
      <point x="237" y="374" type="curve"/>
      <point x="237" y="378" type="line"/>
      <point x="298" y="398"/>
      <point x="333" y="448"/>
      <point x="333" y="552" type="curve" smooth="yes"/>
      <point x="333" y="659"/>
      <point x="291" y="729"/>
      <point x="184" y="729" type="curve" smooth="yes"/>
      <point x="72" y="729" type="line"/>
    </contour>
    <contour>
      <point x="103" y="28" type="line"/>
      <point x="103" y="701" type="line"/>
      <point x="189" y="701" type="line" smooth="yes"/>
      <point x="256" y="701"/>
      <point x="300" y="659"/>
      <point x="300" y="569" type="curve" smooth="yes"/>
      <point x="300" y="522" type="line" smooth="yes"/>
      <point x="300" y="442"/>
      <point x="260" y="390"/>
      <point x="189" y="390" type="curve" smooth="yes"/>
      <point x="95" y="390" type="line"/>
      <point x="95" y="362" type="line"/>
      <point x="186" y="362" type="line" smooth="yes"/>
      <point x="257" y="362"/>
      <point x="305" y="317"/>
      <point x="305" y="221" type="curve" smooth="yes"/>
      <point x="305" y="169" type="line" smooth="yes"/>
      <point x="305" y="84"/>
      <point x="262" y="28"/>
      <point x="186" y="28" type="curve" smooth="yes"/>
    </contour>
  </outline>
</glyph>
<glyph name="C" format="2">
  <advance width="426"/>
  <unicode hex="0043"/>
  <note>
C
</note>
  <anchor x="221" y="0" name="bottom"/>
  <anchor x="221" y="729" name="top"/>
  <outline>
    <contour>
      <point x="219" y="-6" type="curve" smooth="yes"/>
      <point x="333" y="-6"/>
      <point x="374" y="71"/>
      <point x="374" y="250" type="curve"/>
      <point x="343" y="250" type="line"/>
      <point x="345" y="88"/>
      <point x="314" y="22"/>
      <point x="219" y="22" type="curve" smooth="yes"/>
      <point x="145" y="22"/>
      <point x="95" y="57"/>
      <point x="95" y="197" type="curve" smooth="yes"/>
      <point x="95" y="532" type="line" smooth="yes"/>
      <point x="95" y="637"/>
      <point x="120" y="707"/>
      <point x="219" y="707" type="curve" smooth="yes"/>
      <point x="312" y="707"/>
      <point x="344" y="644"/>
      <point x="343" y="479" type="curve"/>
      <point x="374" y="479" type="line"/>
      <point x="374" y="655"/>
      <point x="335" y="735"/>
      <point x="219" y="735" type="curve" smooth="yes"/>
      <point x="126" y="735"/>
      <point x="64" y="688"/>
      <point x="64" y="532" type="curve" smooth="yes"/>
      <point x="64" y="197" type="line" smooth="yes"/>
      <point x="64" y="41"/>
      <point x="126" y="-6"/>
    </contour>
  </outline>
</glyph>
<glyph name="D" format="2">
  <advance width="427"/>
  <unicode hex="0044"/>
  <note>
D
</note>
  <anchor x="210" y="0" name="bottom"/>
  <anchor x="103" y="365" name="center"/>
  <anchor x="210" y="729" name="top"/>
  <outline>
    <contour>
      <point x="72" y="0" type="line"/>
      <point x="163" y="0" type="line" smooth="yes"/>
      <point x="300" y="0"/>
      <point x="368" y="57"/>
      <point x="368" y="272" type="curve" smooth="yes"/>
      <point x="368" y="457" type="line" smooth="yes"/>
      <point x="368" y="672"/>
      <point x="300" y="729"/>
      <point x="163" y="729" type="curve" smooth="yes"/>
      <point x="72" y="729" type="line"/>
    </contour>
    <contour>
      <point x="103" y="14" type="line"/>
      <point x="103" y="715" type="line"/>
      <point x="89" y="701" type="line"/>
      <point x="170" y="701" type="line" smooth="yes"/>
      <point x="311" y="701"/>
      <point x="337" y="619"/>
      <point x="337" y="476" type="curve" smooth="yes"/>
      <point x="337" y="253" type="line" smooth="yes"/>
      <point x="337" y="110"/>
      <point x="311" y="28"/>
      <point x="170" y="28" type="curve" smooth="yes"/>
      <point x="89" y="28" type="line"/>
    </contour>
  </outline>
</glyph>
<glyph name="E" format="2">
  <advance width="355"/>
  <unicode hex="0045"/>
  <note>
E
</note>
  <anchor x="72" y="0" name="#entry"/>
  <anchor x="174" y="0" name="bottom"/>
  <anchor x="315" y="0" name="ogonek"/>
  <anchor x="174" y="729" name="top"/>
  <anchor x="4" y="729" name="topleft"/>
  <outline>
    <contour>
      <point x="72" y="0" type="line"/>
      <point x="315" y="0" type="line"/>
      <point x="315" y="28" type="line"/>
      <point x="103" y="28" type="line"/>
      <point x="103" y="701" type="line"/>
      <point x="310" y="701" type="line"/>
      <point x="310" y="729" type="line"/>
      <point x="72" y="729" type="line"/>
    </contour>
    <contour>
      <point x="96" y="362" type="line"/>
      <point x="243" y="362" type="line"/>
      <point x="243" y="390" type="line"/>
      <point x="96" y="390" type="line"/>
    </contour>
  </outline>
</glyph>
<glyph name="F" format="2">
  <advance width="345"/>
  <unicode hex="0046"/>
  <note>
F
</note>
  <anchor x="155" y="0" name="bottom"/>
  <anchor x="155" y="729" name="top"/>
  <outline>
    <contour>
      <point x="72" y="0" type="line"/>
      <point x="103" y="0" type="line"/>
      <point x="103" y="701" type="line"/>
      <point x="306" y="701" type="line"/>
      <point x="306" y="729" type="line"/>
      <point x="72" y="729" type="line"/>
    </contour>
    <contour>
      <point x="96" y="361" type="line"/>
      <point x="289" y="361" type="line"/>
      <point x="289" y="389" type="line"/>
      <point x="96" y="389" type="line"/>
    </contour>
  </outline>
</glyph>
<glyph name="G" format="2">
  <advance width="432"/>
  <unicode hex="0047"/>
  <note>
G
</note>
  <anchor x="219" y="0" name="bottom"/>
  <anchor x="219" y="729" name="top"/>
  <outline>
    <contour>
      <point x="205" y="-6" type="curve" smooth="yes"/>
      <point x="264" y="-6"/>
      <point x="315" y="24"/>
      <point x="334" y="76" type="curve"/>
      <point x="338" y="76" type="line"/>
      <point x="342" y="0" type="line"/>
      <point x="367" y="0" type="line"/>
      <point x="367" y="362" type="line"/>
      <point x="214" y="362" type="line"/>
      <point x="214" y="334" type="line"/>
      <point x="336" y="334" type="line"/>
      <point x="336" y="119" type="line"/>
      <point x="321" y="64"/>
      <point x="276" y="21"/>
      <point x="211" y="21" type="curve" smooth="yes"/>
      <point x="138" y="21"/>
      <point x="95" y="75"/>
      <point x="95" y="156" type="curve" smooth="yes"/>
      <point x="95" y="572" type="line" smooth="yes"/>
      <point x="95" y="652"/>
      <point x="137" y="707"/>
      <point x="223" y="707" type="curve" smooth="yes"/>
      <point x="306" y="707"/>
      <point x="341" y="655"/>
      <point x="341" y="501" type="curve"/>
      <point x="372" y="501" type="line"/>
      <point x="372" y="661"/>
      <point x="328" y="735"/>
      <point x="221" y="735" type="curve" smooth="yes"/>
      <point x="114" y="735"/>
      <point x="64" y="661"/>
      <point x="64" y="544" type="curve" smooth="yes"/>
      <point x="64" y="184" type="line" smooth="yes"/>
      <point x="64" y="68"/>
      <point x="116" y="-6"/>
    </contour>
  </outline>
</glyph>
<glyph name="H" format="2">
  <advance width="445"/>
  <unicode hex="0048"/>
  <note>
H
</note>
  <anchor x="223" y="0" name="bottom"/>
  <anchor x="223" y="577" name="center"/>
  <anchor x="223" y="729" name="top"/>
  <anchor x="4" y="729" name="topleft"/>
  <outline>
    <contour>
      <point x="72" y="0" type="line"/>
      <point x="103" y="0" type="line"/>
      <point x="103" y="729" type="line"/>
      <point x="72" y="729" type="line"/>
    </contour>
    <contour>
      <point x="342" y="0" type="line"/>
      <point x="373" y="0" type="line"/>
      <point x="373" y="729" type="line"/>
      <point x="342" y="729" type="line"/>
    </contour>
    <contour>
      <point x="96" y="364" type="line"/>
      <point x="349" y="364" type="line"/>
      <point x="349" y="392" type="line"/>
      <point x="96" y="392" type="line"/>
    </contour>
  </outline>
</glyph>
<glyph name="I" format="2">
  <advance width="307"/>
  <unicode hex="0049"/>
  <note>
I
</note>
  <anchor x="154" y="0" name="bottom"/>
  <anchor x="264" y="0" name="ogonek"/>
  <anchor x="154" y="729" name="top"/>
  <anchor x="264" y="729" name="topleft"/>
  <outline>
    <contour>
      <point x="138" y="20" type="line"/>
      <point x="169" y="20" type="line"/>
      <point x="169" y="709" type="line"/>
      <point x="138" y="709" type="line"/>
    </contour>
    <contour>
      <point x="43" y="0" type="line"/>
      <point x="264" y="0" type="line"/>
      <point x="264" y="28" type="line"/>
      <point x="43" y="28" type="line"/>
    </contour>
    <contour>
      <point x="43" y="701" type="line"/>
      <point x="264" y="701" type="line"/>
      <point x="264" y="729" type="line"/>
      <point x="43" y="729" type="line"/>
    </contour>
  </outline>
</glyph>
<glyph name="J" format="2">
  <advance width="245"/>
  <unicode hex="004A"/>
  <note>
J
</note>
  <anchor x="136" y="0" name="bottom"/>
  <anchor x="158" y="729" name="top"/>
  <outline>
    <contour>
      <point x="38" y="0" type="line"/>
      <point x="110" y="0" type="line" smooth="yes"/>
      <point x="154" y="0"/>
      <point x="173" y="14"/>
      <point x="173" y="57" type="curve" smooth="yes"/>
      <point x="173" y="729" type="line"/>
      <point x="142" y="729" type="line"/>
      <point x="142" y="28" type="line"/>
      <point x="38" y="28" type="line"/>
    </contour>
  </outline>
</glyph>
<glyph name="K" format="2">
  <advance width="407"/>
  <unicode hex="004B"/>
  <note>
K
</note>
  <anchor x="188" y="0" name="bottom"/>
  <anchor x="188" y="729" name="top"/>
  <outline>
    <contour>
      <point x="72" y="0" type="line"/>
      <point x="103" y="0" type="line"/>
      <point x="103" y="253" type="line"/>
      <point x="181" y="391" type="line"/>
      <point x="333" y="0" type="line"/>
      <point x="367" y="0" type="line"/>
      <point x="199" y="419" type="line"/>
      <point x="366" y="729" type="line"/>
      <point x="334" y="729" type="line"/>
      <point x="103" y="301" type="line"/>
      <point x="103" y="729" type="line"/>
      <point x="72" y="729" type="line"/>
    </contour>
  </outline>
</glyph>
<glyph name="L" format="2">
  <advance width="346"/>
  <unicode hex="004C"/>
  <note>
L
</note>
  <anchor x="190" y="0" name="bottom"/>
  <anchor x="88" y="365" name="center"/>
  <anchor x="88" y="729" name="top"/>
  <anchor x="135" y="729" name="topright"/>
  <outline>
    <contour>
      <point x="72" y="0" type="line"/>
      <point x="307" y="0" type="line"/>
      <point x="307" y="28" type="line"/>
      <point x="103" y="28" type="line"/>
      <point x="103" y="729" type="line"/>
      <point x="72" y="729" type="line"/>
    </contour>
  </outline>
</glyph>
<glyph name="M" format="2">
  <advance width="523"/>
  <unicode hex="004D"/>
  <note>
M
</note>
  <anchor x="262" y="0" name="bottom"/>
  <anchor x="262" y="729" name="top"/>
  <outline>
    <contour>
      <point x="72" y="0" type="line"/>
      <point x="102" y="0" type="line"/>
      <point x="102" y="665" type="line"/>
      <point x="101" y="696" type="line"/>
      <point x="105" y="696" type="line"/>
      <point x="110" y="666" type="line"/>
      <point x="238" y="0" type="line"/>
      <point x="286" y="0" type="line"/>
      <point x="414" y="666" type="line"/>
      <point x="419" y="696" type="line"/>
      <point x="422" y="696" type="line"/>
      <point x="421" y="665" type="line"/>
      <point x="421" y="0" type="line"/>
      <point x="451" y="0" type="line"/>
      <point x="451" y="729" type="line"/>
      <point x="398" y="729" type="line"/>
      <point x="272" y="76" type="line"/>
      <point x="264" y="25" type="line"/>
      <point x="260" y="25" type="line"/>
      <point x="252" y="76" type="line"/>
      <point x="126" y="729" type="line"/>
      <point x="72" y="729" type="line"/>
    </contour>
  </outline>
</glyph>
<glyph name="N" format="2">
  <advance width="438"/>
  <unicode hex="004E"/>
  <note>
N
</note>
  <anchor x="219" y="0" name="bottom"/>
  <anchor x="219" y="729" name="top"/>
  <outline>
    <contour>
      <point x="72" y="0" type="line"/>
      <point x="102" y="0" type="line"/>
      <point x="102" y="695" type="line"/>
      <point x="104" y="695" type="line"/>
      <point x="113" y="664" type="line"/>
      <point x="315" y="0" type="line"/>
      <point x="366" y="0" type="line"/>
      <point x="366" y="729" type="line"/>
      <point x="336" y="729" type="line"/>
      <point x="336" y="36" type="line"/>
      <point x="333" y="36" type="line"/>
      <point x="326" y="62" type="line"/>
      <point x="123" y="729" type="line"/>
      <point x="72" y="729" type="line"/>
    </contour>
  </outline>
</glyph>
<glyph name="O" format="2">
  <advance width="434"/>
  <unicode hex="004F"/>
  <note>
O
</note>
  <anchor x="217" y="0" name="bottom"/>
  <anchor x="217" y="365" name="center"/>
  <anchor x="394" y="10" name="ogonek"/>
  <anchor x="217" y="729" name="top"/>
  <anchor x="16" y="729" name="topleft"/>
  <anchor x="300" y="709" name="topright"/>
  <outline>
    <contour>
      <point x="217" y="-6" type="curve" smooth="yes"/>
      <point x="318" y="-6"/>
      <point x="370" y="68"/>
      <point x="370" y="185" type="curve" smooth="yes"/>
      <point x="370" y="544" type="line" smooth="yes"/>
      <point x="370" y="661"/>
      <point x="318" y="735"/>
      <point x="217" y="735" type="curve" smooth="yes"/>
      <point x="116" y="735"/>
      <point x="64" y="661"/>
      <point x="64" y="544" type="curve" smooth="yes"/>
      <point x="64" y="185" type="line" smooth="yes"/>
      <point x="64" y="68"/>
      <point x="116" y="-6"/>
    </contour>
    <contour>
      <point x="217" y="22" type="curve" smooth="yes"/>
      <point x="140" y="22"/>
      <point x="95" y="76"/>
      <point x="95" y="157" type="curve" smooth="yes"/>
      <point x="95" y="572" type="line" smooth="yes"/>
      <point x="95" y="653"/>
      <point x="140" y="707"/>
      <point x="217" y="707" type="curve" smooth="yes"/>
      <point x="294" y="707"/>
      <point x="339" y="653"/>
      <point x="339" y="572" type="curve" smooth="yes"/>
      <point x="339" y="157" type="line" smooth="yes"/>
      <point x="339" y="76"/>
      <point x="294" y="22"/>
    </contour>
  </outline>
</glyph>
<glyph name="P" format="2">
  <advance width="386"/>
  <unicode hex="0050"/>
  <note>
P
</note>
  <anchor x="182" y="0" name="bottom"/>
  <anchor x="182" y="729" name="top"/>
  <outline>
    <contour>
      <point x="72" y="0" type="line"/>
      <point x="103" y="0" type="line"/>
      <point x="103" y="701" type="line"/>
      <point x="178" y="701" type="line" smooth="yes"/>
      <point x="272" y="701"/>
      <point x="308" y="644"/>
      <point x="308" y="558" type="curve" smooth="yes"/>
      <point x="308" y="506" type="line" smooth="yes"/>
      <point x="308" y="420"/>
      <point x="272" y="363"/>
      <point x="178" y="363" type="curve" smooth="yes"/>
      <point x="96" y="363" type="line"/>
      <point x="96" y="335" type="line"/>
      <point x="178" y="335" type="line" smooth="yes"/>
      <point x="280" y="335"/>
      <point x="339" y="390"/>
      <point x="339" y="532" type="curve" smooth="yes"/>
      <point x="339" y="674"/>
      <point x="280" y="729"/>
      <point x="178" y="729" type="curve" smooth="yes"/>
      <point x="72" y="729" type="line"/>
    </contour>
  </outline>
</glyph>
<glyph name="R" format="2">
  <advance width="391"/>
  <unicode hex="0052"/>
  <note>
R
</note>
  <anchor x="188" y="0" name="bottom"/>
  <anchor x="188" y="729" name="top"/>
  <outline>
    <contour>
      <point x="72" y="0" type="line"/>
      <point x="103" y="0" type="line"/>
      <point x="103" y="701" type="line"/>
      <point x="185" y="701" type="line" smooth="yes"/>
      <point x="257" y="701"/>
      <point x="305" y="655"/>
      <point x="305" y="558" type="curve" smooth="yes"/>
      <point x="305" y="506" type="line" smooth="yes"/>
      <point x="305" y="420"/>
      <point x="262" y="363"/>
      <point x="185" y="363" type="curve" smooth="yes"/>
      <point x="96" y="363" type="line"/>
      <point x="96" y="335" type="line"/>
      <point x="178" y="335" type="line"/>
      <point x="309" y="0" type="line"/>
      <point x="343" y="0" type="line"/>
      <point x="207" y="342" type="line"/>
      <point x="207" y="339" type="line"/>
      <point x="207" y="337" type="line"/>
      <point x="302" y="349"/>
      <point x="339" y="424"/>
      <point x="339" y="532" type="curve" smooth="yes"/>
      <point x="339" y="650"/>
      <point x="294" y="729"/>
      <point x="178" y="729" type="curve" smooth="yes"/>
      <point x="72" y="729" type="line"/>
    </contour>
  </outline>
</glyph>
<glyph name="S" format="2">
  <advance width="406"/>
  <unicode hex="0053"/>
  <note>
S
</note>
  <anchor x="202" y="0" name="bottom"/>
  <anchor x="202" y="729" name="top"/>
  <outline>
    <contour>
      <point x="207" y="-6" type="curve" smooth="yes"/>
      <point x="290" y="-6"/>
      <point x="352" y="47"/>
      <point x="352" y="164" type="curve" smooth="yes"/>
      <point x="352" y="274"/>
      <point x="302" y="324"/>
      <point x="237" y="365" type="curve" smooth="yes"/>
      <point x="191" y="394" type="line" smooth="yes"/>
      <point x="137" y="428"/>
      <point x="89" y="470"/>
      <point x="89" y="563" type="curve" smooth="yes"/>
      <point x="89" y="630"/>
      <point x="111" y="707"/>
      <point x="199" y="707" type="curve" smooth="yes"/>
      <point x="291" y="707"/>
      <point x="323" y="652"/>
      <point x="324" y="502" type="curve"/>
      <point x="355" y="502" type="line"/>
      <point x="353" y="656"/>
      <point x="316" y="735"/>
      <point x="199" y="735" type="curve" smooth="yes"/>
      <point x="115" y="735"/>
      <point x="59" y="680"/>
      <point x="59" y="565" type="curve" smooth="yes"/>
      <point x="59" y="452"/>
      <point x="114" y="407"/>
      <point x="171" y="371" type="curve" smooth="yes"/>
      <point x="217" y="342" type="line" smooth="yes"/>
      <point x="271" y="308"/>
      <point x="321" y="264"/>
      <point x="321" y="164" type="curve" smooth="yes"/>
      <point x="321" y="98"/>
      <point x="297" y="20"/>
      <point x="207" y="20" type="curve" smooth="yes"/>
      <point x="111" y="20"/>
      <point x="80" y="76"/>
      <point x="79" y="225" type="curve"/>
      <point x="49" y="225" type="line"/>
      <point x="51" y="66"/>
      <point x="89" y="-6"/>
    </contour>
  </outline>
</glyph>
<glyph name="T" format="2">
  <advance width="387"/>
  <unicode hex="0054"/>
  <note>
T
</note>
  <anchor x="194" y="0" name="bottom"/>
  <anchor x="194" y="365" name="center"/>
  <anchor x="194" y="729" name="top"/>
  <outline>
    <contour>
      <point x="178" y="0" type="line"/>
      <point x="209" y="0" type="line"/>
      <point x="209" y="701" type="line"/>
      <point x="349" y="701" type="line"/>
      <point x="349" y="729" type="line"/>
      <point x="38" y="729" type="line"/>
      <point x="38" y="701" type="line"/>
      <point x="178" y="701" type="line"/>
    </contour>
  </outline>
</glyph>
<glyph name="U" format="2">
  <advance width="442"/>
  <unicode hex="0055"/>
  <note>
U
</note>
  <anchor x="221" y="0" name="bottom"/>
  <anchor x="263" y="0" name="ogonek"/>
  <anchor x="221" y="729" name="top"/>
  <anchor x="359" y="729" name="topright"/>
  <outline>
    <contour>
      <point x="221" y="-6" type="curve" smooth="yes"/>
      <point x="322" y="-6"/>
      <point x="374" y="68"/>
      <point x="374" y="185" type="curve" smooth="yes"/>
      <point x="374" y="729" type="line"/>
      <point x="343" y="729" type="line"/>
      <point x="343" y="157" type="line" smooth="yes"/>
      <point x="343" y="76"/>
      <point x="298" y="22"/>
      <point x="221" y="22" type="curve" smooth="yes"/>
      <point x="144" y="22"/>
      <point x="99" y="76"/>
      <point x="99" y="157" type="curve" smooth="yes"/>
      <point x="99" y="729" type="line"/>
      <point x="68" y="729" type="line"/>
      <point x="68" y="185" type="line" smooth="yes"/>
      <point x="68" y="68"/>
      <point x="120" y="-6"/>
    </contour>
  </outline>
</glyph>
<glyph name="V" format="2">
  <advance width="418"/>
  <unicode hex="0056"/>
  <note>
V
</note>
  <anchor x="209" y="0" name="bottom"/>
  <anchor x="209" y="729" name="top"/>
  <outline>
    <contour>
      <point x="187" y="0" type="line"/>
      <point x="231" y="0" type="line"/>
      <point x="377" y="729" type="line"/>
      <point x="347" y="729" type="line"/>
      <point x="219" y="75" type="line"/>
      <point x="211" y="34" type="line"/>
      <point x="207" y="34" type="line"/>
      <point x="199" y="75" type="line"/>
      <point x="72" y="729" type="line"/>
      <point x="41" y="729" type="line"/>
    </contour>
  </outline>
</glyph>
<glyph name="W" format="2">
  <advance width="611"/>
  <unicode hex="0057"/>
  <note>
W
</note>
  <anchor x="306" y="0" name="bottom"/>
  <anchor x="306" y="729" name="top"/>
  <outline>
    <contour>
      <point x="143" y="0" type="line"/>
      <point x="190" y="0" type="line"/>
      <point x="287" y="589" type="line"/>
      <point x="303" y="690" type="line"/>
      <point x="306" y="690" type="line"/>
      <point x="322" y="589" type="line"/>
      <point x="419" y="0" type="line"/>
      <point x="468" y="0" type="line"/>
      <point x="568" y="729" type="line"/>
      <point x="537" y="729" type="line"/>
      <point x="478" y="287" type="line"/>
      <point x="445" y="35" type="line"/>
      <point x="441" y="35" type="line"/>
      <point x="435" y="77" type="line"/>
      <point x="329" y="729" type="line"/>
      <point x="281" y="729" type="line"/>
      <point x="175" y="70" type="line"/>
      <point x="170" y="35" type="line"/>
      <point x="166" y="35" type="line"/>
      <point x="133" y="287" type="line"/>
      <point x="74" y="729" type="line"/>
      <point x="43" y="729" type="line"/>
    </contour>
  </outline>
</glyph>
<glyph name="X" format="2">
  <advance width="430"/>
  <unicode hex="0058"/>
  <note>
X
</note>
  <anchor x="215" y="0" name="bottom"/>
  <anchor x="215" y="729" name="top"/>
  <outline>
    <contour>
      <point x="39" y="0" type="line"/>
      <point x="71" y="0" type="line"/>
      <point x="211" y="346" type="line"/>
      <point x="215" y="346" type="line"/>
      <point x="357" y="0" type="line"/>
      <point x="390" y="0" type="line"/>
      <point x="232" y="378" type="line"/>
      <point x="378" y="729" type="line"/>
      <point x="346" y="729" type="line"/>
      <point x="215" y="409" type="line"/>
      <point x="211" y="409" type="line"/>
      <point x="89" y="729" type="line"/>
      <point x="58" y="729" type="line"/>
      <point x="195" y="377" type="line"/>
    </contour>
  </outline>
</glyph>
<glyph name="Y" format="2">
  <advance width="421"/>
  <unicode hex="0059"/>
  <note>
Y
</note>
  <anchor x="211" y="0" name="bottom"/>
  <anchor x="211" y="729" name="top"/>
  <anchor x="15" y="729" name="topleft"/>
  <outline>
    <contour>
      <point x="195" y="0" type="line"/>
      <point x="226" y="0" type="line"/>
      <point x="226" y="289" type="line"/>
      <point x="382" y="729" type="line"/>
      <point x="350" y="729" type="line"/>
      <point x="255" y="458" type="line"/>
      <point x="212" y="329" type="line"/>
      <point x="208" y="329" type="line"/>
      <point x="165" y="458" type="line"/>
      <point x="71" y="729" type="line"/>
      <point x="39" y="729" type="line"/>
      <point x="195" y="289" type="line"/>
    </contour>
  </outline>
</glyph>
<glyph name="Z" format="2">
  <advance width="377"/>
  <unicode hex="005A"/>
  <note>
Z
</note>
  <anchor x="189" y="0" name="bottom"/>
  <anchor x="189" y="365" name="center"/>
  <anchor x="189" y="729" name="top"/>
  <outline>
    <contour>
      <point x="42" y="0" type="line"/>
      <point x="335" y="0" type="line"/>
      <point x="335" y="28" type="line"/>
      <point x="73" y="28" type="line"/>
      <point x="331" y="697" type="line"/>
      <point x="331" y="729" type="line"/>
      <point x="51" y="729" type="line"/>
      <point x="51" y="701" type="line"/>
      <point x="300" y="701" type="line"/>
      <point x="42" y="32" type="line"/>
    </contour>
  </outline>
</glyph>
<glyph name="backslash" format="2">
  <advance width="272"/>
  <unicode hex="005C"/>
  <outline>
    <contour>
      <point x="233" y="-82" type="line"/>
      <point x="262" y="-82" type="line"/>
      <point x="57" y="729" type="line"/>
      <point x="28" y="729" type="line"/>
    </contour>
  </outline>
</glyph>
<glyph name="asciicircum" format="2">
  <advance width="500"/>
  <unicode hex="005E"/>
  <outline>
    <contour>
      <point x="63" y="475" type="line"/>
      <point x="96" y="475" type="line"/>
      <point x="201" y="695" type="line"/>
      <point x="306" y="475" type="line"/>
      <point x="339" y="475" type="line"/>
      <point x="215" y="729" type="line"/>
      <point x="187" y="729" type="line"/>
    </contour>
  </outline>
</glyph>
<glyph name="underscore" format="2">
  <advance width="260"/>
  <unicode hex="005F"/>
  <outline>
    <contour>
      <point x="5" y="-25" type="line"/>
      <point x="255" y="-25" type="line"/>
      <point x="255" y="0" type="line"/>
      <point x="5" y="0" type="line"/>
    </contour>
  </outline>
</glyph>
<glyph name="a" format="2">
  <advance width="381"/>
  <unicode hex="0061"/>
  <note>
a
</note>
  <anchor x="189" y="0" name="bottom"/>
  <anchor x="321" y="0" name="ogonek"/>
  <anchor x="189" y="515" name="top"/>
  <outline>
    <contour>
      <point x="174" y="-6" type="curve" smooth="yes"/>
      <point x="228" y="-6"/>
      <point x="268" y="25"/>
      <point x="286" y="80" type="curve"/>
      <point x="290" y="80" type="line"/>
      <point x="294" y="0" type="line"/>
      <point x="321" y="0" type="line"/>
      <point x="321" y="515" type="line"/>
      <point x="294" y="515" type="line"/>
      <point x="290" y="435" type="line"/>
      <point x="286" y="435" type="line"/>
      <point x="268" y="490"/>
      <point x="228" y="521"/>
      <point x="174" y="521" type="curve" smooth="yes"/>
      <point x="92" y="521"/>
      <point x="51" y="452"/>
      <point x="51" y="358" type="curve" smooth="yes"/>
      <point x="51" y="157" type="line" smooth="yes"/>
      <point x="51" y="63"/>
      <point x="92" y="-6"/>
    </contour>
    <contour>
      <point x="176" y="21" type="curve" smooth="yes"/>
      <point x="122" y="21"/>
      <point x="82" y="59"/>
      <point x="82" y="140" type="curve" smooth="yes"/>
      <point x="82" y="375" type="line" smooth="yes"/>
      <point x="82" y="456"/>
      <point x="122" y="494"/>
      <point x="176" y="494" type="curve" smooth="yes"/>
      <point x="235" y="494"/>
      <point x="269" y="455"/>
      <point x="290" y="373" type="curve"/>
      <point x="290" y="142" type="line"/>
      <point x="269" y="60"/>
      <point x="235" y="21"/>
    </contour>
  </outline>
</glyph>
<glyph name="b" format="2">
  <advance width="381"/>
  <unicode hex="0062"/>
  <note>
b
</note>
  <anchor x="192" y="0" name="bottom"/>
  <anchor x="192" y="800" name="top"/>
  <outline>
    <contour>
      <point x="207" y="-6" type="curve" smooth="yes"/>
      <point x="289" y="-6"/>
      <point x="330" y="63"/>
      <point x="330" y="157" type="curve" smooth="yes"/>
      <point x="330" y="358" type="line" smooth="yes"/>
      <point x="330" y="452"/>
      <point x="289" y="521"/>
      <point x="207" y="521" type="curve" smooth="yes"/>
      <point x="153" y="521"/>
      <point x="113" y="490"/>
      <point x="95" y="435" type="curve"/>
      <point x="91" y="435" type="line"/>
      <point x="91" y="729" type="line"/>
      <point x="60" y="729" type="line"/>
      <point x="60" y="0" type="line"/>
      <point x="87" y="0" type="line"/>
      <point x="91" y="80" type="line"/>
      <point x="95" y="80" type="line"/>
      <point x="113" y="25"/>
      <point x="153" y="-6"/>
    </contour>
    <contour>
      <point x="205" y="21" type="curve" smooth="yes"/>
      <point x="146" y="21"/>
      <point x="112" y="60"/>
      <point x="91" y="142" type="curve"/>
      <point x="91" y="373" type="line"/>
      <point x="112" y="455"/>
      <point x="146" y="494"/>
      <point x="205" y="494" type="curve" smooth="yes"/>
      <point x="259" y="494"/>
      <point x="299" y="456"/>
      <point x="299" y="375" type="curve" smooth="yes"/>
      <point x="299" y="140" type="line" smooth="yes"/>
      <point x="299" y="59"/>
      <point x="259" y="21"/>
    </contour>
  </outline>
</glyph>
<glyph name="c" format="2">
  <advance width="366"/>
  <unicode hex="0063"/>
  <note>
c
</note>
  <anchor x="189" y="0" name="bottom"/>
  <anchor x="182" y="515" name="top"/>
  <outline>
    <contour>
      <point x="189" y="-6" type="curve" smooth="yes"/>
      <point x="286" y="-6"/>
      <point x="326" y="63"/>
      <point x="326" y="170" type="curve"/>
      <point x="297" y="170" type="line"/>
      <point x="297" y="57"/>
      <point x="254" y="21"/>
      <point x="189" y="21" type="curve" smooth="yes"/>
      <point x="120" y="21"/>
      <point x="81" y="69"/>
      <point x="81" y="140" type="curve" smooth="yes"/>
      <point x="81" y="375" type="line" smooth="yes"/>
      <point x="81" y="446"/>
      <point x="120" y="494"/>
      <point x="189" y="494" type="curve" smooth="yes"/>
      <point x="254" y="494"/>
      <point x="297" y="458"/>
      <point x="297" y="345" type="curve"/>
      <point x="326" y="345" type="line"/>
      <point x="326" y="452"/>
      <point x="286" y="521"/>
      <point x="189" y="521" type="curve" smooth="yes"/>
      <point x="97" y="521"/>
      <point x="50" y="455"/>
      <point x="50" y="348" type="curve" smooth="yes"/>
      <point x="50" y="167" type="line" smooth="yes"/>
      <point x="50" y="60"/>
      <point x="97" y="-6"/>
    </contour>
  </outline>
</glyph>
<glyph name="e" format="2">
  <advance width="371"/>
  <unicode hex="0065"/>
  <note>
e
</note>
  <anchor x="50" y="0" name="#entry"/>
  <anchor x="189" y="0" name="bottom"/>
  <anchor x="273" y="2" name="ogonek"/>
  <anchor x="189" y="515" name="top"/>
  <outline>
    <contour>
      <point x="189" y="-6" type="curve" smooth="yes"/>
      <point x="271" y="-6"/>
      <point x="327" y="42"/>
      <point x="327" y="160" type="curve"/>
      <point x="297" y="160" type="line"/>
      <point x="297" y="77"/>
      <point x="271" y="21"/>
      <point x="189" y="21" type="curve" smooth="yes"/>
      <point x="120" y="21"/>
      <point x="81" y="69"/>
      <point x="81" y="140" type="curve" smooth="yes"/>
      <point x="81" y="375" type="line" smooth="yes"/>
      <point x="81" y="446"/>
      <point x="120" y="494"/>
      <point x="189" y="494" type="curve" smooth="yes"/>
      <point x="258" y="494"/>
      <point x="297" y="446"/>
      <point x="297" y="375" type="curve" smooth="yes"/>
      <point x="297" y="266" type="line"/>
      <point x="311" y="280" type="line"/>
      <point x="74" y="280" type="line"/>
      <point x="74" y="253" type="line"/>
      <point x="328" y="253" type="line"/>
      <point x="328" y="348" type="line" smooth="yes"/>
      <point x="328" y="455"/>
      <point x="281" y="521"/>
      <point x="189" y="521" type="curve" smooth="yes"/>
      <point x="97" y="521"/>
      <point x="50" y="455"/>
      <point x="50" y="348" type="curve" smooth="yes"/>
      <point x="50" y="167" type="line" smooth="yes"/>
      <point x="50" y="60"/>
      <point x="97" y="-6"/>
    </contour>
  </outline>
</glyph>
<glyph name="f" format="2">
  <advance width="235"/>
  <unicode hex="0066"/>
  <note>
f
</note>
  <anchor x="120" y="0" name="bottom"/>
  <anchor x="120" y="800" name="top"/>
  <outline>
    <contour>
      <point x="97" y="0" type="line"/>
      <point x="128" y="0" type="line"/>
      <point x="128" y="488" type="line"/>
      <point x="208" y="488" type="line"/>
      <point x="208" y="515" type="line"/>
      <point x="128" y="515" type="line"/>
      <point x="128" y="700" type="line"/>
      <point x="208" y="700" type="line"/>
      <point x="208" y="729" type="line"/>
      <point x="131" y="729" type="line" smooth="yes"/>
      <point x="109" y="729"/>
      <point x="97" y="717"/>
      <point x="97" y="695" type="curve" smooth="yes"/>
      <point x="97" y="515" type="line"/>
      <point x="27" y="515" type="line"/>
      <point x="27" y="488" type="line"/>
      <point x="97" y="488" type="line"/>
    </contour>
  </outline>
</glyph>
<glyph name="g" format="2">
  <advance width="379"/>
  <unicode hex="0067"/>
  <note>
g
</note>
  <anchor x="189" y="-200" name="bottom"/>
  <anchor x="189" y="515" name="top"/>
  <outline>
    <contour>
      <point x="180" y="-172" type="curve" smooth="yes"/>
      <point x="262" y="-172"/>
      <point x="319" y="-126"/>
      <point x="319" y="-9" type="curve" smooth="yes"/>
      <point x="319" y="515" type="line"/>
      <point x="292" y="515" type="line"/>
      <point x="288" y="435" type="line"/>
      <point x="284" y="435" type="line"/>
      <point x="266" y="490"/>
      <point x="226" y="521"/>
      <point x="172" y="521" type="curve" smooth="yes"/>
      <point x="90" y="521"/>
      <point x="49" y="452"/>
      <point x="49" y="358" type="curve" smooth="yes"/>
      <point x="49" y="177" type="line" smooth="yes"/>
      <point x="49" y="83"/>
      <point x="90" y="14"/>
      <point x="172" y="14" type="curve" smooth="yes"/>
      <point x="226" y="14"/>
      <point x="266" y="45"/>
      <point x="284" y="100" type="curve"/>
      <point x="288" y="100" type="line"/>
      <point x="288" y="-29" type="line" smooth="yes"/>
      <point x="288" y="-99"/>
      <point x="254" y="-145"/>
      <point x="181" y="-145" type="curve" smooth="yes"/>
      <point x="122" y="-145"/>
      <point x="83" y="-117"/>
      <point x="83" y="-45" type="curve"/>
      <point x="53" y="-45" type="line"/>
      <point x="53" y="-121"/>
      <point x="100" y="-172"/>
    </contour>
    <contour>
      <point x="174" y="41" type="curve" smooth="yes"/>
      <point x="120" y="41"/>
      <point x="80" y="79"/>
      <point x="80" y="160" type="curve" smooth="yes"/>
      <point x="80" y="375" type="line" smooth="yes"/>
      <point x="80" y="456"/>
      <point x="120" y="494"/>
      <point x="174" y="494" type="curve" smooth="yes"/>
      <point x="233" y="494"/>
      <point x="267" y="455"/>
      <point x="288" y="373" type="curve"/>
      <point x="288" y="162" type="line"/>
      <point x="267" y="80"/>
      <point x="233" y="41"/>
    </contour>
  </outline>
</glyph>
<glyph name="h" format="2">
  <advance width="402"/>
  <unicode hex="0068"/>
  <note>
h
</note>
  <anchor x="200" y="0" name="bottom"/>
  <anchor x="91" y="611" name="center"/>
  <anchor x="76" y="729" name="top"/>
  <outline>
    <contour>
      <point x="60" y="0" type="line"/>
      <point x="91" y="0" type="line"/>
      <point x="91" y="375" type="line"/>
      <point x="111" y="446"/>
      <point x="149" y="494"/>
      <point x="216" y="494" type="curve" smooth="yes"/>
      <point x="278" y="494"/>
      <point x="315" y="454"/>
      <point x="315" y="375" type="curve" smooth="yes"/>
      <point x="315" y="0" type="line"/>
      <point x="346" y="0" type="line"/>
      <point x="346" y="360" type="line" smooth="yes"/>
      <point x="346" y="457"/>
      <point x="302" y="521"/>
      <point x="217" y="521" type="curve" smooth="yes"/>
      <point x="159" y="521"/>
      <point x="116" y="487"/>
      <point x="94" y="434" type="curve"/>
      <point x="91" y="434" type="line"/>
      <point x="91" y="729" type="line"/>
      <point x="60" y="729" type="line"/>
    </contour>
  </outline>
</glyph>
<glyph name="k" format="2">
  <advance width="372"/>
  <unicode hex="006B"/>
  <note>
k
</note>
  <anchor x="185" y="0" name="bottom"/>
  <anchor x="185" y="800" name="top"/>
  <outline>
    <contour>
      <point x="60" y="0" type="line"/>
      <point x="91" y="0" type="line"/>
      <point x="91" y="729" type="line"/>
      <point x="60" y="729" type="line"/>
    </contour>
    <contour>
      <point x="309" y="0" type="line"/>
      <point x="344" y="0" type="line"/>
      <point x="180" y="312" type="line"/>
      <point x="155" y="296" type="line"/>
    </contour>
    <contour>
      <point x="85" y="162" type="line"/>
      <point x="170" y="287" type="line"/>
      <point x="174" y="291" type="line"/>
      <point x="326" y="515" type="line"/>
      <point x="291" y="515" type="line"/>
      <point x="85" y="206" type="line"/>
    </contour>
  </outline>
</glyph>
<glyph name="l" format="2">
  <advance width="151"/>
  <unicode hex="006C"/>
  <note>
l
</note>
  <anchor x="75" y="0" name="bottom"/>
  <anchor x="76" y="365" name="center"/>
  <anchor x="76" y="729" name="top"/>
  <anchor x="91" y="729" name="topright"/>
  <outline>
    <contour>
      <point x="60" y="0" type="line"/>
      <point x="91" y="0" type="line"/>
      <point x="91" y="729" type="line"/>
      <point x="60" y="729" type="line"/>
    </contour>
  </outline>
</glyph>
<glyph name="m" format="2">
  <advance width="657"/>
  <unicode hex="006D"/>
  <note>
m
</note>
  <anchor x="328" y="0" name="bottom"/>
  <anchor x="328" y="515" name="top"/>
  <outline>
    <contour>
      <point x="60" y="0" type="line"/>
      <point x="91" y="0" type="line"/>
      <point x="91" y="371" type="line"/>
      <point x="108" y="443"/>
      <point x="145" y="494"/>
      <point x="216" y="494" type="curve" smooth="yes"/>
      <point x="278" y="494"/>
      <point x="315" y="454"/>
      <point x="315" y="375" type="curve" smooth="yes"/>
      <point x="315" y="0" type="line"/>
      <point x="346" y="0" type="line"/>
      <point x="346" y="345" type="line" smooth="yes"/>
      <point x="346" y="353"/>
      <point x="346" y="362"/>
      <point x="346" y="370" type="curve"/>
      <point x="363" y="443"/>
      <point x="400" y="494"/>
      <point x="471" y="494" type="curve" smooth="yes"/>
      <point x="533" y="494"/>
      <point x="570" y="454"/>
      <point x="570" y="375" type="curve" smooth="yes"/>
      <point x="570" y="0" type="line"/>
      <point x="601" y="0" type="line"/>
      <point x="601" y="360" type="line" smooth="yes"/>
      <point x="601" y="456"/>
      <point x="557" y="521"/>
      <point x="471" y="521" type="curve" smooth="yes"/>
      <point x="408" y="521"/>
      <point x="365" y="483"/>
      <point x="343" y="427" type="curve"/>
      <point x="337" y="427" type="line"/>
      <point x="321" y="485"/>
      <point x="280" y="521"/>
      <point x="216" y="521" type="curve" smooth="yes"/>
      <point x="157" y="521"/>
      <point x="116" y="487"/>
      <point x="94" y="435" type="curve"/>
      <point x="90" y="435" type="line"/>
      <point x="87" y="515" type="line"/>
      <point x="60" y="515" type="line"/>
    </contour>
  </outline>
</glyph>
<glyph name="o" format="2">
  <advance width="378"/>
  <unicode hex="006F"/>
  <note>
o
</note>
  <anchor x="297" y="0" name="#exit"/>
  <anchor x="189" y="0" name="bottom"/>
  <anchor x="189" y="258" name="center"/>
  <anchor x="349" y="10" name="ogonek"/>
  <anchor x="189" y="515" name="top"/>
  <anchor x="259" y="495" name="topright"/>
  <outline>
    <contour>
      <point x="189" y="-6" type="curve" smooth="yes"/>
      <point x="281" y="-6"/>
      <point x="328" y="60"/>
      <point x="328" y="167" type="curve" smooth="yes"/>
      <point x="328" y="348" type="line" smooth="yes"/>
      <point x="328" y="455"/>
      <point x="281" y="521"/>
      <point x="189" y="521" type="curve" smooth="yes"/>
      <point x="97" y="521"/>
      <point x="50" y="455"/>
      <point x="50" y="348" type="curve" smooth="yes"/>
      <point x="50" y="167" type="line" smooth="yes"/>
      <point x="50" y="60"/>
      <point x="97" y="-6"/>
    </contour>
    <contour>
      <point x="189" y="21" type="curve" smooth="yes"/>
      <point x="120" y="21"/>
      <point x="81" y="69"/>
      <point x="81" y="140" type="curve" smooth="yes"/>
      <point x="81" y="375" type="line" smooth="yes"/>
      <point x="81" y="446"/>
      <point x="120" y="494"/>
      <point x="189" y="494" type="curve" smooth="yes"/>
      <point x="258" y="494"/>
      <point x="297" y="446"/>
      <point x="297" y="375" type="curve" smooth="yes"/>
      <point x="297" y="140" type="line" smooth="yes"/>
      <point x="297" y="69"/>
      <point x="258" y="21"/>
    </contour>
  </outline>
</glyph>
<glyph name="r" format="2">
  <advance width="235"/>
  <unicode hex="0072"/>
  <note>
r
</note>
  <anchor x="76" y="0" name="bottom"/>
  <anchor x="98" y="515" name="top"/>
  <outline>
    <contour>
      <point x="60" y="0" type="line"/>
      <point x="91" y="0" type="line"/>
      <point x="91" y="383" type="line"/>
      <point x="121" y="454"/>
      <point x="148" y="488"/>
      <point x="193" y="488" type="curve" smooth="yes"/>
      <point x="208" y="488" type="line"/>
      <point x="205" y="520" type="line"/>
      <point x="193" y="520" type="line" smooth="yes"/>
      <point x="154" y="520"/>
      <point x="119" y="495"/>
      <point x="95" y="431" type="curve"/>
      <point x="91" y="431" type="line"/>
      <point x="87" y="515" type="line"/>
      <point x="60" y="515" type="line"/>
    </contour>
  </outline>
</glyph>
<glyph name="s" format="2">
  <advance width="333"/>
  <unicode hex="0073"/>
  <note>
s
</note>
  <anchor x="157" y="0" name="bottom"/>
  <anchor x="157" y="515" name="top"/>
  <outline>
    <contour>
      <point x="167" y="-6" type="curve" smooth="yes"/>
      <point x="240" y="-6"/>
      <point x="293" y="38"/>
      <point x="293" y="120" type="curve" smooth="yes"/>
      <point x="293" y="214"/>
      <point x="234" y="247"/>
      <point x="180" y="275" type="curve" smooth="yes"/>
      <point x="157" y="287" type="line" smooth="yes"/>
      <point x="113" y="310"/>
      <point x="81" y="337"/>
      <point x="81" y="398" type="curve" smooth="yes"/>
      <point x="81" y="457"/>
      <point x="111" y="494"/>
      <point x="166" y="494" type="curve" smooth="yes"/>
      <point x="234" y="494"/>
      <point x="257" y="455"/>
      <point x="260" y="379" type="curve"/>
      <point x="290" y="379" type="line"/>
      <point x="289" y="459"/>
      <point x="256" y="521"/>
      <point x="166" y="521" type="curve" smooth="yes"/>
      <point x="96" y="521"/>
      <point x="49" y="472"/>
      <point x="49" y="396" type="curve" smooth="yes"/>
      <point x="49" y="311"/>
      <point x="106" y="279"/>
      <point x="158" y="252" type="curve" smooth="yes"/>
      <point x="181" y="240" type="line" smooth="yes"/>
      <point x="227" y="216"/>
      <point x="262" y="186"/>
      <point x="262" y="120" type="curve" smooth="yes"/>
      <point x="262" y="63"/>
      <point x="234" y="21"/>
      <point x="167" y="21" type="curve" smooth="yes"/>
      <point x="104" y="21"/>
      <point x="67" y="58"/>
      <point x="67" y="150" type="curve"/>
      <point x="37" y="150" type="line"/>
      <point x="37" y="57"/>
      <point x="78" y="-6"/>
    </contour>
  </outline>
</glyph>
<glyph name="t" format="2">
  <advance width="250"/>
  <unicode hex="0074"/>
  <note>
t
</note>
  <anchor x="164" y="0" name="bottom"/>
  <anchor x="124" y="258" name="center"/>
  <anchor x="121" y="515" name="top"/>
  <anchor x="122" y="729" name="topright"/>
  <outline>
    <contour>
      <point x="137" y="0" type="curve" smooth="yes"/>
      <point x="220" y="0" type="line"/>
      <point x="220" y="29" type="line"/>
      <point x="134" y="29" type="line"/>
      <point x="134" y="669" type="line"/>
      <point x="103" y="669" type="line"/>
      <point x="103" y="34" type="line" smooth="yes"/>
      <point x="103" y="12"/>
      <point x="115" y="0"/>
    </contour>
    <contour>
      <point x="27" y="488" type="line"/>
      <point x="220" y="488" type="line"/>
      <point x="220" y="515" type="line"/>
      <point x="27" y="515" type="line"/>
    </contour>
  </outline>
</glyph>
<glyph name="v" format="2">
  <advance width="346"/>
  <unicode hex="0076"/>
  <note>
v
</note>
  <anchor x="173" y="0" name="bottom"/>
  <anchor x="173" y="515" name="top"/>
  <outline>
    <contour>
      <point x="155" y="0" type="line"/>
      <point x="195" y="0" type="line"/>
      <point x="316" y="515" type="line"/>
      <point x="286" y="515" type="line"/>
      <point x="184" y="70" type="line"/>
      <point x="176" y="27" type="line"/>
      <point x="172" y="27" type="line"/>
      <point x="164" y="70" type="line"/>
      <point x="61" y="515" type="line"/>
      <point x="30" y="515" type="line"/>
    </contour>
  </outline>
</glyph>
<glyph name="w" format="2">
  <advance width="524"/>
  <unicode hex="0077"/>
  <note>
w
</note>
  <anchor x="262" y="0" name="bottom"/>
  <anchor x="262" y="515" name="top"/>
  <outline>
    <contour>
      <point x="129" y="0" type="line"/>
      <point x="175" y="0" type="line"/>
      <point x="256" y="452" type="line"/>
      <point x="261" y="478" type="line"/>
      <point x="265" y="478" type="line"/>
      <point x="269" y="452" type="line"/>
      <point x="351" y="0" type="line"/>
      <point x="397" y="0" type="line"/>
      <point x="493" y="515" type="line"/>
      <point x="462" y="515" type="line"/>
      <point x="381" y="62" type="line"/>
      <point x="376" y="36" type="line"/>
      <point x="372" y="36" type="line"/>
      <point x="367" y="62" type="line"/>
      <point x="284" y="515" type="line"/>
      <point x="242" y="515" type="line"/>
      <point x="158" y="62" type="line"/>
      <point x="154" y="36" type="line"/>
      <point x="150" y="36" type="line"/>
      <point x="145" y="62" type="line"/>
      <point x="64" y="515" type="line"/>
      <point x="31" y="515" type="line"/>
    </contour>
  </outline>
</glyph>
<glyph name="x" format="2">
  <advance width="351"/>
  <unicode hex="0078"/>
  <note>
x
</note>
  <anchor x="176" y="0" name="bottom"/>
  <anchor x="176" y="515" name="top"/>
  <outline>
    <contour>
      <point x="29" y="0" type="line"/>
      <point x="60" y="0" type="line"/>
      <point x="174" y="244" type="line"/>
      <point x="177" y="244" type="line"/>
      <point x="291" y="0" type="line"/>
      <point x="322" y="0" type="line"/>
      <point x="192" y="270" type="line"/>
      <point x="316" y="515" type="line"/>
      <point x="283" y="515" type="line"/>
      <point x="177" y="292" type="line"/>
      <point x="174" y="292" type="line"/>
      <point x="68" y="515" type="line"/>
      <point x="35" y="515" type="line"/>
      <point x="158" y="270" type="line"/>
    </contour>
  </outline>
</glyph>
<glyph name="y" format="2">
  <advance width="348"/>
  <unicode hex="0079"/>
  <note>
y
</note>
  <anchor x="264" y="0" name="bottom"/>
  <anchor x="174" y="515" name="top"/>
  <outline>
    <contour>
      <point x="52" y="-168" type="line"/>
      <point x="154" y="-168" type="line" smooth="yes"/>
      <point x="176" y="-168"/>
      <point x="189" y="-156"/>
      <point x="189" y="-132" type="curve" smooth="yes"/>
      <point x="189" y="24" type="line"/>
      <point x="319" y="515" type="line"/>
      <point x="287" y="515" type="line"/>
      <point x="185" y="115" type="line"/>
      <point x="176" y="72" type="line"/>
      <point x="172" y="72" type="line"/>
      <point x="163" y="115" type="line"/>
      <point x="62" y="515" type="line"/>
      <point x="29" y="515" type="line"/>
      <point x="158" y="27" type="line"/>
      <point x="158" y="-140" type="line"/>
      <point x="52" y="-140" type="line"/>
    </contour>
  </outline>
</glyph>
<glyph name="z" format="2">
  <advance width="309"/>
  <unicode hex="007A"/>
  <note>
z
</note>
  <anchor x="153" y="0" name="bottom"/>
  <anchor x="153" y="258" name="center"/>
  <anchor x="153" y="515" name="top"/>
  <outline>
    <contour>
      <point x="31" y="0" type="line"/>
      <point x="278" y="0" type="line"/>
      <point x="278" y="27" type="line"/>
      <point x="65" y="27" type="line"/>
      <point x="274" y="490" type="line"/>
      <point x="274" y="515" type="line"/>
      <point x="39" y="515" type="line"/>
      <point x="39" y="488" type="line"/>
      <point x="241" y="488" type="line"/>
      <point x="31" y="24" type="line"/>
    </contour>
  </outline>
</glyph>
<glyph name="braceleft" format="2">
  <advance width="299"/>
  <unicode hex="007B"/>
  <outline>
    <contour>
      <point x="160" y="-167" type="curve" smooth="yes"/>
      <point x="260" y="-167" type="line"/>
      <point x="260" y="-140" type="line"/>
      <point x="153" y="-140" type="line"/>
      <point x="153" y="210" type="line" smooth="yes"/>
      <point x="153" y="269"/>
      <point x="119" y="310"/>
      <point x="84" y="311" type="curve"/>
      <point x="84" y="315" type="line"/>
      <point x="119" y="316"/>
      <point x="153" y="357"/>
      <point x="153" y="416" type="curve" smooth="yes"/>
      <point x="153" y="766" type="line"/>
      <point x="260" y="766" type="line"/>
      <point x="260" y="793" type="line"/>
      <point x="160" y="793" type="line" smooth="yes"/>
      <point x="135" y="793"/>
      <point x="123" y="777"/>
      <point x="123" y="754" type="curve" smooth="yes"/>
      <point x="123" y="415" type="line" smooth="yes"/>
      <point x="123" y="359"/>
      <point x="91" y="329"/>
      <point x="60" y="329" type="curve" smooth="yes"/>
      <point x="39" y="329" type="line"/>
      <point x="39" y="297" type="line"/>
      <point x="60" y="297" type="line" smooth="yes"/>
      <point x="91" y="297"/>
      <point x="123" y="267"/>
      <point x="123" y="211" type="curve" smooth="yes"/>
      <point x="123" y="-128" type="line" smooth="yes"/>
      <point x="123" y="-151"/>
      <point x="135" y="-167"/>
    </contour>
  </outline>
</glyph>
<glyph name="bar" format="2">
  <advance width="268"/>
  <unicode hex="007C"/>
  <outline>
    <contour>
      <point x="119" y="-67" type="line"/>
      <point x="149" y="-67" type="line"/>
      <point x="149" y="729" type="line"/>
      <point x="119" y="729" type="line"/>
    </contour>
  </outline>
</glyph>
<glyph name="asciitilde" format="2">
  <advance width="400"/>
  <unicode hex="007E"/>
  <outline>
    <contour>
      <point x="64" y="319" type="curve"/>
      <point x="84" y="319" type="line"/>
      <point x="81" y="360"/>
      <point x="87" y="384"/>
      <point x="121" y="384" type="curve" smooth="yes"/>
      <point x="159" y="384"/>
      <point x="230" y="320"/>
      <point x="279" y="320" type="curve" smooth="yes"/>
      <point x="323" y="320"/>
      <point x="346" y="351"/>
      <point x="336" y="411" type="curve"/>
      <point x="316" y="411" type="line"/>
      <point x="319" y="370"/>
      <point x="313" y="346"/>
      <point x="279" y="346" type="curve" smooth="yes"/>
      <point x="241" y="346"/>
      <point x="170" y="410"/>
      <point x="121" y="410" type="curve" smooth="yes"/>
      <point x="77" y="410"/>
      <point x="54" y="379"/>
    </contour>
  </outline>
</glyph>
<glyph name="cent" format="2">
  <advance width="389"/>
  <unicode hex="00A2"/>
  <anchor x="199" y="107" name="bottom"/>
  <anchor x="192" y="622" name="top"/>
  <outline>
    <contour>
      <point x="184" y="615" type="line"/>
      <point x="212" y="615" type="line"/>
      <point x="212" y="729" type="line"/>
      <point x="184" y="729" type="line"/>
    </contour>
    <contour>
      <point x="184" y="0" type="line"/>
      <point x="212" y="0" type="line"/>
      <point x="212" y="114" type="line"/>
      <point x="184" y="114" type="line"/>
    </contour>
    <contour>
      <point x="199" y="101" type="curve" smooth="yes"/>
      <point x="296" y="101"/>
      <point x="336" y="170"/>
      <point x="336" y="277" type="curve"/>
      <point x="307" y="277" type="line"/>
      <point x="307" y="164"/>
      <point x="264" y="128"/>
      <point x="199" y="128" type="curve" smooth="yes"/>
      <point x="130" y="128"/>
      <point x="91" y="176"/>
      <point x="91" y="247" type="curve" smooth="yes"/>
      <point x="91" y="482" type="line" smooth="yes"/>
      <point x="91" y="553"/>
      <point x="130" y="601"/>
      <point x="199" y="601" type="curve" smooth="yes"/>
      <point x="264" y="601"/>
      <point x="307" y="565"/>
      <point x="307" y="452" type="curve"/>
      <point x="336" y="452" type="line"/>
      <point x="336" y="559"/>
      <point x="296" y="628"/>
      <point x="199" y="628" type="curve" smooth="yes"/>
      <point x="107" y="628"/>
      <point x="60" y="562"/>
      <point x="60" y="455" type="curve" smooth="yes"/>
      <point x="60" y="274" type="line" smooth="yes"/>
      <point x="60" y="167"/>
      <point x="107" y="101"/>
    </contour>
  </outline>
</glyph>
<glyph name="sterling" format="2">
  <advance width="486"/>
  <unicode hex="00A3"/>
  <outline>
    <contour>
      <point x="47" y="0" type="line"/>
      <point x="425" y="0" type="line"/>
      <point x="425" y="177" type="line"/>
      <point x="394" y="177" type="line"/>
      <point x="394" y="29" type="line"/>
      <point x="146" y="29" type="line"/>
      <point x="146" y="350" type="line"/>
      <point x="323" y="350" type="line"/>
      <point x="323" y="379" type="line"/>
      <point x="146" y="379" type="line"/>
      <point x="146" y="539" type="line" smooth="yes"/>
      <point x="146" y="639"/>
      <point x="181" y="706"/>
      <point x="268" y="706" type="curve" smooth="yes"/>
      <point x="345" y="706"/>
      <point x="396" y="658"/>
      <point x="396" y="539" type="curve" smooth="yes"/>
      <point x="396" y="509" type="line"/>
      <point x="428" y="509" type="line"/>
      <point x="428" y="539" type="line" smooth="yes"/>
      <point x="428" y="657"/>
      <point x="377" y="736"/>
      <point x="268" y="736" type="curve" smooth="yes"/>
      <point x="176" y="736"/>
      <point x="114" y="674"/>
      <point x="114" y="539" type="curve" smooth="yes"/>
      <point x="114" y="379" type="line"/>
      <point x="47" y="372" type="line"/>
      <point x="47" y="350" type="line"/>
      <point x="114" y="350" type="line"/>
      <point x="114" y="29" type="line"/>
      <point x="47" y="29" type="line"/>
    </contour>
  </outline>
</glyph>
<glyph name="currency" format="2">
  <advance width="627"/>
  <unicode hex="00A4"/>
  <outline>
    <contour>
      <point x="137" y="156" type="line"/>
      <point x="221" y="245" type="line"/>
      <point x="247" y="225"/>
      <point x="279" y="214"/>
      <point x="314" y="214" type="curve" smooth="yes"/>
      <point x="350" y="214"/>
      <point x="381" y="226"/>
      <point x="404" y="246" type="curve"/>
      <point x="491" y="156" type="line"/>
      <point x="512" y="176" type="line"/>
      <point x="426" y="266" type="line"/>
      <point x="444" y="286"/>
      <point x="459" y="319"/>
      <point x="459" y="360" type="curve" smooth="yes"/>
      <point x="459" y="397"/>
      <point x="448" y="429"/>
      <point x="427" y="457" type="curve"/>
      <point x="511" y="545" type="line"/>
      <point x="491" y="566" type="line"/>
      <point x="404" y="477" type="line"/>
      <point x="380" y="497"/>
      <point x="348" y="507"/>
      <point x="314" y="507" type="curve" smooth="yes"/>
      <point x="279" y="507"/>
      <point x="247" y="496"/>
      <point x="222" y="477" type="curve"/>
      <point x="137" y="566" type="line"/>
      <point x="115" y="545" type="line"/>
      <point x="200" y="457" type="line"/>
      <point x="179" y="431"/>
      <point x="167" y="396"/>
      <point x="167" y="360" type="curve" smooth="yes"/>
      <point x="167" y="328"/>
      <point x="177" y="292"/>
      <point x="199" y="266" type="curve"/>
      <point x="115" y="176" type="line"/>
    </contour>
    <contour>
      <point x="314" y="243" type="curve" smooth="yes"/>
      <point x="247" y="243"/>
      <point x="197" y="293"/>
      <point x="197" y="360" type="curve" smooth="yes"/>
      <point x="197" y="428"/>
      <point x="246" y="478"/>
      <point x="314" y="478" type="curve" smooth="yes"/>
      <point x="379" y="478"/>
      <point x="428" y="429"/>
      <point x="428" y="360" type="curve" smooth="yes"/>
      <point x="428" y="292"/>
      <point x="379" y="243"/>
    </contour>
  </outline>
</glyph>
<glyph name="brokenbar" format="2">
  <advance width="268"/>
  <unicode hex="00A6"/>
  <outline>
    <contour>
      <point x="119" y="419" type="line"/>
      <point x="149" y="419" type="line"/>
      <point x="149" y="729" type="line"/>
      <point x="119" y="729" type="line"/>
    </contour>
    <contour>
      <point x="119" y="-67" type="line"/>
      <point x="149" y="-67" type="line"/>
      <point x="149" y="243" type="line"/>
      <point x="119" y="243" type="line"/>
    </contour>
  </outline>
</glyph>
<glyph name="section" format="2">
  <advance width="337"/>
  <unicode hex="00A7"/>
  <outline>
    <contour>
      <point x="171" y="-10" type="curve" smooth="yes"/>
      <point x="235" y="-10"/>
      <point x="279" y="35"/>
      <point x="279" y="117" type="curve" smooth="yes"/>
      <point x="279" y="174"/>
      <point x="262" y="209"/>
      <point x="235" y="237" type="curve"/>
      <point x="257" y="263"/>
      <point x="269" y="298"/>
      <point x="269" y="331" type="curve" smooth="yes"/>
      <point x="269" y="421"/>
      <point x="232" y="459"/>
      <point x="182" y="493" type="curve" smooth="yes"/>
      <point x="136" y="524"/>
      <point x="96" y="554"/>
      <point x="96" y="623" type="curve" smooth="yes"/>
      <point x="96" y="675"/>
      <point x="113" y="710"/>
      <point x="165" y="710" type="curve" smooth="yes"/>
      <point x="224" y="710"/>
      <point x="243" y="663"/>
      <point x="245" y="580" type="curve"/>
      <point x="273" y="580" type="line"/>
      <point x="274" y="702"/>
      <point x="229" y="739"/>
      <point x="166" y="739" type="curve" smooth="yes"/>
      <point x="109" y="739"/>
      <point x="67" y="707"/>
      <point x="67" y="624" type="curve" smooth="yes"/>
      <point x="67" y="566"/>
      <point x="87" y="532"/>
      <point x="117" y="503" type="curve"/>
      <point x="92" y="479"/>
      <point x="77" y="444"/>
      <point x="77" y="410" type="curve" smooth="yes"/>
      <point x="77" y="329"/>
      <point x="110" y="290"/>
      <point x="158" y="257" type="curve" smooth="yes"/>
      <point x="207" y="223"/>
      <point x="250" y="192"/>
      <point x="250" y="118" type="curve" smooth="yes"/>
      <point x="250" y="59"/>
      <point x="225" y="19"/>
      <point x="171" y="19" type="curve" smooth="yes"/>
      <point x="103" y="19"/>
      <point x="81" y="77"/>
      <point x="81" y="160" type="curve"/>
      <point x="53" y="160" type="line"/>
      <point x="53" y="38"/>
      <point x="102" y="-10"/>
    </contour>
    <contour>
      <point x="214" y="255" type="curve"/>
      <point x="205" y="262"/>
      <point x="193" y="271"/>
      <point x="182" y="279" type="curve" smooth="yes"/>
      <point x="140" y="308"/>
      <point x="106" y="340"/>
      <point x="106" y="409" type="curve" smooth="yes"/>
      <point x="106" y="436"/>
      <point x="118" y="464"/>
      <point x="138" y="486" type="curve"/>
      <point x="143" y="482"/>
      <point x="151" y="476"/>
      <point x="158" y="471" type="curve" smooth="yes"/>
      <point x="203" y="439"/>
      <point x="240" y="406"/>
      <point x="240" y="332" type="curve" smooth="yes"/>
      <point x="240" y="303"/>
      <point x="230" y="276"/>
    </contour>
  </outline>
</glyph>
<glyph name="ordfeminine" format="2">
  <advance width="235"/>
  <unicode hex="00AA"/>
  <outline>
    <contour>
      <point x="98" y="385" type="curve" smooth="yes"/>
      <point x="133" y="385"/>
      <point x="161" y="407"/>
      <point x="168" y="444" type="curve"/>
      <point x="171" y="444" type="line"/>
      <point x="171" y="392" type="line"/>
      <point x="198" y="392" type="line"/>
      <point x="198" y="637" type="line" smooth="yes"/>
      <point x="198" y="704"/>
      <point x="170" y="735"/>
      <point x="115" y="735" type="curve" smooth="yes"/>
      <point x="64" y="735"/>
      <point x="29" y="703"/>
      <point x="29" y="640" type="curve"/>
      <point x="56" y="640" type="line"/>
      <point x="55" y="682"/>
      <point x="75" y="710"/>
      <point x="113" y="710" type="curve" smooth="yes"/>
      <point x="149" y="710"/>
      <point x="169" y="691"/>
      <point x="169" y="637" type="curve" smooth="yes"/>
      <point x="169" y="569" type="line"/>
      <point x="186" y="586" type="line"/>
      <point x="120" y="586" type="line" smooth="yes"/>
      <point x="44" y="586"/>
      <point x="23" y="532"/>
      <point x="23" y="491" type="curve" smooth="yes"/>
      <point x="23" y="475" type="line" smooth="yes"/>
      <point x="23" y="418"/>
      <point x="49" y="385"/>
    </contour>
    <contour>
      <point x="108" y="410" type="curve" smooth="yes"/>
      <point x="75" y="410"/>
      <point x="52" y="427"/>
      <point x="52" y="476" type="curve" smooth="yes"/>
      <point x="52" y="490" type="line" smooth="yes"/>
      <point x="52" y="538"/>
      <point x="76" y="564"/>
      <point x="126" y="564" type="curve" smooth="yes"/>
      <point x="169" y="564" type="line"/>
      <point x="169" y="499" type="line" smooth="yes"/>
      <point x="169" y="448"/>
      <point x="149" y="410"/>
    </contour>
  </outline>
</glyph>
<glyph name="logicalnot" format="2">
  <advance width="500"/>
  <unicode hex="00AC"/>
  <outline>
    <contour>
      <point x="396" y="145" type="line"/>
      <point x="423" y="145" type="line"/>
      <point x="423" y="375" type="line"/>
      <point x="-52" y="375" type="line"/>
      <point x="-52" y="347" type="line"/>
      <point x="396" y="347" type="line"/>
    </contour>
  </outline>
</glyph>
<glyph name="registered" format="2">
  <advance width="432"/>
  <unicode hex="00AE"/>
  <outline>
    <contour>
      <point x="216" y="309" type="curve" smooth="yes"/>
      <point x="314" y="309"/>
      <point x="375" y="395"/>
      <point x="375" y="522" type="curve" smooth="yes"/>
      <point x="375" y="649"/>
      <point x="314" y="735"/>
      <point x="216" y="735" type="curve" smooth="yes"/>
      <point x="118" y="735"/>
      <point x="57" y="649"/>
      <point x="57" y="522" type="curve" smooth="yes"/>
      <point x="57" y="395"/>
      <point x="118" y="309"/>
    </contour>
    <contour>
      <point x="216" y="335" type="curve" smooth="yes"/>
      <point x="131" y="335"/>
      <point x="82" y="410"/>
      <point x="82" y="522" type="curve" smooth="yes"/>
      <point x="82" y="634"/>
      <point x="131" y="709"/>
      <point x="216" y="709" type="curve" smooth="yes"/>
      <point x="301" y="709"/>
      <point x="350" y="634"/>
      <point x="350" y="522" type="curve" smooth="yes"/>
      <point x="350" y="410"/>
      <point x="301" y="335"/>
    </contour>
    <contour>
      <point x="165" y="386" type="line"/>
      <point x="188" y="386" type="line"/>
      <point x="188" y="638" type="line"/>
      <point x="215" y="638" type="line" smooth="yes"/>
      <point x="239" y="638"/>
      <point x="254" y="623"/>
      <point x="254" y="591" type="curve" smooth="yes"/>
      <point x="254" y="571" type="line" smooth="yes"/>
      <point x="254" y="543"/>
      <point x="240" y="525"/>
      <point x="215" y="525" type="curve" smooth="yes"/>
      <point x="185" y="525" type="line"/>
      <point x="185" y="503" type="line"/>
      <point x="215" y="503" type="line"/>
      <point x="258" y="386" type="line"/>
      <point x="283" y="386" type="line"/>
      <point x="236" y="511" type="line"/>
      <point x="236" y="509" type="line"/>
      <point x="234" y="508" type="line"/>
      <point x="268" y="515"/>
      <point x="280" y="545"/>
      <point x="280" y="582" type="curve" smooth="yes"/>
      <point x="280" y="628"/>
      <point x="260" y="659"/>
      <point x="215" y="659" type="curve" smooth="yes"/>
      <point x="165" y="659" type="line"/>
    </contour>
  </outline>
</glyph>
<glyph name="degree" format="2">
  <advance width="332"/>
  <unicode hex="00B0"/>
  <outline>
    <contour>
      <point x="166" y="453" type="curve" smooth="yes"/>
      <point x="235" y="453"/>
      <point x="272" y="511"/>
      <point x="272" y="593" type="curve" smooth="yes"/>
      <point x="272" y="677"/>
      <point x="234" y="734"/>
      <point x="166" y="734" type="curve" smooth="yes"/>
      <point x="98" y="734"/>
      <point x="60" y="677"/>
      <point x="60" y="593" type="curve" smooth="yes"/>
      <point x="60" y="509"/>
      <point x="98" y="453"/>
    </contour>
    <contour>
      <point x="166" y="479" type="curve" smooth="yes"/>
      <point x="120" y="479"/>
      <point x="90" y="516"/>
      <point x="90" y="593" type="curve" smooth="yes"/>
      <point x="90" y="670"/>
      <point x="120" y="707"/>
      <point x="166" y="707" type="curve" smooth="yes"/>
      <point x="212" y="707"/>
      <point x="242" y="670"/>
      <point x="242" y="593" type="curve" smooth="yes"/>
      <point x="242" y="516"/>
      <point x="212" y="479"/>
    </contour>
  </outline>
</glyph>
<glyph name="plusminus" format="2">
  <advance width="500"/>
  <unicode hex="00B1"/>
  <outline>
    <contour>
      <point x="185" y="168" type="line"/>
      <point x="215" y="168" type="line"/>
      <point x="215" y="347" type="line"/>
      <point x="393" y="347" type="line"/>
      <point x="393" y="375" type="line"/>
      <point x="215" y="375" type="line"/>
      <point x="215" y="554" type="line"/>
      <point x="185" y="554" type="line"/>
      <point x="185" y="375" type="line"/>
      <point x="7" y="375" type="line"/>
      <point x="7" y="347" type="line"/>
      <point x="185" y="347" type="line"/>
    </contour>
    <contour>
      <point x="7" y="0" type="line"/>
      <point x="393" y="0" type="line"/>
      <point x="393" y="28" type="line"/>
      <point x="7" y="28" type="line"/>
    </contour>
  </outline>
</glyph>
<glyph name="paragraph" format="2">
  <advance width="568"/>
  <unicode hex="00B6"/>
  <outline>
    <contour>
      <point x="211" y="-151" type="line"/>
      <point x="242" y="-151" type="line"/>
      <point x="242" y="699" type="line"/>
      <point x="405" y="699" type="line"/>
      <point x="405" y="-151" type="line"/>
      <point x="435" y="-151" type="line"/>
      <point x="435" y="699" type="line"/>
      <point x="508" y="699" type="line"/>
      <point x="508" y="729" type="line"/>
      <point x="212" y="729" type="line" smooth="yes"/>
      <point x="99" y="729"/>
      <point x="23" y="678"/>
      <point x="23" y="571" type="curve" smooth="yes"/>
      <point x="23" y="472"/>
      <point x="83" y="406"/>
      <point x="211" y="407" type="curve"/>
    </contour>
  </outline>
</glyph>
<glyph name="ordmasculine" format="2">
  <advance width="238"/>
  <unicode hex="00BA"/>
  <outline>
    <contour>
      <point x="119" y="385" type="curve" smooth="yes"/>
      <point x="176" y="385"/>
      <point x="215" y="420"/>
      <point x="215" y="498" type="curve" smooth="yes"/>
      <point x="215" y="623" type="line" smooth="yes"/>
      <point x="215" y="699"/>
      <point x="177" y="735"/>
      <point x="119" y="735" type="curve" smooth="yes"/>
      <point x="61" y="735"/>
      <point x="23" y="699"/>
      <point x="23" y="623" type="curve" smooth="yes"/>
      <point x="23" y="498" type="line" smooth="yes"/>
      <point x="23" y="423"/>
      <point x="60" y="385"/>
    </contour>
    <contour>
      <point x="119" y="410" type="curve" smooth="yes"/>
      <point x="69" y="410"/>
      <point x="52" y="447"/>
      <point x="52" y="496" type="curve" smooth="yes"/>
      <point x="52" y="625" type="line" smooth="yes"/>
      <point x="52" y="673"/>
      <point x="69" y="710"/>
      <point x="119" y="710" type="curve" smooth="yes"/>
      <point x="169" y="710"/>
      <point x="186" y="674"/>
      <point x="186" y="625" type="curve" smooth="yes"/>
      <point x="186" y="496" type="line" smooth="yes"/>
      <point x="186" y="446"/>
      <point x="168" y="410"/>
    </contour>
  </outline>
</glyph>
<glyph name="multiply" format="2">
  <advance width="500"/>
  <unicode hex="00D7"/>
  <outline>
    <contour>
      <point x="27" y="168" type="line"/>
      <point x="394" y="535" type="line"/>
      <point x="375" y="554" type="line"/>
      <point x="8" y="187" type="line"/>
    </contour>
    <contour>
      <point x="375" y="168" type="line"/>
      <point x="394" y="187" type="line"/>
      <point x="27" y="554" type="line"/>
      <point x="8" y="535" type="line"/>
    </contour>
  </outline>
</glyph>
<glyph name="Thorn" format="2">
  <advance width="386"/>
  <unicode hex="00DE"/>
  <outline>
    <contour>
      <point x="72" y="0" type="line"/>
      <point x="103" y="0" type="line"/>
      <point x="103" y="729" type="line"/>
      <point x="72" y="729" type="line"/>
    </contour>
    <contour>
      <point x="96" y="168" type="line"/>
      <point x="178" y="168" type="line" smooth="yes"/>
      <point x="280" y="168"/>
      <point x="339" y="223"/>
      <point x="339" y="365" type="curve" smooth="yes"/>
      <point x="339" y="507"/>
      <point x="280" y="562"/>
      <point x="178" y="562" type="curve" smooth="yes"/>
      <point x="96" y="562" type="line"/>
      <point x="96" y="534" type="line"/>
      <point x="178" y="534" type="line" smooth="yes"/>
      <point x="272" y="534"/>
      <point x="308" y="477"/>
      <point x="308" y="391" type="curve" smooth="yes"/>
      <point x="308" y="339" type="line" smooth="yes"/>
      <point x="308" y="253"/>
      <point x="272" y="196"/>
      <point x="178" y="196" type="curve" smooth="yes"/>
      <point x="96" y="196" type="line"/>
    </contour>
  </outline>
</glyph>
<glyph name="germandbls" format="2">
  <advance width="434"/>
  <unicode hex="00DF"/>
  <outline>
    <contour>
      <point x="108" y="0" type="line"/>
      <point x="139" y="0" type="line"/>
      <point x="139" y="568" type="line" smooth="yes"/>
      <point x="139" y="669"/>
      <point x="174" y="707"/>
      <point x="233" y="707" type="curve" smooth="yes"/>
      <point x="299" y="707"/>
      <point x="335" y="661"/>
      <point x="335" y="564" type="curve" smooth="yes"/>
      <point x="335" y="474"/>
      <point x="302" y="410"/>
      <point x="230" y="410" type="curve" smooth="yes"/>
      <point x="200" y="410" type="line"/>
      <point x="200" y="382" type="line"/>
      <point x="239" y="382" type="line" smooth="yes"/>
      <point x="314" y="382"/>
      <point x="364" y="333"/>
      <point x="364" y="241" type="curve" smooth="yes"/>
      <point x="364" y="180" type="line" smooth="yes"/>
      <point x="364" y="101"/>
      <point x="318" y="26"/>
      <point x="207" y="26" type="curve" smooth="yes"/>
      <point x="174" y="26" type="line"/>
      <point x="174" y="0" type="line"/>
      <point x="209" y="0" type="line" smooth="yes"/>
      <point x="321" y="0"/>
      <point x="396" y="60"/>
      <point x="396" y="213" type="curve" smooth="yes"/>
      <point x="396" y="313"/>
      <point x="355" y="388"/>
      <point x="276" y="398" type="curve"/>
      <point x="276" y="401" type="line"/>
      <point x="329" y="416"/>
      <point x="366" y="467"/>
      <point x="366" y="568" type="curve" smooth="yes"/>
      <point x="366" y="674"/>
      <point x="315" y="735"/>
      <point x="233" y="735" type="curve" smooth="yes"/>
      <point x="160" y="735"/>
      <point x="108" y="687"/>
      <point x="108" y="576" type="curve" smooth="yes"/>
    </contour>
    <contour>
      <point x="27" y="488" type="line"/>
      <point x="121" y="488" type="line"/>
      <point x="121" y="515" type="line"/>
      <point x="27" y="515" type="line"/>
    </contour>
  </outline>
</glyph>
<glyph name="ae" format="2">
  <advance width="582"/>
  <unicode hex="00E6"/>
  <outline>
    <contour>
      <point x="155" y="-6" type="curve" smooth="yes"/>
      <point x="209" y="-6"/>
      <point x="254" y="26"/>
      <point x="271" y="84" type="curve"/>
      <point x="275" y="84" type="line"/>
      <point x="291" y="22"/>
      <point x="341" y="-5"/>
      <point x="400" y="-6" type="curve" smooth="yes"/>
      <point x="482" y="-5"/>
      <point x="538" y="42"/>
      <point x="538" y="160" type="curve"/>
      <point x="508" y="160" type="line"/>
      <point x="508" y="77"/>
      <point x="482" y="21"/>
      <point x="400" y="21" type="curve" smooth="yes"/>
      <point x="318" y="21"/>
      <point x="292" y="81"/>
      <point x="292" y="170" type="curve" smooth="yes"/>
      <point x="292" y="345" type="line" smooth="yes"/>
      <point x="292" y="434"/>
      <point x="318" y="494"/>
      <point x="400" y="494" type="curve" smooth="yes"/>
      <point x="469" y="494"/>
      <point x="508" y="446"/>
      <point x="508" y="375" type="curve" smooth="yes"/>
      <point x="508" y="280" type="line"/>
      <point x="522" y="294" type="line"/>
      <point x="285" y="294" type="line"/>
      <point x="285" y="267" type="line"/>
      <point x="539" y="267" type="line"/>
      <point x="539" y="348" type="line" smooth="yes"/>
      <point x="539" y="455"/>
      <point x="492" y="520"/>
      <point x="400" y="521" type="curve" smooth="yes"/>
      <point x="348" y="520"/>
      <point x="306" y="500"/>
      <point x="283" y="446" type="curve"/>
      <point x="268" y="497"/>
      <point x="231" y="521"/>
      <point x="172" y="521" type="curve" smooth="yes"/>
      <point x="99" y="521"/>
      <point x="48" y="475"/>
      <point x="48" y="379" type="curve"/>
      <point x="78" y="379" type="line"/>
      <point x="77" y="448"/>
      <point x="107" y="494"/>
      <point x="171" y="494" type="curve" smooth="yes"/>
      <point x="229" y="494"/>
      <point x="261" y="465"/>
      <point x="261" y="375" type="curve" smooth="yes"/>
      <point x="261" y="330" type="line" smooth="yes"/>
      <point x="261" y="276"/>
      <point x="261" y="222"/>
      <point x="261" y="168" type="curve" smooth="yes"/>
      <point x="261" y="83"/>
      <point x="233" y="22"/>
      <point x="159" y="22" type="curve" smooth="yes"/>
      <point x="109" y="22"/>
      <point x="71" y="49"/>
      <point x="71" y="135" type="curve" smooth="yes"/>
      <point x="71" y="229"/>
      <point x="111" y="267"/>
      <point x="201" y="267" type="curve" smooth="yes"/>
      <point x="268" y="267" type="line"/>
      <point x="268" y="294" type="line"/>
      <point x="201" y="294" type="line" smooth="yes"/>
      <point x="68" y="294"/>
      <point x="40" y="214"/>
      <point x="40" y="128" type="curve" smooth="yes"/>
      <point x="40" y="45"/>
      <point x="81" y="-6"/>
    </contour>
  </outline>
</glyph>
<glyph name="eth" format="2">
  <advance width="372"/>
  <unicode hex="00F0"/>
  <outline>
    <contour>
      <point x="183" y="-6" type="curve" smooth="yes"/>
      <point x="275" y="-6"/>
      <point x="322" y="60"/>
      <point x="322" y="167" type="curve" smooth="yes"/>
      <point x="322" y="311" type="line" smooth="yes"/>
      <point x="322" y="454"/>
      <point x="266" y="597"/>
      <point x="146" y="729" type="curve"/>
      <point x="112" y="729" type="line"/>
      <point x="213" y="618"/>
      <point x="273" y="498"/>
      <point x="289" y="381" type="curve"/>
      <point x="283" y="381" type="line"/>
      <point x="262" y="425"/>
      <point x="224" y="444"/>
      <point x="179" y="444" type="curve" smooth="yes"/>
      <point x="93" y="444"/>
      <point x="44" y="378"/>
      <point x="44" y="271" type="curve" smooth="yes"/>
      <point x="44" y="167" type="line" smooth="yes"/>
      <point x="44" y="60"/>
      <point x="91" y="-6"/>
    </contour>
    <contour>
      <point x="183" y="21" type="curve" smooth="yes"/>
      <point x="114" y="21"/>
      <point x="75" y="69"/>
      <point x="75" y="140" type="curve" smooth="yes"/>
      <point x="75" y="298" type="line" smooth="yes"/>
      <point x="75" y="369"/>
      <point x="115" y="417"/>
      <point x="181" y="417" type="curve" smooth="yes"/>
      <point x="234" y="417"/>
      <point x="274" y="387"/>
      <point x="291" y="324" type="curve"/>
      <point x="291" y="308"/>
      <point x="291" y="292"/>
      <point x="291" y="276" type="curve" smooth="yes"/>
      <point x="291" y="140" type="line" smooth="yes"/>
      <point x="291" y="69"/>
      <point x="252" y="21"/>
    </contour>
    <contour>
      <point x="81" y="598" type="line"/>
      <point x="312" y="648" type="line"/>
      <point x="312" y="673" type="line"/>
      <point x="81" y="623" type="line"/>
    </contour>
  </outline>
</glyph>
<glyph name="divide" format="2">
  <advance width="500"/>
  <unicode hex="00F7"/>
  <outline>
    <contour>
      <point x="7" y="347" type="line"/>
      <point x="393" y="347" type="line"/>
      <point x="393" y="375" type="line"/>
      <point x="7" y="375" type="line"/>
    </contour>
    <contour>
      <point x="177" y="481" type="line"/>
      <point x="223" y="481" type="line"/>
      <point x="223" y="542" type="line"/>
      <point x="177" y="542" type="line"/>
    </contour>
    <contour>
      <point x="177" y="181" type="line"/>
      <point x="223" y="181" type="line"/>
      <point x="223" y="242" type="line"/>
      <point x="177" y="242" type="line"/>
    </contour>
  </outline>
</glyph>
<glyph name="thorn" format="2">
  <advance width="381"/>
  <unicode hex="00FE"/>
  <outline>
    <contour>
      <point x="60" y="-167" type="line"/>
      <point x="91" y="-167" type="line"/>
      <point x="91" y="80" type="line"/>
      <point x="95" y="80" type="line"/>
      <point x="113" y="25"/>
      <point x="153" y="-6"/>
      <point x="207" y="-6" type="curve" smooth="yes"/>
      <point x="289" y="-6"/>
      <point x="330" y="63"/>
      <point x="330" y="157" type="curve" smooth="yes"/>
      <point x="330" y="358" type="line" smooth="yes"/>
      <point x="330" y="452"/>
      <point x="289" y="521"/>
      <point x="207" y="521" type="curve" smooth="yes"/>
      <point x="153" y="521"/>
      <point x="113" y="490"/>
      <point x="95" y="435" type="curve"/>
      <point x="91" y="435" type="line"/>
      <point x="91" y="729" type="line"/>
      <point x="60" y="729" type="line"/>
    </contour>
    <contour>
      <point x="205" y="21" type="curve" smooth="yes"/>
      <point x="146" y="21"/>
      <point x="112" y="60"/>
      <point x="91" y="142" type="curve"/>
      <point x="91" y="373" type="line"/>
      <point x="112" y="455"/>
      <point x="146" y="494"/>
      <point x="205" y="494" type="curve" smooth="yes"/>
      <point x="259" y="494"/>
      <point x="299" y="456"/>
      <point x="299" y="375" type="curve" smooth="yes"/>
      <point x="299" y="140" type="line" smooth="yes"/>
      <point x="299" y="59"/>
      <point x="259" y="21"/>
    </contour>
  </outline>
</glyph>
<glyph name="idotless" format="2">
  <advance width="151"/>
  <unicode hex="0131"/>
  <anchor x="76" y="0" name="bottom"/>
  <anchor x="91" y="0" name="ogonek"/>
  <anchor x="76" y="515" name="top"/>
  <outline>
    <contour>
      <point x="60" y="0" type="line"/>
      <point x="91" y="0" type="line"/>
      <point x="91" y="515" type="line"/>
      <point x="60" y="515" type="line"/>
    </contour>
  </outline>
</glyph>
<glyph name="Eng" format="2">
  <advance width="448"/>
  <unicode hex="014A"/>
  <outline>
    <contour>
      <point x="266" y="-167" type="line"/>
      <point x="338" y="-167" type="line" smooth="yes"/>
      <point x="366" y="-167"/>
      <point x="376" y="-153"/>
      <point x="376" y="-133" type="curve" smooth="yes"/>
      <point x="376" y="729" type="line"/>
      <point x="346" y="729" type="line"/>
      <point x="346" y="42" type="line"/>
      <point x="342" y="42" type="line"/>
      <point x="336" y="62" type="line"/>
      <point x="123" y="729" type="line"/>
      <point x="72" y="729" type="line"/>
      <point x="72" y="0" type="line"/>
      <point x="102" y="0" type="line"/>
      <point x="102" y="690" type="line"/>
      <point x="105" y="690" type="line"/>
      <point x="113" y="664" type="line"/>
      <point x="325" y="0" type="line"/>
      <point x="345" y="0" type="line"/>
      <point x="345" y="-140" type="line"/>
      <point x="266" y="-140" type="line"/>
    </contour>
  </outline>
</glyph>
<glyph name="eng" format="2">
  <advance width="402"/>
  <unicode hex="014B"/>
  <outline>
    <contour>
      <point x="236" y="-167" type="line"/>
      <point x="308" y="-167" type="line" smooth="yes"/>
      <point x="336" y="-167"/>
      <point x="346" y="-153"/>
      <point x="346" y="-133" type="curve" smooth="yes"/>
      <point x="346" y="360" type="line" smooth="yes"/>
      <point x="346" y="457"/>
      <point x="302" y="521"/>
      <point x="217" y="521" type="curve" smooth="yes"/>
      <point x="159" y="521"/>
      <point x="116" y="487"/>
      <point x="94" y="434" type="curve"/>
      <point x="90" y="434" type="line"/>
      <point x="87" y="515" type="line"/>
      <point x="60" y="515" type="line"/>
      <point x="60" y="0" type="line"/>
      <point x="91" y="0" type="line"/>
      <point x="91" y="375" type="line"/>
      <point x="111" y="446"/>
      <point x="149" y="494"/>
      <point x="216" y="494" type="curve" smooth="yes"/>
      <point x="278" y="494"/>
      <point x="315" y="454"/>
      <point x="315" y="375" type="curve" smooth="yes"/>
      <point x="315" y="-140" type="line"/>
      <point x="236" y="-140" type="line"/>
    </contour>
  </outline>
</glyph>
<glyph name="florin" format="2">
  <advance width="422"/>
  <unicode hex="0192"/>
  <outline>
    <contour>
      <point x="178" y="-38" type="curve" smooth="yes"/>
      <point x="281" y="699" type="line"/>
      <point x="387" y="699" type="line"/>
      <point x="387" y="729" type="line"/>
      <point x="301" y="729" type="line" smooth="yes"/>
      <point x="268" y="729"/>
      <point x="252" y="714"/>
      <point x="247" y="681" type="curve" smooth="yes"/>
      <point x="144" y="-55" type="line"/>
      <point x="35" y="-55" type="line"/>
      <point x="35" y="-85" type="line"/>
      <point x="123" y="-85" type="line" smooth="yes"/>
      <point x="156" y="-85"/>
      <point x="174" y="-69"/>
    </contour>
    <contour>
      <point x="102" y="440" type="line"/>
      <point x="370" y="440" type="line"/>
      <point x="370" y="469" type="line"/>
      <point x="102" y="469" type="line"/>
    </contour>
  </outline>
</glyph>
<glyph name="jdotless" format="2">
  <advance width="151"/>
  <unicode hex="0237"/>
  <anchor x="76" y="515" name="top"/>
  <outline>
    <contour>
      <point x="-19" y="-167" type="line"/>
      <point x="53" y="-167" type="line" smooth="yes"/>
      <point x="81" y="-167"/>
      <point x="91" y="-153"/>
      <point x="91" y="-133" type="curve" smooth="yes"/>
      <point x="91" y="515" type="line"/>
      <point x="60" y="515" type="line"/>
      <point x="60" y="-140" type="line"/>
      <point x="-19" y="-140" type="line"/>
    </contour>
  </outline>
</glyph>
<glyph name="gravecomb" format="2">
  <unicode hex="0300"/>
  <anchor x="123" y="515" name="_top"/>
  <outline>
    <contour>
      <point x="107" y="593" type="line"/>
      <point x="139" y="593" type="line"/>
      <point x="72" y="729" type="line"/>
      <point x="40" y="729" type="line"/>
    </contour>
  </outline>
</glyph>
<glyph name="acutecomb" format="2">
  <unicode hex="0301"/>
  <anchor x="56" y="515" name="_top"/>
  <outline>
    <contour>
      <point x="40" y="593" type="line"/>
      <point x="72" y="593" type="line"/>
      <point x="139" y="729" type="line"/>
      <point x="107" y="729" type="line"/>
    </contour>
  </outline>
</glyph>
<glyph name="circumflexcomb" format="2">
  <unicode hex="0302"/>
  <anchor x="124" y="515" name="_top"/>
  <outline>
    <contour>
      <point x="40" y="593" type="line"/>
      <point x="69" y="593" type="line"/>
      <point x="124" y="700" type="line"/>
      <point x="179" y="593" type="line"/>
      <point x="209" y="593" type="line"/>
      <point x="138" y="729" type="line"/>
      <point x="110" y="729" type="line"/>
    </contour>
  </outline>
</glyph>
<glyph name="tildecomb" format="2">
  <unicode hex="0303"/>
  <anchor x="156" y="515" name="_top"/>
  <outline>
    <contour>
      <point x="220" y="609" type="curve" smooth="yes"/>
      <point x="252" y="609"/>
      <point x="274" y="631"/>
      <point x="272" y="684" type="curve"/>
      <point x="253" y="684" type="line"/>
      <point x="252" y="653"/>
      <point x="244" y="637"/>
      <point x="221" y="637" type="curve" smooth="yes"/>
      <point x="183" y="637"/>
      <point x="137" y="683"/>
      <point x="91" y="683" type="curve" smooth="yes"/>
      <point x="61" y="683"/>
      <point x="38" y="662"/>
      <point x="40" y="608" type="curve"/>
      <point x="59" y="608" type="line"/>
      <point x="60" y="636"/>
      <point x="66" y="655"/>
      <point x="90" y="655" type="curve" smooth="yes"/>
      <point x="128" y="655"/>
      <point x="173" y="609"/>
    </contour>
  </outline>
</glyph>
<glyph name="macroncomb" format="2">
  <unicode hex="0304"/>
  <anchor x="162" y="515" name="_top"/>
  <outline>
    <contour>
      <point x="40" y="649" type="line"/>
      <point x="283" y="649" type="line"/>
      <point x="283" y="676" type="line"/>
      <point x="40" y="676" type="line"/>
    </contour>
  </outline>
</glyph>
<glyph name="brevecomb" format="2">
  <unicode hex="0306"/>
  <anchor x="124" y="515" name="_top"/>
  <outline>
    <contour>
      <point x="124" y="588" type="curve" smooth="yes"/>
      <point x="178" y="588"/>
      <point x="207" y="637"/>
      <point x="207" y="729" type="curve"/>
      <point x="180" y="729" type="line"/>
      <point x="181" y="655"/>
      <point x="160" y="616"/>
      <point x="124" y="616" type="curve" smooth="yes"/>
      <point x="87" y="616"/>
      <point x="68" y="654"/>
      <point x="68" y="729" type="curve"/>
      <point x="40" y="729" type="line"/>
      <point x="41" y="637"/>
      <point x="69" y="588"/>
    </contour>
  </outline>
</glyph>
<glyph name="dieresiscomb" format="2">
  <unicode hex="0308"/>
  <anchor x="134" y="515" name="_top"/>
  <outline>
    <contour>
      <point x="40" y="617" type="line"/>
      <point x="71" y="617" type="line"/>
      <point x="71" y="729" type="line"/>
      <point x="40" y="729" type="line"/>
    </contour>
    <contour>
      <point x="196" y="617" type="line"/>
      <point x="227" y="617" type="line"/>
      <point x="227" y="729" type="line"/>
      <point x="196" y="729" type="line"/>
    </contour>
  </outline>
</glyph>
<glyph name="hookabovecomb" format="2">
  <unicode hex="0309"/>
  <anchor x="81" y="515" name="_top"/>
  <outline>
    <contour>
      <point x="70" y="578" type="line"/>
      <point x="118" y="615"/>
      <point x="141" y="651"/>
      <point x="141" y="690" type="curve" smooth="yes"/>
      <point x="141" y="728"/>
      <point x="115" y="753"/>
      <point x="75" y="753" type="curve" smooth="yes"/>
      <point x="64" y="753"/>
      <point x="50" y="751"/>
      <point x="40" y="747" type="curve"/>
      <point x="40" y="723" type="line"/>
      <point x="48" y="726"/>
      <point x="58" y="728"/>
      <point x="71" y="728" type="curve" smooth="yes"/>
      <point x="99" y="728"/>
      <point x="113" y="712"/>
      <point x="113" y="687" type="curve" smooth="yes"/>
      <point x="113" y="658"/>
      <point x="96" y="631"/>
      <point x="52" y="596" type="curve"/>
    </contour>
  </outline>
</glyph>
<glyph name="ringcomb" format="2">
  <unicode hex="030A"/>
  <anchor x="103" y="515" name="_top"/>
  <outline>
    <contour>
      <point x="103" y="588" type="curve" smooth="yes"/>
      <point x="141" y="588"/>
      <point x="166" y="620"/>
      <point x="166" y="677" type="curve" smooth="yes"/>
      <point x="166" y="730"/>
      <point x="143" y="766"/>
      <point x="103" y="766" type="curve" smooth="yes"/>
      <point x="65" y="766"/>
      <point x="40" y="734"/>
      <point x="40" y="677" type="curve" smooth="yes"/>
      <point x="40" y="624"/>
      <point x="63" y="588"/>
    </contour>
    <contour>
      <point x="103" y="613" type="curve" smooth="yes"/>
      <point x="81" y="613"/>
      <point x="67" y="633"/>
      <point x="67" y="677" type="curve" smooth="yes"/>
      <point x="67" y="715"/>
      <point x="79" y="741"/>
      <point x="103" y="741" type="curve" smooth="yes"/>
      <point x="125" y="741"/>
      <point x="139" y="721"/>
      <point x="139" y="677" type="curve" smooth="yes"/>
      <point x="139" y="639"/>
      <point x="127" y="613"/>
    </contour>
  </outline>
</glyph>
<glyph name="hungarumlautcomb" format="2">
  <unicode hex="030B"/>
  <anchor x="106" y="515" name="_top"/>
  <outline>
    <contour>
      <point x="40" y="593" type="line"/>
      <point x="72" y="593" type="line"/>
      <point x="139" y="729" type="line"/>
      <point x="107" y="729" type="line"/>
    </contour>
    <contour>
      <point x="140" y="593" type="line"/>
      <point x="172" y="593" type="line"/>
      <point x="239" y="729" type="line"/>
      <point x="207" y="729" type="line"/>
    </contour>
  </outline>
</glyph>
<glyph name="caroncomb" format="2">
  <unicode hex="030C"/>
  <anchor x="124" y="515" name="_top"/>
  <outline>
    <contour>
      <point x="110" y="593" type="line"/>
      <point x="138" y="593" type="line"/>
      <point x="209" y="729" type="line"/>
      <point x="179" y="729" type="line"/>
      <point x="124" y="622" type="line"/>
      <point x="69" y="729" type="line"/>
      <point x="40" y="729" type="line"/>
    </contour>
  </outline>
</glyph>
<glyph name="commaturnedabovecomb" format="2">
  <unicode hex="0312"/>
  <anchor x="63" y="515" name="_top"/>
  <outline>
    <contour>
      <point x="40" y="606" type="line"/>
      <point x="86" y="606" type="line"/>
      <point x="86" y="670" type="line"/>
      <point x="59" y="670" type="line"/>
      <point x="96" y="788" type="line"/>
      <point x="76" y="788" type="line"/>
      <point x="40" y="670" type="line"/>
    </contour>
  </outline>
</glyph>
<glyph name="horncomb" format="2">
  <unicode hex="031B"/>
  <anchor x="40" y="515" name="_topright"/>
  <outline>
    <contour>
      <point x="40" y="493" type="line"/>
      <point x="90" y="493"/>
      <point x="124" y="511"/>
      <point x="124" y="569" type="curve" smooth="yes"/>
      <point x="124" y="601" type="line"/>
      <point x="94" y="601" type="line"/>
      <point x="94" y="569" type="line" smooth="yes"/>
      <point x="94" y="528"/>
      <point x="73" y="515"/>
      <point x="40" y="515" type="curve"/>
    </contour>
  </outline>
</glyph>
<glyph name="dotbelowcomb" format="2">
  <unicode hex="0323"/>
  <anchor x="61" y="0" name="_bottom"/>
  <outline>
    <contour>
      <point x="40" y="-121" type="line"/>
      <point x="82" y="-121" type="line"/>
      <point x="82" y="-60" type="line"/>
      <point x="40" y="-60" type="line"/>
    </contour>
  </outline>
</glyph>
<glyph name="commaaccentcomb" format="2">
  <unicode hex="0326"/>
  <anchor x="74" y="0" name="_bottom"/>
  <outline>
    <contour>
      <point x="40" y="-222" type="line"/>
      <point x="63" y="-222" type="line"/>
      <point x="96" y="-126" type="line"/>
      <point x="96" y="-67" type="line"/>
      <point x="52" y="-67" type="line"/>
      <point x="52" y="-126" type="line"/>
      <point x="76" y="-126" type="line"/>
    </contour>
  </outline>
</glyph>
<glyph name="cedillacomb" format="2">
  <unicode hex="0327"/>
  <anchor x="98" y="0" name="_bottom"/>
  <outline>
    <contour>
      <point x="107" y="-179" type="curve" smooth="yes"/>
      <point x="148" y="-179"/>
      <point x="176" y="-152"/>
      <point x="176" y="-105" type="curve" smooth="yes"/>
      <point x="176" y="-47"/>
      <point x="127" y="-26"/>
      <point x="88" y="-36" type="curve"/>
      <point x="102" y="-44" type="line"/>
      <point x="113" y="8" type="line"/>
      <point x="86" y="8" type="line"/>
      <point x="73" y="-51" type="line"/>
      <point x="84" y="-61" type="line"/>
      <point x="110" y="-52"/>
      <point x="146" y="-58"/>
      <point x="146" y="-105" type="curve" smooth="yes"/>
      <point x="146" y="-134"/>
      <point x="132" y="-153"/>
      <point x="106" y="-153" type="curve" smooth="yes"/>
      <point x="85" y="-153"/>
      <point x="70" y="-141"/>
      <point x="68" y="-117" type="curve"/>
      <point x="40" y="-117" type="line"/>
      <point x="40" y="-154"/>
      <point x="67" y="-179"/>
    </contour>
  </outline>
</glyph>
<glyph name="ogonekcomb" format="2">
  <unicode hex="0328"/>
  <anchor x="127" y="0" name="_ogonek"/>
  <outline>
    <contour>
      <point x="107" y="-170" type="curve" smooth="yes"/>
      <point x="122" y="-170"/>
      <point x="137" y="-166"/>
      <point x="143" y="-162" type="curve"/>
      <point x="143" y="-140" type="line"/>
      <point x="132" y="-145"/>
      <point x="123" y="-147"/>
      <point x="110" y="-147" type="curve" smooth="yes"/>
      <point x="84" y="-147"/>
      <point x="66" y="-133"/>
      <point x="66" y="-104" type="curve" smooth="yes"/>
      <point x="66" y="-74"/>
      <point x="86" y="-38"/>
      <point x="127" y="0" type="curve"/>
      <point x="124" y="8" type="line"/>
      <point x="113" y="19" type="line"/>
      <point x="72" y="-18"/>
      <point x="40" y="-64"/>
      <point x="40" y="-106" type="curve" smooth="yes"/>
      <point x="40" y="-145"/>
      <point x="66" y="-170"/>
    </contour>
  </outline>
</glyph>
<glyph name="strokelongcomb" format="2">
  <unicode hex="0336"/>
  <anchor x="247" y="290" name="_center"/>
  <outline>
    <contour>
      <point x="40" y="276" type="line"/>
      <point x="453" y="276" type="line"/>
      <point x="453" y="304" type="line"/>
      <point x="40" y="304" type="line"/>
    </contour>
  </outline>
</glyph>
<glyph name="slashshortcomb" format="2">
  <unicode hex="0337"/>
  <anchor x="112" y="365" name="_center"/>
  <outline>
    <contour>
      <point x="40" y="307" type="line"/>
      <point x="184" y="389" type="line"/>
      <point x="184" y="422" type="line"/>
      <point x="40" y="340" type="line"/>
    </contour>
  </outline>
</glyph>
<glyph name="slashlongcomb" format="2">
  <unicode hex="0338"/>
  <anchor x="205" y="258" name="_center"/>
  <outline>
    <contour>
      <point x="40" y="-20" type="line"/>
      <point x="69" y="-20" type="line"/>
      <point x="369" y="535" type="line"/>
      <point x="339" y="535" type="line"/>
    </contour>
  </outline>
</glyph>
<glyph name="mu" format="2">
  <advance width="402"/>
  <unicode hex="03BC"/>
  <outline>
    <contour>
      <point x="56" y="-132" type="line"/>
      <point x="86" y="-132" type="line"/>
      <point x="86" y="47" type="line"/>
      <point x="80" y="51" type="line"/>
      <point x="100" y="13"/>
      <point x="136" y="-6"/>
      <point x="181" y="-6" type="curve" smooth="yes"/>
      <point x="243" y="-6"/>
      <point x="285" y="28"/>
      <point x="308" y="81" type="curve"/>
      <point x="312" y="81" type="line"/>
      <point x="315" y="0" type="line"/>
      <point x="342" y="0" type="line"/>
      <point x="342" y="515" type="line"/>
      <point x="311" y="515" type="line"/>
      <point x="311" y="140" type="line"/>
      <point x="291" y="69"/>
      <point x="253" y="21"/>
      <point x="186" y="21" type="curve" smooth="yes"/>
      <point x="124" y="21"/>
      <point x="87" y="61"/>
      <point x="87" y="140" type="curve" smooth="yes"/>
      <point x="87" y="515" type="line"/>
      <point x="56" y="515" type="line"/>
    </contour>
  </outline>
</glyph>
<glyph name="pi" format="2">
  <advance width="383"/>
  <unicode hex="03C0"/>
  <outline>
    <contour>
      <point x="95" y="0" type="line"/>
      <point x="125" y="0" type="line"/>
      <point x="125" y="488" type="line"/>
      <point x="267" y="488" type="line"/>
      <point x="267" y="37" type="line" smooth="yes"/>
      <point x="267" y="15"/>
      <point x="278" y="0"/>
      <point x="308" y="0" type="curve"/>
      <point x="353" y="0" type="line"/>
      <point x="353" y="29" type="line"/>
      <point x="297" y="29" type="line"/>
      <point x="297" y="488" type="line"/>
      <point x="353" y="488" type="line"/>
      <point x="353" y="515" type="line"/>
      <point x="27" y="515" type="line"/>
      <point x="27" y="488" type="line"/>
      <point x="95" y="488" type="line"/>
    </contour>
  </outline>
</glyph>
<glyph name="Germandbls" format="2">
  <advance width="441"/>
  <unicode hex="1E9E"/>
  <outline>
    <contour>
      <point x="72" y="0" type="line"/>
      <point x="103" y="0" type="line"/>
      <point x="103" y="701" type="line"/>
      <point x="333" y="701" type="line"/>
      <point x="197" y="426" type="line"/>
      <point x="197" y="400" type="line"/>
      <point x="215" y="400" type="line" smooth="yes"/>
      <point x="303" y="400"/>
      <point x="362" y="351"/>
      <point x="362" y="246" type="curve" smooth="yes"/>
      <point x="362" y="180" type="line" smooth="yes"/>
      <point x="362" y="101"/>
      <point x="316" y="26"/>
      <point x="205" y="26" type="curve" smooth="yes"/>
      <point x="171" y="26" type="line"/>
      <point x="171" y="0" type="line"/>
      <point x="207" y="0" type="line" smooth="yes"/>
      <point x="319" y="0"/>
      <point x="394" y="60"/>
      <point x="394" y="213" type="curve" smooth="yes"/>
      <point x="394" y="357"/>
      <point x="330" y="425"/>
      <point x="217" y="425" type="curve" smooth="yes"/>
      <point x="209" y="425" type="line"/>
      <point x="231" y="411" type="line"/>
      <point x="231" y="429" type="line"/>
      <point x="364" y="697" type="line"/>
      <point x="364" y="729" type="line"/>
      <point x="72" y="729" type="line"/>
    </contour>
  </outline>
</glyph>
<glyph name="endash" format="2">
  <advance width="374"/>
  <unicode hex="2013"/>
  <outline>
    <contour>
      <point x="42" y="336" type="line"/>
      <point x="332" y="336" type="line"/>
      <point x="332" y="361" type="line"/>
      <point x="42" y="361" type="line"/>
    </contour>
  </outline>
</glyph>
<glyph name="emdash" format="2">
  <advance width="524"/>
  <unicode hex="2014"/>
  <outline>
    <contour>
      <point x="42" y="306" type="line"/>
      <point x="482" y="306" type="line"/>
      <point x="482" y="331" type="line"/>
      <point x="42" y="331" type="line"/>
    </contour>
  </outline>
</glyph>
<glyph name="bullet" format="2">
  <advance width="193"/>
  <unicode hex="2022"/>
  <outline>
    <contour>
      <point x="31" y="277" type="curve" smooth="yes"/>
      <point x="31" y="240"/>
      <point x="59" y="213"/>
      <point x="97" y="213" type="curve" smooth="yes"/>
      <point x="136" y="213"/>
      <point x="162" y="240"/>
      <point x="162" y="277" type="curve" smooth="yes"/>
      <point x="162" y="315"/>
      <point x="136" y="342"/>
      <point x="97" y="342" type="curve" smooth="yes"/>
      <point x="59" y="342"/>
      <point x="31" y="315"/>
    </contour>
  </outline>
</glyph>
<glyph name="perthousand" format="2">
  <advance width="805"/>
  <unicode hex="2030"/>
  <outline>
    <contour>
      <point x="136" y="355" type="curve" smooth="yes"/>
      <point x="207" y="355"/>
      <point x="227" y="413"/>
      <point x="227" y="491" type="curve" smooth="yes"/>
      <point x="227" y="597" type="line" smooth="yes"/>
      <point x="227" y="675"/>
      <point x="207" y="733"/>
      <point x="136" y="733" type="curve" smooth="yes"/>
      <point x="65" y="733"/>
      <point x="45" y="675"/>
      <point x="45" y="597" type="curve" smooth="yes"/>
      <point x="45" y="491" type="line" smooth="yes"/>
      <point x="45" y="413"/>
      <point x="65" y="355"/>
    </contour>
    <contour>
      <point x="136" y="379" type="curve" smooth="yes"/>
      <point x="90" y="379"/>
      <point x="72" y="416"/>
      <point x="72" y="471" type="curve" smooth="yes"/>
      <point x="72" y="617" type="line" smooth="yes"/>
      <point x="72" y="672"/>
      <point x="90" y="709"/>
      <point x="136" y="709" type="curve" smooth="yes"/>
      <point x="174" y="709"/>
      <point x="200" y="683"/>
      <point x="200" y="617" type="curve" smooth="yes"/>
      <point x="200" y="471" type="line" smooth="yes"/>
      <point x="200" y="405"/>
      <point x="174" y="379"/>
    </contour>
    <contour>
      <point x="125" y="0" type="line"/>
      <point x="153" y="0" type="line"/>
      <point x="449" y="729" type="line"/>
      <point x="420" y="729" type="line"/>
    </contour>
    <contour>
      <point x="439" y="-6" type="curve" smooth="yes"/>
      <point x="510" y="-6"/>
      <point x="530" y="52"/>
      <point x="530" y="130" type="curve" smooth="yes"/>
      <point x="530" y="236" type="line" smooth="yes"/>
      <point x="530" y="314"/>
      <point x="510" y="372"/>
      <point x="439" y="372" type="curve" smooth="yes"/>
      <point x="368" y="372"/>
      <point x="348" y="314"/>
      <point x="348" y="236" type="curve" smooth="yes"/>
      <point x="348" y="130" type="line" smooth="yes"/>
      <point x="348" y="52"/>
      <point x="368" y="-6"/>
    </contour>
    <contour>
      <point x="439" y="18" type="curve" smooth="yes"/>
      <point x="393" y="18"/>
      <point x="375" y="55"/>
      <point x="375" y="110" type="curve" smooth="yes"/>
      <point x="375" y="256" type="line" smooth="yes"/>
      <point x="375" y="311"/>
      <point x="393" y="348"/>
      <point x="439" y="348" type="curve" smooth="yes"/>
      <point x="477" y="348"/>
      <point x="503" y="322"/>
      <point x="503" y="256" type="curve" smooth="yes"/>
      <point x="503" y="110" type="line" smooth="yes"/>
      <point x="503" y="44"/>
      <point x="477" y="18"/>
    </contour>
    <contour>
      <point x="669" y="-6" type="curve" smooth="yes"/>
      <point x="740" y="-6"/>
      <point x="760" y="52"/>
      <point x="760" y="130" type="curve" smooth="yes"/>
      <point x="760" y="236" type="line" smooth="yes"/>
      <point x="760" y="314"/>
      <point x="740" y="372"/>
      <point x="669" y="372" type="curve" smooth="yes"/>
      <point x="598" y="372"/>
      <point x="578" y="314"/>
      <point x="578" y="236" type="curve" smooth="yes"/>
      <point x="578" y="130" type="line" smooth="yes"/>
      <point x="578" y="52"/>
      <point x="598" y="-6"/>
    </contour>
    <contour>
      <point x="669" y="18" type="curve" smooth="yes"/>
      <point x="623" y="18"/>
      <point x="605" y="55"/>
      <point x="605" y="110" type="curve" smooth="yes"/>
      <point x="605" y="256" type="line" smooth="yes"/>
      <point x="605" y="311"/>
      <point x="623" y="348"/>
      <point x="669" y="348" type="curve" smooth="yes"/>
      <point x="707" y="348"/>
      <point x="733" y="322"/>
      <point x="733" y="256" type="curve" smooth="yes"/>
      <point x="733" y="110" type="line" smooth="yes"/>
      <point x="733" y="44"/>
      <point x="707" y="18"/>
    </contour>
  </outline>
</glyph>
<glyph name="guilsinglleft" format="2">
  <advance width="222"/>
  <unicode hex="2039"/>
  <anchor x="-2" y="0" name="#entry"/>
  <anchor x="138" y="0" name="#exit"/>
  <outline>
    <contour>
      <point x="152" y="59" type="line"/>
      <point x="180" y="59" type="line"/>
      <point x="77" y="287" type="line"/>
      <point x="180" y="515" type="line"/>
      <point x="152" y="515" type="line"/>
      <point x="42" y="287" type="line"/>
    </contour>
  </outline>
</glyph>
<glyph name="zeroinferior" format="2">
  <advance width="306"/>
  <unicode hex="2080"/>
  <outline>
    <contour>
      <point x="153" y="-66" type="curve" smooth="yes"/>
      <point x="224" y="-66"/>
      <point x="253" y="-23"/>
      <point x="253" y="98" type="curve" smooth="yes"/>
      <point x="253" y="220" type="line" smooth="yes"/>
      <point x="253" y="341"/>
      <point x="225" y="383"/>
      <point x="153" y="383" type="curve" smooth="yes"/>
      <point x="81" y="383"/>
      <point x="53" y="342"/>
      <point x="53" y="220" type="curve" smooth="yes"/>
      <point x="53" y="98" type="line" smooth="yes"/>
      <point x="53" y="-23"/>
      <point x="81" y="-66"/>
    </contour>
    <contour>
      <point x="153" y="-40" type="curve" smooth="yes"/>
      <point x="101" y="-40"/>
      <point x="83" y="-9"/>
      <point x="83" y="72" type="curve" smooth="yes"/>
      <point x="83" y="245" type="line" smooth="yes"/>
      <point x="83" y="326"/>
      <point x="101" y="357"/>
      <point x="153" y="357" type="curve" smooth="yes"/>
      <point x="204" y="357"/>
      <point x="222" y="327"/>
      <point x="222" y="245" type="curve" smooth="yes"/>
      <point x="222" y="72" type="line" smooth="yes"/>
      <point x="222" y="-9"/>
      <point x="204" y="-40"/>
    </contour>
  </outline>
</glyph>
<glyph name="oneinferior" format="2">
  <advance width="181"/>
  <unicode hex="2081"/>
  <outline>
    <contour>
      <point x="121" y="-60" type="line"/>
      <point x="121" y="377" type="line"/>
      <point x="94" y="377" type="line"/>
      <point x="89" y="311" type="line"/>
      <point x="29" y="311" type="line"/>
      <point x="29" y="282" type="line"/>
      <point x="90" y="282" type="line"/>
      <point x="90" y="-60" type="line"/>
    </contour>
  </outline>
</glyph>
<glyph name="twoinferior" format="2">
  <advance width="273"/>
  <unicode hex="2082"/>
  <outline>
    <contour>
      <point x="39" y="-60" type="line"/>
      <point x="237" y="-60" type="line"/>
      <point x="237" y="-33" type="line"/>
      <point x="84" y="-33" type="line"/>
      <point x="71" y="-33" type="line"/>
      <point x="71" y="-31" type="line"/>
      <point x="77" y="-22" type="line"/>
      <point x="180" y="145" type="line" smooth="yes"/>
      <point x="212" y="197"/>
      <point x="230" y="233"/>
      <point x="230" y="279" type="curve" smooth="yes"/>
      <point x="230" y="339"/>
      <point x="199" y="381"/>
      <point x="138" y="381" type="curve" smooth="yes"/>
      <point x="67" y="381"/>
      <point x="36" y="333"/>
      <point x="37" y="246" type="curve"/>
      <point x="66" y="246" type="line"/>
      <point x="65" y="315"/>
      <point x="84" y="354"/>
      <point x="137" y="354" type="curve" smooth="yes"/>
      <point x="173" y="354"/>
      <point x="198" y="331"/>
      <point x="198" y="281" type="curve" smooth="yes"/>
      <point x="198" y="265" type="line" smooth="yes"/>
      <point x="198" y="238"/>
      <point x="185" y="205"/>
      <point x="153" y="154" type="curve" smooth="yes"/>
      <point x="39" y="-27" type="line"/>
    </contour>
  </outline>
</glyph>
<glyph name="threeinferior" format="2">
  <advance width="285"/>
  <unicode hex="2083"/>
  <outline>
    <contour>
      <point x="138" y="-65" type="curve" smooth="yes"/>
      <point x="195" y="-65"/>
      <point x="239" y="-32"/>
      <point x="239" y="58" type="curve" smooth="yes"/>
      <point x="239" y="122"/>
      <point x="213" y="153"/>
      <point x="178" y="162" type="curve"/>
      <point x="178" y="166" type="line"/>
      <point x="212" y="176"/>
      <point x="236" y="208"/>
      <point x="236" y="271" type="curve" smooth="yes"/>
      <point x="236" y="353"/>
      <point x="195" y="383"/>
      <point x="144" y="383" type="curve" smooth="yes"/>
      <point x="74" y="383"/>
      <point x="45" y="342"/>
      <point x="44" y="245" type="curve"/>
      <point x="74" y="245" type="line"/>
      <point x="74" y="324"/>
      <point x="91" y="356"/>
      <point x="143" y="356" type="curve" smooth="yes"/>
      <point x="180" y="356"/>
      <point x="204" y="332"/>
      <point x="204" y="283" type="curve" smooth="yes"/>
      <point x="204" y="249" type="line" smooth="yes"/>
      <point x="204" y="205"/>
      <point x="179" y="179"/>
      <point x="142" y="179" type="curve" smooth="yes"/>
      <point x="110" y="179" type="line"/>
      <point x="110" y="152" type="line"/>
      <point x="142" y="152" type="line" smooth="yes"/>
      <point x="179" y="152"/>
      <point x="206" y="125"/>
      <point x="206" y="75" type="curve" smooth="yes"/>
      <point x="206" y="35" type="line" smooth="yes"/>
      <point x="206" y="-11"/>
      <point x="180" y="-38"/>
      <point x="138" y="-38" type="curve" smooth="yes"/>
      <point x="86" y="-38"/>
      <point x="69" y="-4"/>
      <point x="69" y="63" type="curve"/>
      <point x="39" y="63" type="line"/>
      <point x="39" y="-20"/>
      <point x="67" y="-65"/>
    </contour>
  </outline>
</glyph>
<glyph name="fourinferior" format="2">
  <advance width="286"/>
  <unicode hex="2084"/>
  <outline>
    <contour>
      <point x="177" y="-60" type="line"/>
      <point x="208" y="-60" type="line"/>
      <point x="208" y="56" type="line"/>
      <point x="257" y="56" type="line"/>
      <point x="257" y="84" type="line"/>
      <point x="208" y="84" type="line"/>
      <point x="208" y="176" type="line"/>
      <point x="183" y="176" type="line"/>
      <point x="177" y="84" type="line"/>
      <point x="65" y="84" type="line"/>
      <point x="65" y="88" type="line"/>
      <point x="191" y="377" type="line"/>
      <point x="159" y="377" type="line"/>
      <point x="32" y="85" type="line"/>
      <point x="32" y="56" type="line"/>
      <point x="177" y="56" type="line"/>
    </contour>
  </outline>
</glyph>
<glyph name="fiveinferior" format="2">
  <advance width="286"/>
  <unicode hex="2085"/>
  <outline>
    <contour>
      <point x="143" y="-66" type="curve" smooth="yes"/>
      <point x="202" y="-66"/>
      <point x="243" y="-35"/>
      <point x="243" y="81" type="curve" smooth="yes"/>
      <point x="243" y="180"/>
      <point x="218" y="228"/>
      <point x="152" y="228" type="curve" smooth="yes"/>
      <point x="123" y="228"/>
      <point x="97" y="215"/>
      <point x="84" y="179" type="curve"/>
      <point x="81" y="179" type="line"/>
      <point x="94" y="350" type="line"/>
      <point x="238" y="350" type="line"/>
      <point x="238" y="377" type="line"/>
      <point x="67" y="377" type="line"/>
      <point x="51" y="131" type="line"/>
      <point x="80" y="131" type="line"/>
      <point x="88" y="175"/>
      <point x="110" y="203"/>
      <point x="146" y="203" type="curve" smooth="yes"/>
      <point x="183" y="203"/>
      <point x="211" y="182"/>
      <point x="211" y="119" type="curve" smooth="yes"/>
      <point x="211" y="46" type="line" smooth="yes"/>
      <point x="211" y="-5"/>
      <point x="190" y="-39"/>
      <point x="142" y="-39" type="curve" smooth="yes"/>
      <point x="96" y="-39"/>
      <point x="76" y="-13"/>
      <point x="74" y="52" type="curve"/>
      <point x="44" y="52" type="line"/>
      <point x="46" y="-17"/>
      <point x="69" y="-66"/>
    </contour>
  </outline>
</glyph>
<glyph name="sixinferior" format="2">
  <advance width="297"/>
  <unicode hex="2086"/>
  <outline>
    <contour>
      <point x="151" y="-66" type="curve" smooth="yes"/>
      <point x="203" y="-66"/>
      <point x="250" y="-41"/>
      <point x="250" y="78" type="curve" smooth="yes"/>
      <point x="250" y="175"/>
      <point x="226" y="222"/>
      <point x="158" y="222" type="curve" smooth="yes"/>
      <point x="125" y="222"/>
      <point x="96" y="204"/>
      <point x="83" y="158" type="curve"/>
      <point x="79" y="158" type="line"/>
      <point x="80" y="167"/>
      <point x="81" y="186"/>
      <point x="81" y="209" type="curve" smooth="yes"/>
      <point x="81" y="321"/>
      <point x="102" y="356"/>
      <point x="154" y="356" type="curve" smooth="yes"/>
      <point x="195" y="356"/>
      <point x="217" y="330"/>
      <point x="219" y="267" type="curve"/>
      <point x="249" y="267" type="line"/>
      <point x="248" y="333"/>
      <point x="220" y="383"/>
      <point x="156" y="383" type="curve" smooth="yes"/>
      <point x="86" y="383"/>
      <point x="52" y="342"/>
      <point x="52" y="199" type="curve" smooth="yes"/>
      <point x="52" y="72" type="line" smooth="yes"/>
      <point x="52" y="-42"/>
      <point x="98" y="-66"/>
    </contour>
    <contour>
      <point x="150" y="-39" type="curve" smooth="yes"/>
      <point x="105" y="-39"/>
      <point x="84" y="-7"/>
      <point x="84" y="51" type="curve" smooth="yes"/>
      <point x="84" y="122" type="line"/>
      <point x="91" y="161"/>
      <point x="112" y="198"/>
      <point x="151" y="198" type="curve" smooth="yes"/>
      <point x="190" y="198"/>
      <point x="217" y="177"/>
      <point x="217" y="108" type="curve" smooth="yes"/>
      <point x="217" y="51" type="line" smooth="yes"/>
      <point x="217" y="-5"/>
      <point x="197" y="-39"/>
    </contour>
  </outline>
</glyph>
<glyph name="seveninferior" format="2">
  <advance width="277"/>
  <unicode hex="2087"/>
  <outline>
    <contour>
      <point x="105" y="-60" type="line"/>
      <point x="246" y="348" type="line"/>
      <point x="246" y="377" type="line"/>
      <point x="36" y="377" type="line"/>
      <point x="36" y="254" type="line"/>
      <point x="64" y="254" type="line"/>
      <point x="64" y="350" type="line"/>
      <point x="214" y="350" type="line"/>
      <point x="214" y="346" type="line"/>
      <point x="73" y="-60" type="line"/>
    </contour>
  </outline>
</glyph>
<glyph name="eightinferior" format="2">
  <advance width="290"/>
  <unicode hex="2088"/>
  <outline>
    <contour>
      <point x="145" y="-65" type="curve" smooth="yes"/>
      <point x="201" y="-65"/>
      <point x="243" y="-32"/>
      <point x="243" y="56" type="curve" smooth="yes"/>
      <point x="243" y="122"/>
      <point x="216" y="153"/>
      <point x="182" y="162" type="curve"/>
      <point x="182" y="167" type="line"/>
      <point x="215" y="176"/>
      <point x="240" y="207"/>
      <point x="240" y="271" type="curve" smooth="yes"/>
      <point x="240" y="354"/>
      <point x="199" y="383"/>
      <point x="145" y="383" type="curve" smooth="yes"/>
      <point x="91" y="383"/>
      <point x="50" y="354"/>
      <point x="50" y="271" type="curve" smooth="yes"/>
      <point x="50" y="207"/>
      <point x="75" y="176"/>
      <point x="108" y="167" type="curve"/>
      <point x="108" y="162" type="line"/>
      <point x="70" y="152"/>
      <point x="46" y="117"/>
      <point x="46" y="56" type="curve" smooth="yes"/>
      <point x="46" y="-32"/>
      <point x="88" y="-65"/>
    </contour>
    <contour>
      <point x="145" y="-38" type="curve" smooth="yes"/>
      <point x="104" y="-38"/>
      <point x="78" y="-11"/>
      <point x="78" y="35" type="curve" smooth="yes"/>
      <point x="78" y="75" type="line" smooth="yes"/>
      <point x="78" y="122"/>
      <point x="104" y="150"/>
      <point x="145" y="150" type="curve" smooth="yes"/>
      <point x="185" y="150"/>
      <point x="211" y="122"/>
      <point x="211" y="75" type="curve" smooth="yes"/>
      <point x="211" y="35" type="line" smooth="yes"/>
      <point x="211" y="-11"/>
      <point x="185" y="-38"/>
    </contour>
    <contour>
      <point x="145" y="180" type="curve" smooth="yes"/>
      <point x="105" y="180"/>
      <point x="81" y="205"/>
      <point x="81" y="249" type="curve" smooth="yes"/>
      <point x="81" y="283" type="line" smooth="yes"/>
      <point x="81" y="331"/>
      <point x="105" y="356"/>
      <point x="145" y="356" type="curve" smooth="yes"/>
      <point x="185" y="356"/>
      <point x="209" y="331"/>
      <point x="209" y="283" type="curve" smooth="yes"/>
      <point x="209" y="249" type="line" smooth="yes"/>
      <point x="209" y="205"/>
      <point x="185" y="180"/>
    </contour>
  </outline>
</glyph>
<glyph name="rupeeIndian" format="2">
  <advance width="413"/>
  <unicode hex="20B9"/>
  <outline>
    <contour>
      <point x="249" y="0" type="line"/>
      <point x="283" y="0" type="line"/>
      <point x="86" y="344" type="line"/>
      <point x="86" y="335" type="line"/>
      <point x="115" y="335" type="line" smooth="yes"/>
      <point x="214" y="335"/>
      <point x="279" y="398"/>
      <point x="279" y="532" type="curve" smooth="yes"/>
      <point x="279" y="616"/>
      <point x="256" y="678"/>
      <point x="203" y="705" type="curve"/>
      <point x="196" y="701" type="line"/>
      <point x="366" y="701" type="line"/>
      <point x="366" y="729" type="line"/>
      <point x="51" y="729" type="line"/>
      <point x="51" y="701" type="line"/>
      <point x="115" y="701" type="line" smooth="yes"/>
      <point x="197" y="701"/>
      <point x="245" y="655"/>
      <point x="245" y="558" type="curve" smooth="yes"/>
      <point x="245" y="506" type="line" smooth="yes"/>
      <point x="245" y="420"/>
      <point x="202" y="363"/>
      <point x="115" y="363" type="curve" smooth="yes"/>
      <point x="51" y="363" type="line"/>
      <point x="51" y="344" type="line"/>
    </contour>
    <contour>
      <point x="51" y="516" type="line"/>
      <point x="260" y="516" type="line"/>
      <point x="260" y="544" type="line"/>
      <point x="51" y="544" type="line"/>
    </contour>
    <contour>
      <point x="260" y="516" type="line"/>
      <point x="366" y="516" type="line"/>
      <point x="366" y="544" type="line"/>
      <point x="260" y="544" type="line"/>
    </contour>
  </outline>
</glyph>
<glyph name="liraTurkish" format="2">
  <advance width="478"/>
  <unicode hex="20BA"/>
  <outline>
    <contour>
      <point x="152" y="0" type="line"/>
      <point x="177" y="0" type="line" smooth="yes"/>
      <point x="335" y="0"/>
      <point x="432" y="126"/>
      <point x="429" y="316" type="curve"/>
      <point x="397" y="316" type="line"/>
      <point x="398" y="147"/>
      <point x="321" y="32"/>
      <point x="184" y="29" type="curve"/>
      <point x="184" y="729" type="line"/>
      <point x="152" y="729" type="line"/>
    </contour>
    <contour>
      <point x="49" y="288" type="line"/>
      <point x="340" y="404" type="line"/>
      <point x="340" y="436" type="line"/>
      <point x="49" y="320" type="line"/>
    </contour>
    <contour>
      <point x="49" y="446" type="line"/>
      <point x="340" y="562" type="line"/>
      <point x="340" y="594" type="line"/>
      <point x="49" y="477" type="line"/>
    </contour>
  </outline>
</glyph>
<glyph name="literSign" format="2">
  <advance width="380"/>
  <unicode hex="2113"/>
  <outline>
    <contour>
      <point x="206" y="-9" type="curve" smooth="yes"/>
      <point x="264" y="-9"/>
      <point x="308" y="35"/>
      <point x="334" y="117" type="curve"/>
      <point x="304" y="125" type="line"/>
      <point x="282" y="57"/>
      <point x="249" y="23"/>
      <point x="206" y="23" type="curve" smooth="yes"/>
      <point x="144" y="23"/>
      <point x="109" y="145"/>
      <point x="109" y="389" type="curve" smooth="yes"/>
      <point x="109" y="583"/>
      <point x="149" y="706"/>
      <point x="208" y="706" type="curve" smooth="yes"/>
      <point x="253" y="706"/>
      <point x="278" y="650"/>
      <point x="278" y="537" type="curve" smooth="yes"/>
      <point x="278" y="320"/>
      <point x="185" y="168"/>
      <point x="31" y="136" type="curve"/>
      <point x="31" y="104" type="line"/>
      <point x="203" y="136"/>
      <point x="308" y="301"/>
      <point x="308" y="537" type="curve" smooth="yes"/>
      <point x="308" y="668"/>
      <point x="274" y="738"/>
      <point x="208" y="738" type="curve" smooth="yes"/>
      <point x="126" y="738"/>
      <point x="79" y="605"/>
      <point x="79" y="389" type="curve" smooth="yes"/>
      <point x="79" y="123"/>
      <point x="119" y="-9"/>
    </contour>
  </outline>
</glyph>
<glyph name="numero" format="2">
  <advance width="673"/>
  <unicode hex="2116"/>
  <outline>
    <contour>
      <point x="72" y="0" type="line"/>
      <point x="102" y="0" type="line"/>
      <point x="102" y="695" type="line"/>
      <point x="104" y="695" type="line"/>
      <point x="113" y="664" type="line"/>
      <point x="315" y="0" type="line"/>
      <point x="366" y="0" type="line"/>
      <point x="366" y="729" type="line"/>
      <point x="336" y="729" type="line"/>
      <point x="336" y="36" type="line"/>
      <point x="333" y="36" type="line"/>
      <point x="326" y="62" type="line"/>
      <point x="123" y="729" type="line"/>
      <point x="72" y="729" type="line"/>
    </contour>
    <contour>
      <point x="445" y="243" type="line"/>
      <point x="601" y="243" type="line"/>
      <point x="601" y="273" type="line"/>
      <point x="445" y="273" type="line"/>
    </contour>
    <contour>
      <point x="523" y="324" type="curve" smooth="yes"/>
      <point x="590" y="324"/>
      <point x="617" y="399"/>
      <point x="617" y="527" type="curve" smooth="yes"/>
      <point x="617" y="655"/>
      <point x="590" y="729"/>
      <point x="523" y="729" type="curve" smooth="yes"/>
      <point x="455" y="729"/>
      <point x="428" y="655"/>
      <point x="428" y="527" type="curve" smooth="yes"/>
      <point x="428" y="399"/>
      <point x="455" y="324"/>
    </contour>
    <contour>
      <point x="523" y="353" type="curve" smooth="yes"/>
      <point x="484" y="353"/>
      <point x="461" y="390"/>
      <point x="461" y="527" type="curve" smooth="yes"/>
      <point x="461" y="663"/>
      <point x="484" y="701"/>
      <point x="523" y="701" type="curve" smooth="yes"/>
      <point x="561" y="701"/>
      <point x="584" y="663"/>
      <point x="584" y="527" type="curve" smooth="yes"/>
      <point x="584" y="390"/>
      <point x="561" y="353"/>
    </contour>
  </outline>
</glyph>
<glyph name="trademark" format="2">
  <advance width="569"/>
  <unicode hex="2122"/>
  <outline>
    <contour>
      <point x="282" y="419" type="line"/>
      <point x="314" y="419" type="line"/>
      <point x="314" y="569" type="line"/>
      <point x="313" y="686" type="line"/>
      <point x="315" y="686" type="line"/>
      <point x="384" y="419" type="line"/>
      <point x="420" y="419" type="line"/>
      <point x="490" y="686" type="line"/>
      <point x="492" y="686" type="line"/>
      <point x="490" y="569" type="line"/>
      <point x="490" y="419" type="line"/>
      <point x="524" y="419" type="line"/>
      <point x="524" y="729" type="line"/>
      <point x="471" y="729" type="line"/>
      <point x="403" y="462" type="line"/>
      <point x="401" y="462" type="line"/>
      <point x="333" y="729" type="line"/>
      <point x="282" y="729" type="line"/>
    </contour>
    <contour>
      <point x="107" y="419" type="line"/>
      <point x="140" y="419" type="line"/>
      <point x="140" y="699" type="line"/>
      <point x="226" y="699" type="line"/>
      <point x="226" y="729" type="line"/>
      <point x="25" y="729" type="line"/>
      <point x="25" y="699" type="line"/>
      <point x="107" y="699" type="line"/>
    </contour>
  </outline>
</glyph>
<glyph name="leftRightArrow" format="2">
  <advance width="659"/>
  <unicode hex="2194"/>
  <outline>
    <contour>
      <point x="184" y="197" type="line"/>
      <point x="221" y="197" type="line"/>
      <point x="109" y="350" type="line"/>
      <point x="550" y="350" type="line"/>
      <point x="438" y="197" type="line"/>
      <point x="475" y="197" type="line"/>
      <point x="599" y="365" type="line"/>
      <point x="475" y="533" type="line"/>
      <point x="438" y="533" type="line"/>
      <point x="550" y="380" type="line"/>
      <point x="109" y="380" type="line"/>
      <point x="221" y="533" type="line"/>
      <point x="184" y="533" type="line"/>
      <point x="60" y="365" type="line"/>
    </contour>
  </outline>
</glyph>
<glyph name="emptyset" format="2">
  <advance width="789"/>
  <unicode hex="2205"/>
  <outline>
    <contour>
      <point x="680" y="558" type="line"/>
      <point x="95" y="201" type="line"/>
      <point x="105" y="172" type="line"/>
      <point x="694" y="530" type="line"/>
    </contour>
    <contour>
      <point x="395" y="0" type="curve" smooth="yes"/>
      <point x="591" y="0"/>
      <point x="754" y="151"/>
      <point x="754" y="366" type="curve" smooth="yes"/>
      <point x="754" y="578"/>
      <point x="591" y="729"/>
      <point x="395" y="729" type="curve" smooth="yes"/>
      <point x="197" y="729"/>
      <point x="35" y="578"/>
      <point x="35" y="366" type="curve" smooth="yes"/>
      <point x="35" y="151"/>
      <point x="197" y="0"/>
    </contour>
    <contour>
      <point x="395" y="28" type="curve" smooth="yes"/>
      <point x="218" y="28"/>
      <point x="68" y="171"/>
      <point x="68" y="366" type="curve" smooth="yes"/>
      <point x="68" y="560"/>
      <point x="218" y="701"/>
      <point x="395" y="701" type="curve" smooth="yes"/>
      <point x="571" y="701"/>
      <point x="721" y="560"/>
      <point x="721" y="366" type="curve" smooth="yes"/>
      <point x="721" y="171"/>
      <point x="571" y="28"/>
    </contour>
  </outline>
</glyph>
<glyph name="summation" format="2">
  <advance width="374"/>
  <unicode hex="2211"/>
  <outline>
    <contour>
      <point x="30" y="-93" type="line"/>
      <point x="346" y="-93" type="line"/>
      <point x="346" y="-64" type="line"/>
      <point x="62" y="-64" type="line"/>
      <point x="62" y="-61" type="line"/>
      <point x="246" y="318" type="line"/>
      <point x="62" y="697" type="line"/>
      <point x="62" y="700" type="line"/>
      <point x="346" y="700" type="line"/>
      <point x="346" y="729" type="line"/>
      <point x="30" y="729" type="line"/>
      <point x="30" y="696" type="line"/>
      <point x="209" y="320" type="line"/>
      <point x="209" y="317" type="line"/>
      <point x="30" y="-60" type="line"/>
    </contour>
  </outline>
</glyph>
<glyph name="minus" format="2">
  <advance width="500"/>
  <unicode hex="2212"/>
  <outline>
    <contour>
      <point x="7" y="347" type="line"/>
      <point x="393" y="347" type="line"/>
      <point x="393" y="375" type="line"/>
      <point x="7" y="375" type="line"/>
    </contour>
  </outline>
</glyph>
<glyph name="radical" format="2">
  <advance width="465"/>
  <unicode hex="221A"/>
  <outline>
    <contour>
      <point x="199" y="-93" type="line"/>
      <point x="233" y="-93" type="line"/>
      <point x="437" y="729" type="line"/>
      <point x="407" y="729" type="line"/>
      <point x="216" y="-42" type="line"/>
      <point x="214" y="-42" type="line"/>
      <point x="106" y="369" type="line"/>
      <point x="27" y="369" type="line"/>
      <point x="27" y="335" type="line"/>
      <point x="84" y="335" type="line"/>
    </contour>
  </outline>
</glyph>
<glyph name="infinity" format="2">
  <advance width="813"/>
  <unicode hex="221E"/>
  <outline>
    <contour>
      <point x="207" y="189" type="curve" smooth="yes"/>
      <point x="302" y="189"/>
      <point x="359" y="262"/>
      <point x="408" y="342" type="curve"/>
      <point x="461" y="254"/>
      <point x="515" y="189"/>
      <point x="610" y="189" type="curve" smooth="yes"/>
      <point x="714" y="189"/>
      <point x="772" y="274"/>
      <point x="772" y="363" type="curve" smooth="yes"/>
      <point x="772" y="456"/>
      <point x="714" y="540"/>
      <point x="610" y="540" type="curve" smooth="yes"/>
      <point x="511" y="540"/>
      <point x="457" y="466"/>
      <point x="408" y="388" type="curve"/>
      <point x="359" y="466"/>
      <point x="304" y="540"/>
      <point x="206" y="540" type="curve" smooth="yes"/>
      <point x="103" y="540"/>
      <point x="41" y="458"/>
      <point x="41" y="363" type="curve" smooth="yes"/>
      <point x="41" y="266"/>
      <point x="102" y="189"/>
    </contour>
    <contour>
      <point x="206" y="218" type="curve" smooth="yes"/>
      <point x="125" y="218"/>
      <point x="69" y="275"/>
      <point x="69" y="364" type="curve" smooth="yes"/>
      <point x="69" y="450"/>
      <point x="124" y="512"/>
      <point x="205" y="512" type="curve" smooth="yes"/>
      <point x="280" y="512"/>
      <point x="325" y="462"/>
      <point x="390" y="365" type="curve"/>
      <point x="323" y="261"/>
      <point x="273" y="218"/>
    </contour>
    <contour>
      <point x="610" y="218" type="curve" smooth="yes"/>
      <point x="535" y="218"/>
      <point x="491" y="266"/>
      <point x="425" y="365" type="curve"/>
      <point x="490" y="463"/>
      <point x="536" y="512"/>
      <point x="610" y="512" type="curve" smooth="yes"/>
      <point x="691" y="512"/>
      <point x="746" y="448"/>
      <point x="746" y="364" type="curve" smooth="yes"/>
      <point x="746" y="282"/>
      <point x="691" y="218"/>
    </contour>
  </outline>
</glyph>
<glyph name="integral" format="2">
  <advance width="330"/>
  <unicode hex="222B"/>
  <outline>
    <contour>
      <point x="26" y="-93" type="line"/>
      <point x="140" y="-93" type="line" smooth="yes"/>
      <point x="165" y="-93"/>
      <point x="181" y="-75"/>
      <point x="181" y="-48" type="curve" smooth="yes"/>
      <point x="181" y="699" type="line"/>
      <point x="304" y="699" type="line"/>
      <point x="304" y="729" type="line"/>
      <point x="193" y="729" type="line" smooth="yes"/>
      <point x="167" y="729"/>
      <point x="150" y="717"/>
      <point x="150" y="687" type="curve" smooth="yes"/>
      <point x="150" y="-64" type="line"/>
      <point x="26" y="-64" type="line"/>
    </contour>
  </outline>
</glyph>
<glyph name="approxequal" format="2">
  <advance width="500"/>
  <unicode hex="2248"/>
  <outline>
    <contour>
      <point x="64" y="389" type="curve"/>
      <point x="84" y="389" type="line"/>
      <point x="81" y="430"/>
      <point x="87" y="454"/>
      <point x="121" y="454" type="curve" smooth="yes"/>
      <point x="159" y="454"/>
      <point x="230" y="390"/>
      <point x="279" y="390" type="curve" smooth="yes"/>
      <point x="323" y="390"/>
      <point x="346" y="421"/>
      <point x="336" y="481" type="curve"/>
      <point x="316" y="481" type="line"/>
      <point x="319" y="440"/>
      <point x="313" y="416"/>
      <point x="279" y="416" type="curve" smooth="yes"/>
      <point x="241" y="416"/>
      <point x="170" y="480"/>
      <point x="121" y="480" type="curve" smooth="yes"/>
      <point x="77" y="480"/>
      <point x="54" y="449"/>
    </contour>
    <contour>
      <point x="64" y="249" type="curve"/>
      <point x="84" y="249" type="line"/>
      <point x="81" y="290"/>
      <point x="87" y="314"/>
      <point x="121" y="314" type="curve" smooth="yes"/>
      <point x="159" y="314"/>
      <point x="230" y="250"/>
      <point x="279" y="250" type="curve" smooth="yes"/>
      <point x="323" y="250"/>
      <point x="346" y="281"/>
      <point x="336" y="341" type="curve"/>
      <point x="316" y="341" type="line"/>
      <point x="319" y="300"/>
      <point x="313" y="276"/>
      <point x="279" y="276" type="curve" smooth="yes"/>
      <point x="241" y="276"/>
      <point x="170" y="340"/>
      <point x="121" y="340" type="curve" smooth="yes"/>
      <point x="77" y="340"/>
      <point x="54" y="309"/>
    </contour>
  </outline>
</glyph>
<glyph name="notequal" format="2">
  <advance width="500"/>
  <unicode hex="2260"/>
  <outline>
    <contour>
      <point x="136" y="130" type="line"/>
      <point x="165" y="130" type="line"/>
      <point x="365" y="591" type="line"/>
      <point x="335" y="591" type="line"/>
    </contour>
    <contour>
      <point x="27" y="257" type="line"/>
      <point x="473" y="257" type="line"/>
      <point x="473" y="285" type="line"/>
      <point x="27" y="285" type="line"/>
    </contour>
    <contour>
      <point x="27" y="437" type="line"/>
      <point x="473" y="437" type="line"/>
      <point x="473" y="465" type="line"/>
      <point x="27" y="465" type="line"/>
    </contour>
  </outline>
</glyph>
<glyph name="lessequal" format="2">
  <advance width="500"/>
  <unicode hex="2264"/>
  <outline>
    <contour>
      <point x="415" y="145" type="line"/>
      <point x="415" y="177" type="line"/>
      <point x="15" y="359" type="line"/>
      <point x="15" y="363" type="line"/>
      <point x="415" y="545" type="line"/>
      <point x="415" y="577" type="line"/>
      <point x="-16" y="383" type="line"/>
      <point x="-16" y="339" type="line"/>
    </contour>
    <contour>
      <point x="-16" y="0" type="line"/>
      <point x="415" y="0" type="line"/>
      <point x="415" y="28" type="line"/>
      <point x="-16" y="28" type="line"/>
    </contour>
  </outline>
</glyph>
<glyph name="whiteCircle" format="2">
  <advance width="551"/>
  <unicode hex="25CB"/>
  <anchor x="276" y="365" name="center"/>
  <outline>
    <contour>
      <point x="276" y="-30" type="curve" smooth="yes"/>
      <point x="402" y="-30"/>
      <point x="487" y="59"/>
      <point x="487" y="190" type="curve" smooth="yes"/>
      <point x="487" y="306"/>
      <point x="487" y="423"/>
      <point x="487" y="539" type="curve" smooth="yes"/>
      <point x="487" y="671"/>
      <point x="401" y="759"/>
      <point x="276" y="759" type="curve" smooth="yes"/>
      <point x="149" y="759"/>
      <point x="64" y="670"/>
      <point x="64" y="539" type="curve" smooth="yes"/>
      <point x="64" y="423"/>
      <point x="64" y="306"/>
      <point x="64" y="190" type="curve" smooth="yes"/>
      <point x="64" y="58"/>
      <point x="150" y="-30"/>
    </contour>
    <contour>
      <point x="276" y="1" type="curve" smooth="yes"/>
      <point x="168" y="1"/>
      <point x="95" y="77"/>
      <point x="95" y="190" type="curve" smooth="yes"/>
      <point x="95" y="306"/>
      <point x="95" y="423"/>
      <point x="95" y="539" type="curve" smooth="yes"/>
      <point x="95" y="653"/>
      <point x="169" y="728"/>
      <point x="276" y="728" type="curve" smooth="yes"/>
      <point x="384" y="728"/>
      <point x="456" y="652"/>
      <point x="456" y="539" type="curve" smooth="yes"/>
      <point x="456" y="423"/>
      <point x="456" y="306"/>
      <point x="456" y="190" type="curve" smooth="yes"/>
      <point x="456" y="76"/>
      <point x="383" y="1"/>
    </contour>
  </outline>
</glyph>
<glyph name="blackCircle" format="2">
  <advance width="551"/>
  <unicode hex="25CF"/>
  <anchor x="276" y="365" name="center"/>
  <outline>
    <contour>
      <point x="276" y="-30" type="curve" smooth="yes"/>
      <point x="150" y="-30"/>
      <point x="64" y="58"/>
      <point x="64" y="190" type="curve" smooth="yes"/>
      <point x="64" y="306"/>
      <point x="64" y="423"/>
      <point x="64" y="539" type="curve" smooth="yes"/>
      <point x="64" y="670"/>
      <point x="149" y="759"/>
      <point x="276" y="759" type="curve" smooth="yes"/>
      <point x="401" y="759"/>
      <point x="487" y="671"/>
      <point x="487" y="539" type="curve" smooth="yes"/>
      <point x="487" y="423"/>
      <point x="487" y="306"/>
      <point x="487" y="190" type="curve" smooth="yes"/>
      <point x="487" y="59"/>
      <point x="402" y="-30"/>
    </contour>
  </outline>
</glyph>
<glyph name="whiteFrowningFace" format="2">
  <advance width="889"/>
  <unicode hex="2639"/>
  <outline>
    <contour>
      <point x="445" y="-10" type="curve" smooth="yes"/>
      <point x="662" y="-10"/>
      <point x="819" y="140"/>
      <point x="819" y="366" type="curve" smooth="yes"/>
      <point x="819" y="590"/>
      <point x="662" y="739"/>
      <point x="445" y="739" type="curve" smooth="yes"/>
      <point x="228" y="739"/>
      <point x="70" y="590"/>
      <point x="70" y="366" type="curve" smooth="yes"/>
      <point x="70" y="140"/>
      <point x="228" y="-10"/>
    </contour>
    <contour>
      <point x="248" y="177" type="line"/>
      <point x="284" y="244"/>
      <point x="358" y="285"/>
      <point x="445" y="285" type="curve" smooth="yes"/>
      <point x="532" y="285"/>
      <point x="606" y="244"/>
      <point x="642" y="177" type="curve"/>
      <point x="670" y="189" type="line"/>
      <point x="631" y="268"/>
      <point x="550" y="316"/>
      <point x="445" y="316" type="curve" smooth="yes"/>
      <point x="340" y="316"/>
      <point x="259" y="268"/>
      <point x="220" y="189" type="curve"/>
    </contour>
    <contour>
      <point x="445" y="19" type="curve" smooth="yes"/>
      <point x="247" y="19"/>
      <point x="103" y="158"/>
      <point x="103" y="366" type="curve" smooth="yes"/>
      <point x="103" y="572"/>
      <point x="247" y="710"/>
      <point x="445" y="710" type="curve" smooth="yes"/>
      <point x="642" y="710"/>
      <point x="786" y="572"/>
      <point x="786" y="366" type="curve" smooth="yes"/>
      <point x="786" y="158"/>
      <point x="642" y="19"/>
    </contour>
    <contour>
      <point x="357" y="392" type="curve" smooth="yes"/>
      <point x="375" y="392"/>
      <point x="384" y="405"/>
      <point x="384" y="426" type="curve" smooth="yes"/>
      <point x="384" y="491" type="line" smooth="yes"/>
      <point x="384" y="512"/>
      <point x="375" y="525"/>
      <point x="357" y="525" type="curve" smooth="yes"/>
      <point x="339" y="525"/>
      <point x="330" y="512"/>
      <point x="330" y="491" type="curve" smooth="yes"/>
      <point x="330" y="426" type="line" smooth="yes"/>
      <point x="330" y="405"/>
      <point x="339" y="392"/>
    </contour>
    <contour>
      <point x="533" y="392" type="curve" smooth="yes"/>
      <point x="551" y="392"/>
      <point x="560" y="405"/>
      <point x="560" y="426" type="curve" smooth="yes"/>
      <point x="560" y="491" type="line" smooth="yes"/>
      <point x="560" y="512"/>
      <point x="551" y="525"/>
      <point x="533" y="525" type="curve" smooth="yes"/>
      <point x="515" y="525"/>
      <point x="506" y="512"/>
      <point x="506" y="491" type="curve" smooth="yes"/>
      <point x="506" y="426" type="line" smooth="yes"/>
      <point x="506" y="405"/>
      <point x="515" y="392"/>
    </contour>
  </outline>
</glyph>
<glyph name="whiteSmilingFace" format="2">
  <advance width="889"/>
  <unicode hex="263A"/>
  <outline>
    <contour>
      <point x="445" y="-10" type="curve" smooth="yes"/>
      <point x="662" y="-10"/>
      <point x="819" y="140"/>
      <point x="819" y="366" type="curve" smooth="yes"/>
      <point x="819" y="590"/>
      <point x="662" y="739"/>
      <point x="445" y="739" type="curve" smooth="yes"/>
      <point x="228" y="739"/>
      <point x="70" y="590"/>
      <point x="70" y="366" type="curve" smooth="yes"/>
      <point x="70" y="140"/>
      <point x="228" y="-10"/>
    </contour>
    <contour>
      <point x="443" y="105" type="curve" smooth="yes"/>
      <point x="582" y="105"/>
      <point x="677" y="187"/>
      <point x="695" y="311" type="curve"/>
      <point x="731" y="311" type="line"/>
      <point x="731" y="326" type="line"/>
      <point x="622" y="326" type="line"/>
      <point x="622" y="311" type="line"/>
      <point x="661" y="311" type="line"/>
      <point x="649" y="206"/>
      <point x="560" y="136"/>
      <point x="443" y="136" type="curve" smooth="yes"/>
      <point x="329" y="136"/>
      <point x="239" y="206"/>
      <point x="226" y="311" type="curve"/>
      <point x="267" y="311" type="line"/>
      <point x="267" y="326" type="line"/>
      <point x="158" y="326" type="line"/>
      <point x="158" y="311" type="line"/>
      <point x="193" y="311" type="line"/>
      <point x="210" y="187"/>
      <point x="306" y="105"/>
    </contour>
    <contour>
      <point x="445" y="19" type="curve" smooth="yes"/>
      <point x="247" y="19"/>
      <point x="103" y="158"/>
      <point x="103" y="366" type="curve" smooth="yes"/>
      <point x="103" y="572"/>
      <point x="247" y="710"/>
      <point x="445" y="710" type="curve" smooth="yes"/>
      <point x="642" y="710"/>
      <point x="786" y="572"/>
      <point x="786" y="366" type="curve" smooth="yes"/>
      <point x="786" y="158"/>
      <point x="642" y="19"/>
    </contour>
    <contour>
      <point x="357" y="392" type="curve" smooth="yes"/>
      <point x="375" y="392"/>
      <point x="384" y="405"/>
      <point x="384" y="426" type="curve" smooth="yes"/>
      <point x="384" y="491" type="line" smooth="yes"/>
      <point x="384" y="512"/>
      <point x="375" y="525"/>
      <point x="357" y="525" type="curve" smooth="yes"/>
      <point x="339" y="525"/>
      <point x="330" y="512"/>
      <point x="330" y="491" type="curve" smooth="yes"/>
      <point x="330" y="426" type="line" smooth="yes"/>
      <point x="330" y="405"/>
      <point x="339" y="392"/>
    </contour>
    <contour>
      <point x="533" y="392" type="curve" smooth="yes"/>
      <point x="551" y="392"/>
      <point x="560" y="405"/>
      <point x="560" y="426" type="curve" smooth="yes"/>
      <point x="560" y="491" type="line" smooth="yes"/>
      <point x="560" y="512"/>
      <point x="551" y="525"/>
      <point x="533" y="525" type="curve" smooth="yes"/>
      <point x="515" y="525"/>
      <point x="506" y="512"/>
      <point x="506" y="491" type="curve" smooth="yes"/>
      <point x="506" y="426" type="line" smooth="yes"/>
      <point x="506" y="405"/>
      <point x="515" y="392"/>
    </contour>
  </outline>
</glyph>
<glyph name="checkmark" format="2">
  <advance width="806"/>
  <unicode hex="2713"/>
  <outline>
    <contour>
      <point x="243" y="137" type="line"/>
      <point x="749" y="560" type="line"/>
      <point x="726" y="587" type="line"/>
      <point x="247" y="187" type="line"/>
      <point x="83" y="412" type="line"/>
      <point x="57" y="389" type="line"/>
    </contour>
  </outline>
</glyph>
<glyph name="fi" format="2">
  <advance width="362"/>
  <unicode hex="FB01"/>
  <anchor x="181" y="0" name="caret_1"/>
  <outline>
    <contour>
      <point x="97" y="0" type="line"/>
      <point x="128" y="0" type="line"/>
      <point x="128" y="488" type="line"/>
      <point x="271" y="488" type="line"/>
      <point x="271" y="0" type="line"/>
      <point x="302" y="0" type="line"/>
      <point x="302" y="515" type="line"/>
      <point x="128" y="515" type="line"/>
      <point x="128" y="700" type="line"/>
      <point x="302" y="700" type="line"/>
      <point x="302" y="729" type="line"/>
      <point x="131" y="729" type="line" smooth="yes"/>
      <point x="109" y="729"/>
      <point x="97" y="717"/>
      <point x="97" y="695" type="curve" smooth="yes"/>
      <point x="97" y="515" type="line"/>
      <point x="27" y="515" type="line"/>
      <point x="27" y="488" type="line"/>
      <point x="97" y="488" type="line"/>
    </contour>
  </outline>
</glyph>
<glyph name="fl" format="2">
  <advance width="402"/>
  <unicode hex="FB02"/>
  <anchor x="201" y="0" name="caret_1"/>
  <outline>
    <contour>
      <point x="97" y="0" type="line"/>
      <point x="128" y="0" type="line"/>
      <point x="128" y="488" type="line"/>
      <point x="208" y="488" type="line"/>
      <point x="208" y="515" type="line"/>
      <point x="128" y="515" type="line"/>
      <point x="128" y="700" type="line"/>
      <point x="311" y="700" type="line"/>
      <point x="311" y="0" type="line"/>
      <point x="342" y="0" type="line"/>
      <point x="342" y="729" type="line"/>
      <point x="131" y="729" type="line" smooth="yes"/>
      <point x="109" y="729"/>
      <point x="97" y="717"/>
      <point x="97" y="695" type="curve" smooth="yes"/>
      <point x="97" y="515" type="line"/>
      <point x="27" y="515" type="line"/>
      <point x="27" y="488" type="line"/>
      <point x="97" y="488" type="line"/>
    </contour>
  </outline>
</glyph>
<glyph name="I.ss04" format="2">
  <advance width="175"/>
  <note>
I
</note>
  <anchor x="88" y="0" name="bottom"/>
  <anchor x="103" y="0" name="ogonek"/>
  <anchor x="88" y="729" name="top"/>
  <anchor x="4" y="729" name="topleft"/>
  <outline>
    <contour>
      <point x="72" y="0" type="line"/>
      <point x="103" y="0" type="line"/>
      <point x="103" y="729" type="line"/>
      <point x="72" y="729" type="line"/>
    </contour>
  </outline>
</glyph>
<glyph name="_AE.E" format="2">
  <advance width="381"/>
  <anchor x="179" y="0" name="#entry"/>
  <outline>
    <contour>
      <point x="40" y="701" type="line"/>
      <point x="336" y="701" type="line"/>
      <point x="336" y="729" type="line"/>
      <point x="40" y="729" type="line"/>
    </contour>
    <contour>
      <point x="179" y="0" type="line"/>
      <point x="341" y="0" type="line"/>
      <point x="341" y="28" type="line"/>
      <point x="179" y="28" type="line"/>
    </contour>
    <contour>
      <point x="113" y="362" type="line"/>
      <point x="319" y="362" type="line"/>
      <point x="319" y="390" type="line"/>
      <point x="113" y="390" type="line"/>
    </contour>
  </outline>
</glyph>
<glyph name="_Euro.bars" format="2">
  <advance width="309"/>
  <anchor x="255" y="0" name="_bottom"/>
  <outline>
    <contour>
      <point x="269" y="280" type="line"/>
      <point x="269" y="306" type="line"/>
      <point x="116" y="306" type="line"/>
      <point x="116" y="280" type="line"/>
    </contour>
    <contour>
      <point x="40" y="280" type="line"/>
      <point x="116" y="280" type="line"/>
      <point x="116" y="306" type="line"/>
      <point x="40" y="306" type="line"/>
    </contour>
    <contour>
      <point x="40" y="422" type="line"/>
      <point x="116" y="422" type="line"/>
      <point x="116" y="448" type="line"/>
      <point x="40" y="448" type="line"/>
    </contour>
    <contour>
      <point x="269" y="422" type="line"/>
      <point x="269" y="448" type="line"/>
      <point x="116" y="448" type="line"/>
      <point x="116" y="422" type="line"/>
    </contour>
  </outline>
</glyph>
<glyph name="_OE.O" format="2">
  <advance width="335"/>
  <anchor x="289" y="0" name="#exit"/>
  <outline>
    <contour>
      <point x="229" y="0" type="curve" smooth="yes"/>
      <point x="295" y="0" type="line"/>
      <point x="295" y="28" type="line"/>
      <point x="229" y="28" type="line" smooth="yes"/>
      <point x="118" y="28"/>
      <point x="92" y="110"/>
      <point x="92" y="233" type="curve" smooth="yes"/>
      <point x="92" y="496" type="line" smooth="yes"/>
      <point x="92" y="619"/>
      <point x="118" y="701"/>
      <point x="229" y="701" type="curve" smooth="yes"/>
      <point x="295" y="701" type="line"/>
      <point x="295" y="729" type="line"/>
      <point x="229" y="729" type="line" smooth="yes"/>
      <point x="126" y="729"/>
      <point x="61" y="672"/>
      <point x="61" y="497" type="curve" smooth="yes"/>
      <point x="61" y="232" type="line" smooth="yes"/>
      <point x="61" y="57"/>
      <point x="126" y="0"/>
    </contour>
  </outline>
</glyph>
<glyph name="_bitcoin.bars" format="2">
  <advance width="185"/>
  <anchor x="109" y="0" name="_bottom"/>
  <outline>
    <contour>
      <point x="117" y="713" type="line"/>
      <point x="145" y="713" type="line"/>
      <point x="145" y="850" type="line"/>
      <point x="117" y="850" type="line"/>
    </contour>
    <contour>
      <point x="40" y="-121" type="line"/>
      <point x="68" y="-121" type="line"/>
      <point x="68" y="12" type="line"/>
      <point x="40" y="12" type="line"/>
    </contour>
    <contour>
      <point x="117" y="-121" type="line"/>
      <point x="145" y="-121" type="line"/>
      <point x="145" y="12" type="line"/>
      <point x="117" y="12" type="line"/>
    </contour>
    <contour>
      <point x="40" y="713" type="line"/>
      <point x="68" y="713" type="line"/>
      <point x="68" y="850" type="line"/>
      <point x="40" y="850" type="line"/>
    </contour>
  </outline>
</glyph>
<glyph name="_copyright.C" format="2">
  <advance width="305"/>
  <anchor x="153" y="365" name="_center"/>
  <outline>
    <contour>
      <point x="152" y="88" type="curve" smooth="yes"/>
      <point x="233" y="88"/>
      <point x="265" y="140"/>
      <point x="265" y="264" type="curve"/>
      <point x="232" y="264" type="line"/>
      <point x="234" y="159"/>
      <point x="215" y="116"/>
      <point x="152" y="116" type="curve" smooth="yes"/>
      <point x="104" y="116"/>
      <point x="72" y="139"/>
      <point x="72" y="229" type="curve" smooth="yes"/>
      <point x="72" y="500" type="line" smooth="yes"/>
      <point x="72" y="568"/>
      <point x="89" y="613"/>
      <point x="152" y="613" type="curve" smooth="yes"/>
      <point x="213" y="613"/>
      <point x="233" y="572"/>
      <point x="232" y="465" type="curve"/>
      <point x="265" y="465" type="line"/>
      <point x="265" y="587"/>
      <point x="235" y="641"/>
      <point x="152" y="641" type="curve" smooth="yes"/>
      <point x="84" y="641"/>
      <point x="40" y="607"/>
      <point x="40" y="498" type="curve" smooth="yes"/>
      <point x="40" y="231" type="line" smooth="yes"/>
      <point x="40" y="122"/>
      <point x="84" y="88"/>
    </contour>
  </outline>
</glyph>
<glyph name=".notdef" format="2">
  <advance width="864"/>
  <outline>
    <contour>
      <point x="431" y="738" type="curve" smooth="yes"/>
      <point x="219" y="738"/>
      <point x="49" y="567"/>
      <point x="49" y="356" type="curve" smooth="yes"/>
      <point x="49" y="186"/>
      <point x="157" y="41"/>
      <point x="311" y="-8" type="curve"/>
      <point x="325" y="-12"/>
      <point x="336" y="-5"/>
      <point x="336" y="10" type="curve" smooth="yes"/>
      <point x="336" y="19"/>
      <point x="336" y="48"/>
      <point x="336" y="80" type="curve"/>
      <point x="230" y="58"/>
      <point x="206" y="126"/>
      <point x="206" y="126" type="curve"/>
      <point x="190" y="171"/>
      <point x="166" y="182"/>
      <point x="166" y="182" type="curve"/>
      <point x="131" y="206"/>
      <point x="167" y="206"/>
      <point x="167" y="206" type="curve"/>
      <point x="205" y="203"/>
      <point x="227" y="165"/>
      <point x="227" y="165" type="curve"/>
      <point x="259" y="107"/>
      <point x="315" y="125"/>
      <point x="336" y="134" type="curve"/>
      <point x="340" y="158"/>
      <point x="351" y="176"/>
      <point x="362" y="186" type="curve"/>
      <point x="276" y="196"/>
      <point x="187" y="228"/>
      <point x="187" y="376" type="curve" smooth="yes"/>
      <point x="187" y="416"/>
      <point x="202" y="451"/>
      <point x="227" y="477" type="curve"/>
      <point x="223" y="487"/>
      <point x="209" y="526"/>
      <point x="231" y="579" type="curve"/>
      <point x="231" y="579"/>
      <point x="262" y="590"/>
      <point x="335" y="539" type="curve"/>
      <point x="367" y="549"/>
      <point x="399" y="553"/>
      <point x="431" y="553" type="curve" smooth="yes"/>
      <point x="464" y="553"/>
      <point x="496" y="549"/>
      <point x="528" y="539" type="curve"/>
      <point x="601" y="590"/>
      <point x="632" y="579"/>
      <point x="632" y="579" type="curve"/>
      <point x="654" y="526"/>
      <point x="640" y="487"/>
      <point x="636" y="477" type="curve"/>
      <point x="661" y="451"/>
      <point x="676" y="416"/>
      <point x="676" y="376" type="curve" smooth="yes"/>
      <point x="676" y="226"/>
      <point x="587" y="196"/>
      <point x="501" y="186" type="curve"/>
      <point x="514" y="175"/>
      <point x="527" y="150"/>
      <point x="527" y="115" type="curve" smooth="yes"/>
      <point x="527" y="65"/>
      <point x="527" y="21"/>
      <point x="527" y="10" type="curve" smooth="yes"/>
      <point x="527" y="-5"/>
      <point x="538" y="-12"/>
      <point x="554" y="-8" type="curve"/>
      <point x="706" y="41"/>
      <point x="814" y="186"/>
      <point x="814" y="356" type="curve" smooth="yes"/>
      <point x="814" y="567"/>
      <point x="644" y="738"/>
    </contour>
    <contour>
      <point x="195" y="189" type="line"/>
      <point x="194" y="186"/>
      <point x="190" y="186"/>
      <point x="187" y="187" type="curve"/>
      <point x="184" y="189"/>
      <point x="183" y="190"/>
      <point x="184" y="192" type="curve"/>
      <point x="184" y="194"/>
      <point x="187" y="196"/>
      <point x="190" y="192" type="curve"/>
      <point x="194" y="192"/>
      <point x="195" y="190"/>
      <point x="195" y="189" type="curve"/>
    </contour>
    <contour>
      <point x="208" y="171" type="line"/>
      <point x="206" y="168"/>
      <point x="204" y="171"/>
      <point x="201" y="172" type="curve"/>
      <point x="198" y="175"/>
      <point x="198" y="179"/>
      <point x="199" y="180" type="curve"/>
      <point x="202" y="182"/>
      <point x="205" y="182"/>
      <point x="208" y="179" type="curve"/>
      <point x="209" y="176"/>
      <point x="210" y="172"/>
      <point x="208" y="171" type="curve"/>
    </contour>
    <contour>
      <point x="226" y="148" type="line"/>
      <point x="223" y="146"/>
      <point x="217" y="148"/>
      <point x="215" y="151" type="curve"/>
      <point x="213" y="154"/>
      <point x="213" y="160"/>
      <point x="215" y="161" type="curve"/>
      <point x="217" y="162"/>
      <point x="223" y="161"/>
      <point x="226" y="158" type="curve"/>
      <point x="227" y="154"/>
      <point x="227" y="150"/>
      <point x="226" y="148" type="curve"/>
    </contour>
    <contour>
      <point x="245" y="127" type="line"/>
      <point x="243" y="125"/>
      <point x="238" y="126"/>
      <point x="236" y="129" type="curve"/>
      <point x="233" y="132"/>
      <point x="231" y="136"/>
      <point x="233" y="139" type="curve"/>
      <point x="236" y="141"/>
      <point x="240" y="140"/>
      <point x="243" y="137" type="curve"/>
      <point x="245" y="134"/>
      <point x="247" y="129"/>
      <point x="245" y="127" type="curve"/>
    </contour>
    <contour>
      <point x="273" y="115" type="line"/>
      <point x="272" y="112"/>
      <point x="268" y="111"/>
      <point x="263" y="112" type="curve"/>
      <point x="259" y="114"/>
      <point x="258" y="116"/>
      <point x="258" y="120" type="curve"/>
      <point x="259" y="123"/>
      <point x="262" y="125"/>
      <point x="268" y="123" type="curve"/>
      <point x="270" y="122"/>
      <point x="273" y="118"/>
      <point x="273" y="115" type="curve"/>
    </contour>
    <contour>
      <point x="304" y="114" type="line"/>
      <point x="304" y="111"/>
      <point x="301" y="107"/>
      <point x="297" y="105" type="curve"/>
      <point x="293" y="105"/>
      <point x="290" y="111"/>
      <point x="290" y="114" type="curve"/>
      <point x="290" y="116"/>
      <point x="293" y="118"/>
      <point x="297" y="118" type="curve"/>
      <point x="301" y="118"/>
      <point x="304" y="116"/>
      <point x="304" y="114" type="curve"/>
    </contour>
    <contour>
      <point x="333" y="118" type="line"/>
      <point x="335" y="115"/>
      <point x="330" y="112"/>
      <point x="326" y="111" type="curve"/>
      <point x="322" y="111"/>
      <point x="318" y="112"/>
      <point x="318" y="115" type="curve"/>
      <point x="316" y="118"/>
      <point x="319" y="122"/>
      <point x="325" y="122" type="curve"/>
      <point x="329" y="123"/>
      <point x="333" y="120"/>
      <point x="333" y="118" type="curve"/>
    </contour>
  </outline>
</glyph>
<glyph name="_published.P" format="2">
  <advance width="277"/>
  <anchor x="116" y="365" name="_center"/>
  <outline>
    <contour>
      <point x="40" y="88" type="line"/>
      <point x="69" y="88" type="line"/>
      <point x="69" y="616" type="line"/>
      <point x="109" y="616" type="line" smooth="yes"/>
      <point x="172" y="616"/>
      <point x="207" y="579"/>
      <point x="207" y="484" type="curve" smooth="yes"/>
      <point x="207" y="406"/>
      <point x="182" y="354"/>
      <point x="109" y="354" type="curve" smooth="yes"/>
      <point x="62" y="354" type="line"/>
      <point x="62" y="328" type="line"/>
      <point x="109" y="328" type="line" smooth="yes"/>
      <point x="195" y="328"/>
      <point x="237" y="384"/>
      <point x="237" y="484" type="curve" smooth="yes"/>
      <point x="237" y="584"/>
      <point x="195" y="641"/>
      <point x="109" y="641" type="curve" smooth="yes"/>
      <point x="40" y="641" type="line"/>
    </contour>
  </outline>
</glyph>
<glyph name="_tail.Q" format="2">
  <advance width="202"/>
  <anchor x="55" y="0" name="_bottom"/>
  <outline>
    <contour>
      <point x="79" y="-167" type="curve" smooth="yes"/>
      <point x="162" y="-167" type="line"/>
      <point x="162" y="-139" type="line"/>
      <point x="69" y="-139" type="line"/>
      <point x="69" y="4" type="line"/>
      <point x="40" y="4" type="line"/>
      <point x="40" y="-126" type="line" smooth="yes"/>
      <point x="40" y="-151"/>
      <point x="51" y="-167"/>
    </contour>
  </outline>
</glyph>
<glyph name="_tail.Q.ss01" format="2">
  <advance width="252"/>
  <anchor x="26" y="0" name="_bottom"/>
  <outline>
    <contour>
      <point x="212" y="-7" type="line"/>
      <point x="212" y="25" type="line"/>
      <point x="40" y="146" type="line"/>
      <point x="40" y="114" type="line"/>
    </contour>
  </outline>
</glyph>
<glyph name="_yen.bars" format="2">
  <advance width="379"/>
  <anchor x="190" y="0" name="_bottom"/>
  <outline>
    <contour>
      <point x="40" y="290" type="line"/>
      <point x="339" y="290" type="line"/>
      <point x="339" y="317" type="line"/>
      <point x="40" y="317" type="line"/>
    </contour>
    <contour>
      <point x="40" y="163" type="line"/>
      <point x="339" y="163" type="line"/>
      <point x="339" y="190" type="line"/>
      <point x="40" y="190" type="line"/>
    </contour>
  </outline>
</glyph>
<glyph name="a.ss01" format="2">
  <advance width="375"/>
  <note>
a
</note>
  <anchor x="183" y="0" name="bottom"/>
  <anchor x="315" y="0" name="ogonek"/>
  <anchor x="187" y="515" name="top"/>
  <outline>
    <contour>
      <point x="160" y="-6" type="curve" smooth="yes"/>
      <point x="217" y="-6"/>
      <point x="262" y="27"/>
      <point x="280" y="80" type="curve"/>
      <point x="284" y="80" type="line"/>
      <point x="288" y="0" type="line"/>
      <point x="315" y="0" type="line"/>
      <point x="315" y="388" type="line" smooth="yes"/>
      <point x="315" y="484"/>
      <point x="260" y="521"/>
      <point x="187" y="521" type="curve" smooth="yes"/>
      <point x="102" y="521"/>
      <point x="51" y="465"/>
      <point x="49" y="372" type="curve"/>
      <point x="79" y="372" type="line"/>
      <point x="81" y="464"/>
      <point x="127" y="494"/>
      <point x="186" y="494" type="curve" smooth="yes"/>
      <point x="247" y="494"/>
      <point x="284" y="466"/>
      <point x="284" y="386" type="curve" smooth="yes"/>
      <point x="284" y="142" type="line"/>
      <point x="264" y="62"/>
      <point x="225" y="21"/>
      <point x="164" y="21" type="curve" smooth="yes"/>
      <point x="106" y="21"/>
      <point x="76" y="62"/>
      <point x="76" y="140" type="curve" smooth="yes"/>
      <point x="76" y="145" type="line" smooth="yes"/>
      <point x="76" y="217"/>
      <point x="98" y="282"/>
      <point x="210" y="282" type="curve" smooth="yes"/>
      <point x="291" y="282" type="line"/>
      <point x="291" y="310" type="line"/>
      <point x="213" y="310" type="line" smooth="yes"/>
      <point x="81" y="310"/>
      <point x="45" y="232"/>
      <point x="45" y="140" type="curve" smooth="yes"/>
      <point x="45" y="46"/>
      <point x="88" y="-6"/>
    </contour>
  </outline>
</glyph>
<glyph name="braceleft.case" format="2">
  <advance width="300"/>
  <outline>
    <contour>
      <point x="160" y="-63" type="curve" smooth="yes"/>
      <point x="260" y="-63" type="line"/>
      <point x="260" y="-35" type="line"/>
      <point x="153" y="-35" type="line"/>
      <point x="153" y="262" type="line" smooth="yes"/>
      <point x="153" y="321"/>
      <point x="119" y="362"/>
      <point x="84" y="363" type="curve"/>
      <point x="84" y="367" type="line"/>
      <point x="119" y="368"/>
      <point x="153" y="409"/>
      <point x="153" y="468" type="curve" smooth="yes"/>
      <point x="153" y="765" type="line"/>
      <point x="260" y="765" type="line"/>
      <point x="260" y="793" type="line"/>
      <point x="160" y="793" type="line" smooth="yes"/>
      <point x="135" y="793"/>
      <point x="123" y="777"/>
      <point x="123" y="754" type="curve" smooth="yes"/>
      <point x="123" y="467" type="line" smooth="yes"/>
      <point x="123" y="411"/>
      <point x="91" y="381"/>
      <point x="60" y="381" type="curve" smooth="yes"/>
      <point x="39" y="381" type="line"/>
      <point x="39" y="349" type="line"/>
      <point x="60" y="349" type="line" smooth="yes"/>
      <point x="91" y="349"/>
      <point x="123" y="319"/>
      <point x="123" y="263" type="curve" smooth="yes"/>
      <point x="123" y="-24" type="line" smooth="yes"/>
      <point x="123" y="-47"/>
      <point x="135" y="-63"/>
    </contour>
  </outline>
</glyph>
<glyph name="bracketleft.case" format="2">
  <advance width="249"/>
  <outline>
    <contour>
      <point x="72" y="-63" type="line"/>
      <point x="209" y="-63" type="line"/>
      <point x="209" y="-35" type="line"/>
      <point x="102" y="-35" type="line"/>
      <point x="102" y="765" type="line"/>
      <point x="209" y="765" type="line"/>
      <point x="209" y="793" type="line"/>
      <point x="72" y="793" type="line"/>
    </contour>
  </outline>
</glyph>
<glyph name="brevecomb_acutecomb" format="2">
  <anchor x="124" y="515" name="_top"/>
  <outline>
    <contour>
      <point x="124" y="569" type="curve" smooth="yes"/>
      <point x="178" y="569"/>
      <point x="207" y="618"/>
      <point x="207" y="710" type="curve"/>
      <point x="180" y="710" type="line"/>
      <point x="181" y="636"/>
      <point x="160" y="597"/>
      <point x="124" y="597" type="curve" smooth="yes"/>
      <point x="87" y="597"/>
      <point x="68" y="635"/>
      <point x="68" y="710" type="curve"/>
      <point x="40" y="710" type="line"/>
      <point x="41" y="618"/>
      <point x="69" y="569"/>
    </contour>
    <contour>
      <point x="107" y="733" type="line"/>
      <point x="136" y="733" type="line"/>
      <point x="182" y="835" type="line"/>
      <point x="149" y="835" type="line"/>
    </contour>
  </outline>
</glyph>
<glyph name="brevecomb_hookabovecomb" format="2">
  <anchor x="124" y="515" name="_top"/>
  <outline>
    <contour>
      <point x="124" y="569" type="curve" smooth="yes"/>
      <point x="178" y="569"/>
      <point x="207" y="618"/>
      <point x="207" y="710" type="curve"/>
      <point x="180" y="710" type="line"/>
      <point x="181" y="636"/>
      <point x="160" y="597"/>
      <point x="124" y="597" type="curve" smooth="yes"/>
      <point x="87" y="597"/>
      <point x="68" y="635"/>
      <point x="68" y="710" type="curve"/>
      <point x="40" y="710" type="line"/>
      <point x="41" y="618"/>
      <point x="69" y="569"/>
    </contour>
    <contour>
      <point x="118" y="719" type="line"/>
      <point x="149" y="737"/>
      <point x="167" y="759"/>
      <point x="167" y="785" type="curve" smooth="yes"/>
      <point x="167" y="815"/>
      <point x="146" y="835"/>
      <point x="113" y="835" type="curve" smooth="yes"/>
      <point x="102" y="835"/>
      <point x="87" y="833"/>
      <point x="75" y="828" type="curve"/>
      <point x="75" y="802" type="line"/>
      <point x="84" y="807"/>
      <point x="96" y="809"/>
      <point x="106" y="809" type="curve" smooth="yes"/>
      <point x="123" y="809"/>
      <point x="135" y="799"/>
      <point x="135" y="782" type="curve" smooth="yes"/>
      <point x="135" y="763"/>
      <point x="124" y="752"/>
      <point x="103" y="737" type="curve"/>
    </contour>
  </outline>
</glyph>
<glyph name="brevecomb_tildecomb" format="2">
  <anchor x="131" y="515" name="_top"/>
  <outline>
    <contour>
      <point x="132" y="569" type="curve" smooth="yes"/>
      <point x="186" y="569"/>
      <point x="215" y="618"/>
      <point x="215" y="710" type="curve"/>
      <point x="188" y="710" type="line"/>
      <point x="189" y="636"/>
      <point x="168" y="597"/>
      <point x="132" y="597" type="curve" smooth="yes"/>
      <point x="95" y="597"/>
      <point x="76" y="635"/>
      <point x="76" y="710" type="curve"/>
      <point x="48" y="710" type="line"/>
      <point x="49" y="618"/>
      <point x="77" y="569"/>
    </contour>
    <contour>
      <point x="176" y="740" type="curve" smooth="yes"/>
      <point x="204" y="740"/>
      <point x="223" y="759"/>
      <point x="222" y="801" type="curve"/>
      <point x="204" y="801" type="line"/>
      <point x="203" y="778"/>
      <point x="197" y="767"/>
      <point x="177" y="767" type="curve" smooth="yes"/>
      <point x="150" y="767"/>
      <point x="118" y="798"/>
      <point x="85" y="798" type="curve" smooth="yes"/>
      <point x="59" y="798"/>
      <point x="39" y="779"/>
      <point x="40" y="736" type="curve"/>
      <point x="58" y="736" type="line"/>
      <point x="59" y="757"/>
      <point x="63" y="771"/>
      <point x="84" y="771" type="curve" smooth="yes"/>
      <point x="111" y="771"/>
      <point x="143" y="740"/>
    </contour>
  </outline>
</glyph>
<glyph name="caroncomb.alt" format="2">
  <anchor x="-20" y="729" name="_topright"/>
  <outline>
    <contour>
      <point x="40" y="515" type="line"/>
      <point x="69" y="515" type="line"/>
      <point x="109" y="729" type="line"/>
      <point x="80" y="729" type="line"/>
    </contour>
  </outline>
</glyph>
<glyph name="caroncomb.alt.t" format="2">
  <anchor x="-28" y="729" name="_topright"/>
  <outline>
    <contour>
      <point x="40" y="562" type="line"/>
      <point x="69" y="562" type="line"/>
      <point x="102" y="729" type="line"/>
      <point x="73" y="729" type="line"/>
    </contour>
  </outline>
</glyph>
<glyph name="circumflexcomb_acutecomb" format="2">
  <anchor x="124" y="515" name="_top"/>
  <outline>
    <contour>
      <point x="40" y="568" type="line"/>
      <point x="69" y="568" type="line"/>
      <point x="124" y="675" type="line"/>
      <point x="179" y="568" type="line"/>
      <point x="209" y="568" type="line"/>
      <point x="138" y="704" type="line"/>
      <point x="110" y="704" type="line"/>
    </contour>
    <contour>
      <point x="114" y="752" type="line"/>
      <point x="146" y="752" type="line"/>
      <point x="192" y="835" type="line"/>
      <point x="160" y="835" type="line"/>
    </contour>
  </outline>
</glyph>
<glyph name="circumflexcomb_gravecomb" format="2">
  <anchor x="125" y="515" name="_top"/>
  <outline>
    <contour>
      <point x="40" y="568" type="line"/>
      <point x="70" y="568" type="line"/>
      <point x="125" y="675" type="line"/>
      <point x="180" y="568" type="line"/>
      <point x="209" y="568" type="line"/>
      <point x="139" y="704" type="line"/>
      <point x="111" y="704" type="line"/>
    </contour>
    <contour>
      <point x="103" y="752" type="line"/>
      <point x="135" y="752" type="line"/>
      <point x="89" y="835" type="line"/>
      <point x="57" y="835" type="line"/>
    </contour>
  </outline>
</glyph>
<glyph name="circumflexcomb_hookabovecomb" format="2">
  <anchor x="124" y="515" name="_top"/>
  <anchor x="124" y="835" name="top"/>
  <outline>
    <contour>
      <point x="40" y="568" type="line"/>
      <point x="69" y="568" type="line"/>
      <point x="124" y="675" type="line"/>
      <point x="179" y="568" type="line"/>
      <point x="209" y="568" type="line"/>
      <point x="138" y="704" type="line"/>
      <point x="110" y="704" type="line"/>
    </contour>
    <contour>
      <point x="205" y="656" type="line"/>
      <point x="247" y="693"/>
      <point x="267" y="729"/>
      <point x="267" y="768" type="curve" smooth="yes"/>
      <point x="267" y="808"/>
      <point x="240" y="835"/>
      <point x="200" y="835" type="curve" smooth="yes"/>
      <point x="189" y="835"/>
      <point x="175" y="833"/>
      <point x="165" y="828" type="curve"/>
      <point x="165" y="804" type="line"/>
      <point x="173" y="807"/>
      <point x="183" y="809"/>
      <point x="196" y="809" type="curve" smooth="yes"/>
      <point x="224" y="809"/>
      <point x="239" y="792"/>
      <point x="239" y="765" type="curve" smooth="yes"/>
      <point x="239" y="736"/>
      <point x="226" y="710"/>
      <point x="190" y="677" type="curve"/>
    </contour>
  </outline>
</glyph>
<glyph name="comma.ss01" format="2">
  <advance width="130"/>
  <anchor x="-10" y="0" name="#entry"/>
  <anchor x="100" y="0" name="#exit"/>
  <anchor x="64" y="515" name="top"/>
  <outline>
    <contour>
      <point x="17" y="-137" type="line"/>
      <point x="41" y="-137" type="line"/>
      <point x="88" y="1" type="line" smooth="yes"/>
      <point x="91" y="9"/>
      <point x="93" y="17"/>
      <point x="93" y="26" type="curve" smooth="yes"/>
      <point x="93" y="42"/>
      <point x="81" y="52"/>
      <point x="64" y="52" type="curve" smooth="yes"/>
      <point x="49" y="52"/>
      <point x="35" y="42"/>
      <point x="35" y="24" type="curve" smooth="yes"/>
      <point x="35" y="5"/>
      <point x="49" y="-5"/>
      <point x="71" y="-2" type="curve"/>
      <point x="67" y="8" type="line"/>
    </contour>
  </outline>
</glyph>
